<svg width="570" height="565" viewBox="0 0 570 565" xmlns="http://www.w3.org/2000/svg"><g fill="none" fill-rule="evenodd"><path d="M535.353 283.222c0-137.963-111.935-249.802-250.015-249.802-138.078 0-250.014 111.84-250.014 249.802 0 137.963 111.936 249.803 250.014 249.803 138.08 0 250.015-111.84 250.015-249.803" fill="#D8E9F7" fill-rule="nonzero"/><g transform="translate(377.75 133.045)" fill="#CEDD3E" fill-rule="nonzero" stroke="#3E4147" stroke-linejoin="round" stroke-width="1.5"><path d="M1.11 1.103L0 37.273s59.41-.66 88.62.23c-.05-11.65 3.28-25.53 0-37-16.1-.82-31.87-.43-48.48-.26-7.7.1-39.03.86-39.03.86z"/><path d="M9.62 4.693s-.76 4.87-5.17 5.78v18.41s2.58.22 4.41 4.26h72.25s.07-5.05 4.26-5.48c0 0 1.22-16.28.3-19 0 0-5-1-4.87-4.72l-71.18.75z"/><ellipse cx="45.2" cy="18.533" rx="12.02" ry="11.26"/><path d="M47.85 14.713c-.24-4.87-11.1 1.2-4.3 3.43 1.6.52 4 .21 4.9 2.07 1.07 2.15-1.76 4.16-3.57 4.19-1.81.03-4.06-1.22-3.75-3.42" stroke-linecap="round"/><path d="M43.99 11.123s-.08 6.41-.09 9.42a45.39 45.39 0 0 0-.1 4.73m2.14-14.16c0 4.76.07 9.68-.27 14.39" stroke-linecap="round"/></g><path d="M210.66099999999997 321.323l-.001-.001a76.855 76.855 0 0 0-2.527-1.397c-4.621-2.395-9.426-4.376-14.287-6.15-4.858-1.784-9.776-3.372-14.7-4.92-4.924-1.539-9.85-3.073-14.817-4.502-7.534-2.154-15.14-4.165-22.88-5.572 3.87-5.035 8.23-9.765 12.848-14.165 4.92-4.683 10.229-8.96 15.881-12.707 2.836-1.86 5.763-3.58 8.787-5.101.575-.293 1.158-.567 1.741-.841.78.146 1.51.267 2.183.377 9.014 1.461 9.17 1.491 34.166 59.31-2.008-1.628-4.168-3.05-6.394-4.331m-10.174 18.248c-.786-6.696 2.134-11.042 5.044-13.642-2.906 2.6-5.83 6.946-5.044 13.642M297.864 134.5c-5.072 11.851-17.1 25.047-26.869 29.526 9.769-4.479 21.796-17.675 26.869-29.526m5.678-38.573h.002c-.596 11.562-1.967 21.795-2.833 27.422.865-5.63 2.234-15.865 2.831-27.422m5.426 25.727a50.599 50.599 0 0 1 0 .001c-2.348-2.034-4.775-4.136-5.54-7.656-.003-.013-.011-.021-.014-.034v-.01.008c.004.013.012.022.015.036.764 3.52 3.191 5.622 5.539 7.655M181.027 420.337c-2.584 12.466-3.639 26.467-3.7 40.778.061-14.31 1.116-28.312 3.7-40.778m5.381 130.916c-3.025-16.49-6.952-41.677-8.458-67.96 1.506 26.283 5.433 51.47 8.458 67.96m-1.225-509.207l.005-.001-.005.002c-1.964-4.66-.264-8.881 1.784-11.57-2.041 2.69-3.747 6.912-1.784 11.569m-6.28 65.406c1.533-.833 2.984-1.335 4.195-1.431-1.21.096-2.664.601-4.196 1.431m-2.474-54.707c.733-2.175 2.09-4.06 3.669-5.594-1.58 1.534-2.936 3.419-3.669 5.594m136.796 83.344c-.18.815-.377 1.65-.575 2.496-.554 2.355-1.133 4.831-1.464 7.214.331-2.383.91-4.859 1.464-7.214.198-.846.395-1.681.575-2.496m1.831-19.647c3.247 2.635 6.05 4.91 7.07 8.44 1.102 3.813-1.466 9.517-3.948 15.032-.972 2.16-1.923 4.28-2.678 6.303.755-2.022 1.705-4.141 2.677-6.302 2.483-5.516 5.05-11.22 3.948-15.033-1.02-3.53-3.822-5.805-7.069-8.44-.282-.23-.567-.462-.855-.699.287.236.573.47.855.699m152.202 64.777c-.096-.27-.323-.636-.864-.839-6.038-2.261-11.033 4.588-12.018 6.056-5.511 1.2-7.249 6.28-8.642 10.385-1.513 4.457-2.598 7.058-6.11 6.326 3.547-6.956 6.807-15.225 6.637-17.65-.086-1.223-.892-1.383-1.138-1.404-5.091-.418-8.02 2.002-10.118 5.208-1.52-.05-6.513.153-12.026 4.231.023-.35.039-.701.027-1.07-.021-.228-.03-.447-.097-.7a2.732 2.732 0 0 0-.276-.768c-.045-.127-.19-.27-.292-.397a1.218 1.218 0 0 0-.416-.33c-.319-.214-.68-.227-.977-.255-.859.01-1.755.156-2.586.517-.833.356-1.566.924-2.14 1.569-.577.646-1.01 1.361-1.398 2.07-.067.13-.127.262-.193.392-14.129-1.465-21.666-1.05-28.328 8.034-.658.277-1.3.607-1.917 1.002-1.199.822-2.314 1.872-3.016 3.155-.733 1.25-1.25 2.6-1.593 3.938-.372 1.341-.64 2.679-.929 3.994-.259 1.33-.66 2.58-.987 3.873-1.6 5.085-3.96 9.946-6.582 14.633-2.64 4.687-5.587 9.206-8.728 13.584a174.404 174.404 0 0 1-10.029 12.677 134.456 134.456 0 0 1-5.467 5.941l-2.84 2.932c-.916 1.015-1.85 2.014-2.722 3.072a46.958 46.958 0 0 0-3.683 4.945l-3.76-4.812c.693-3.157.974-6.42.583-9.667-.082-1.064-.328-2.107-.566-3.15-.086-.53-.328-1.018-.487-1.53-.186-.5-.338-1.023-.557-1.502-.453-.949-.866-1.926-1.355-2.851l-1.502-2.752c-4.204-7.195-9.034-13.92-13.61-20.799-.54-.806-1.057-1.625-1.587-2.44-1.344-33.719-11.097-38.43-22.39-43.88-4.87-2.35-9.847-4.77-14.624-9.6l-.047-.048c-2.111-2.14-4.182-4.752-6.187-8.048 12.11-5.763 27.333-23.949 29.728-37.29.032-.177.766-4.365 1.58-10.816 1.252 2.381 3.196 4.076 4.972 5.615 2.4 2.079 4.473 3.875 4.61 6.866.102 2.225-.627 5.327-1.399 8.612-1.494 6.358-3.188 13.565.144 18.095 1.818 2.473 4.851 3.831 9.268 4.153l.056.002a.738.738 0 0 0 .171-1.456c-2.516-.602-4.112-1.654-4.88-3.215-1.741-3.542.951-9.523 3.554-15.309 2.591-5.758 5.27-11.712 4.02-16.045-1.147-3.974-4.261-6.5-7.557-9.177-5.03-4.083-10.646-8.68-10.892-19.726.304-.105.604-.23.895-.4.66-.36 1.236-.942 1.448-1.607-.86.334-1.604.293-2.338.154.02-.617.038-1.234.09-1.889a.713.713 0 0 0-.068-.348c.057-1.772.092-3.562.102-5.356 6.716-5.385 10.298-11.361 10.64-17.767.472-8.853-5.368-15.519-6.64-16.86.826-24.023-14.28-27.955-17.271-28.496-5.071-16.648-27.559-17.013-30.628-16.983-3.47-2.779-7.162-4.351-11.047-4.688-10.186-.878-17.862 6.995-18.184 7.331a.726.726 0 0 0-.17.326c-4.245-.576-8.93-.031-13.01 3.235-2.154 1.723-3.858 3.498-5.216 5.237-1.805-.36-8.135-1.238-12.56 3.106-.696.683-1.306 1.511-1.845 2.426-1.556.287-8.038 1.608-11.226 4.205-3.932 3.202-6.821 9.328-4.236 15.45-2.183 1.148-6.975 4.203-8.802 9.63a13.027 13.027 0 0 0-.536 2.325c-.557.781-3.353 4.844-5.681 10.633-2.359 5.866-4.622 14.637-2.003 23.113 2.083 6.738 6.885 12.284 14.296 16.58-5.388 1.653-13.084 8.212-14.97 16.2-1.311 5.555-.269 13.643 12.141 20.628.02.012.043.008.065.017a30.171 30.171 0 0 0 6.283 10.23c5.66 6.05 14.44 10.192 23.978 10.19 5.728 0 11.729-1.516 17.492-4.988.003.366.006.732-.002 1.095-.082 3.797-.896 7.656-3.014 10.719a12.863 12.863 0 0 1-4.053 3.716c-1.592.953-3.404 1.46-5.301 2.078-3.735 1.215-7.444 2.533-11.085 4.033-7.287 2.986-14.276 6.783-20.635 11.46-6.428 4.613-11.956 10.294-17.443 15.85a912.27 912.27 0 0 0-32.011 34.393c-10.356 11.75-20.436 23.76-29.8 36.343-4.67 6.297-9.165 12.74-13.211 19.48-2.012 3.377-3.934 6.816-5.581 10.408-1.641 3.585-3.108 7.303-3.785 11.283-.325 1.983-.444 4.053-.014 6.108.432 2.085 1.49 3.924 2.837 5.484 2.724 3.147 6.497 4.965 10.235 6.256 3.779 1.284 7.682 2.024 11.583 2.584 3.908.538 7.831.862 11.755 1.068 15.702.775 31.368.106 47.01.014 7.82-.055 15.64-.022 23.436.372 7.199.367 14.395 1.027 21.44 2.408l-.912.626-1.206.83c-.393.289-.75.623-1.128.93l-2.233 1.89c-.7.678-1.37 1.388-2.055 2.08l-1.02 1.047-.927 1.129c-.608.76-1.26 1.49-1.83 2.277l-1.665 2.397c-.57.79-1.013 1.661-1.524 2.487a59.017 59.017 0 0 0-4.815 10.588c-1.164 3.472-2.054 7-2.557 10.669h-3.543a49.462 49.462 0 0 0 1.166-5.505c.332-2.188.52-4.409.428-6.651-.109-2.232-.473-4.538-1.608-6.627-.576-1.031-1.379-1.976-2.376-2.667-.993-.697-2.145-1.121-3.303-1.343l-.027-.006a.605.605 0 0 0-.254.008l-.004.001a2.902 2.902 0 0 0-1.199.555c-.367.297-.612.698-.767 1.082-.306.782-.313 1.505-.316 2.195.031 1.372.24 2.647.362 3.909.124 1.253.204 2.505-.016 3.622-.108.586-.305.98-.633 1.602a47.084 47.084 0 0 0-.862 1.764c-.549 1.197-1.04 2.45-1.353 3.773-.304 1.326-.415 2.722-.251 4.097.18 1.387.54 2.686 1.258 3.947.715 1.198 1.607 2.205 2.534 3.16a34.785 34.785 0 0 0 6.243 4.83c2.072 1.208 4.17 2.403 6.699 2.878-15.054 26.616-14.328 72.884-11.018 107.227 3.623 37.591 11.019 69.376 11.094 69.693a.751.751 0 0 0 .658.576l122.73 12.029a.754.754 0 0 0 .803-.56c12.029-46.454 25.154-114.23 19.373-173.298-3.203-32.74-10.716-48.231-12.122-50.888 1.74-3.068 1.986-13.533.644-16.492-.46-1.016-1.08-1.23-1.519-1.23-.63 0-1.154.321-1.882.764l-.167.103c.56-3.565 1.041-7.127 1.453-10.704.46-4.105.861-8.218 1.105-12.345.163-2.828.292-5.66.337-8.496 3.03 2.984 10.392 9.814 16.215 11.82.673.231 1.471.345 2.378.345 9.802 0 32.136-13.27 42.184-33.805 4.608-9.417 6.202-20.434 7.744-31.088 1.206-8.333 2.389-16.41 4.847-23.727a.761.761 0 0 0 .036-.108c2.076-6.141 5.068-11.739 9.756-16.481 2.133-.31 4.286-.638 6.457-1.064a23.44 23.44 0 0 0 2.326-.587c.775-.265 1.58-.526 2.331-1.2l.001-.002c2.163-.004 14.362-.06 17.633-.752.597-.003 4.613-.05 8.919-.76 3.067-.506 5.508-1.222 7.322-2.139 8.298-1.553 11.168-10.047 13.472-16.883.32-.95.634-1.88.952-2.767.886-2.47 2.072-4.465 3.024-6.068 1.08-1.817 1.73-2.915 1.41-3.824" fill="#3E4147" fill-rule="nonzero"/><path d="M300.903 367.152a.76.76 0 0 1-.243.093c-.059.01-.335.063-.78.126-5.315 1.1-11.622 1.848-18.86 1.848-15.83 0-36.116-3.586-60.239-14.886a111.495 111.495 0 0 1-2.583 3.061c-1.696 1.948-3.4 3.867-4.996 5.858-1.607 1.973-3.035 4.09-4.506 6.213-2.916 4.236-5.747 8.538-8.629 12.819-1.443 2.138-2.898 4.273-4.434 6.369-.772 1.045-1.561 2.082-2.431 3.083-.44.5-.887.994-1.427 1.457a5.216 5.216 0 0 1-.937.658 4.442 4.442 0 0 1-.395.15c-28.315 48.551-2.281 167.055-.26 175.982l76.631 7.511 14.72-143.433c-1.602.3-3.207.588-4.814.869-3.045.527-6.106.968-9.233 1.094 2.928-1.1 5.922-1.883 8.931-2.582a342.78 342.78 0 0 1 9.055-1.974c3.03-.6 6.07-1.151 9.114-1.68 3.048-.51 6.11-.949 9.229-1.115-2.937 1.059-5.93 1.846-8.936 2.56a400.17 400.17 0 0 1-9.05 1.996c-.916.185-1.835.357-2.753.533l-14.764 143.879 43.418 4.255c11.94-46.264 24.884-113.44 19.188-171.997-2.98-30.639-9.938-46.374-11.736-50.018-2.342 1.835-8.565 5.125-18.28 7.27" fill="#71A3C3" fill-rule="nonzero"/><path d="M375.032 229.317a114.031 114.031 0 0 1-2.443 4.608c-2.672 4.747-5.648 9.307-8.817 13.725a175.557 175.557 0 0 1-10.116 12.786 135.375 135.375 0 0 1-5.527 6.007l-2.785 2.927c-.886 1.005-1.791 1.996-2.63 3.036-3.353 4.142-6.29 8.67-7.712 13.77-.738 2.535-1.103 5.178-1.274 7.852-.153 2.677-.094 5.381-.027 8.093-.479-2.67-.814-5.372-.884-8.108-.094-2.732.144-5.507.795-8.204.645-2.699 1.718-5.3 3.1-7.694.082-.14.171-.272.254-.41l-3.379-4.323c-.092.342-.183.685-.285 1.023a39.361 39.361 0 0 1-5.512 11.311c-2.328 3.321-5.159 6.31-8.45 8.723.607 3.975.837 7.972.912 11.96.012.597.007 1.192.008 1.789 1.732 1.762 10.378 10.342 16.695 12.519 6.457 2.223 31.67-10.115 42.72-32.698 4.504-9.204 6.08-20.103 7.607-30.643 1.126-7.787 2.283-15.705 4.63-23.032-.189.003-.384.015-.57.015-8.549 0-14.337-3.595-16.31-5.032" fill="#F3783C" fill-rule="nonzero"/><path d="M317.793 294.088c0-.247.124-.467.31-.6 3.289-2.345 6.127-5.313 8.452-8.632a37.837 37.837 0 0 0 5.306-10.887c1.166-3.867 1.758-7.953 1.275-11.936-.074-1.003-.308-1.973-.526-2.945-.078-.497-.31-.946-.456-1.42-.175-.468-.307-.944-.517-1.404-.44-.914-.831-1.845-1.308-2.748l-1.47-2.691c-4.153-7.084-8.941-13.838-13.58-20.688-2.326-3.423-4.696-6.832-6.761-10.445-.514-.906-1.02-1.815-1.507-2.736-.483-.924-.902-1.886-1.346-2.828-.434-.948-.759-1.957-1.115-2.934-.198-.48-.28-1.014-.405-1.519-.12-.51-.233-1.02-.33-1.527 1.7 3.794 3.882 7.237 6.042 10.74 1.17 1.808 2.323 3.63 3.485 5.448-1.689-30.492-10.851-34.924-21.418-40.025-4.016-1.939-8.33-4.03-12.575-7.633 1.88 4.886 5.46 14.997 7.727 26.464 4.225 21.37 1.983 37.743-6.484 47.352a.755.755 0 0 1-.776.226c-26.888-7.828-37.416-29.084-46.704-47.838-5.154-10.406-10.03-20.236-17.164-27.212-.595.197-1.186.385-1.758.571-3.71 1.207-7.381 2.512-10.978 3.995-7.196 2.948-14.061 6.68-20.316 11.28-6.319 4.534-11.763 10.126-17.26 15.692a910.815 910.815 0 0 0-31.958 34.335c-10.336 11.727-20.395 23.713-29.72 36.243-4.649 6.271-9.12 12.68-13.127 19.357-1.992 3.343-3.892 6.744-5.507 10.266-1.61 3.512-3.032 7.149-3.667 10.897-.308 1.864-.401 3.768-.027 5.549.354 1.758 1.3 3.43 2.505 4.817 2.434 2.828 5.975 4.575 9.581 5.816 3.64 1.237 7.465 1.967 11.307 2.516 3.847.53 7.733.852 11.626 1.057 15.59.77 31.254.105 46.918.012 7.836-.054 15.68-.024 23.524.374 3.955.201 7.915.489 11.86.936-1.048-10.541 6.573-15.738 9.767-17.432a83.542 83.542 0 0 0-1.282-.694c-4.535-2.35-9.285-4.31-14.108-6.07-4.822-1.771-9.719-3.354-14.633-4.898-4.919-1.536-9.838-3.068-14.782-4.49-9.887-2.829-19.884-5.405-30.053-6.67a78.441 78.441 0 0 0-15.26-.378c-5.028.431-10.12 1.812-14.14 5.125 1.788-1.866 4.005-3.346 6.412-4.38 2.402-1.069 4.983-1.67 7.569-2.07 5.199-.84 10.458-.398 15.6.21 1.916.239 3.82.536 5.72.858 4.082-5.393 8.632-10.327 13.5-14.968 4.977-4.737 10.352-9.068 16.09-12.873 5.766-3.75 11.881-7.037 18.405-9.348l2.461-.82c.83-.246 1.673-.445 2.507-.669a30.257 30.257 0 0 1 2.529-.58c.85-.158 1.694-.346 2.553-.456l2.575-.3c.855-.115 1.727-.081 2.587-.128 1.72-.118 3.45.052 5.157.166-3.416.43-6.77.883-10.075 1.612-3.3.737-6.56 1.61-9.747 2.735a98.359 98.359 0 0 0-5.135 2.001c9.942 1.612 9.982 1.692 36.565 63.19.356.356.71.713 1.052 1.086 1.765 1.973 3.246 4.254 4.186 6.774.188.497.347 1.003.49 1.514 38.008 19.4 76.861 9.76 78.128 9.436a545.05 545.05 0 0 1 4.704-1.447c1.02-.31 2.02-.613 2.989-.913 1.977-.611 3.375-1.21 4.412-1.732a251.46 251.46 0 0 0 1.62-11.795c.457-4.082.855-8.172 1.097-12.267.19-3.321.337-6.645.348-9.967a.737.737 0 0 1-.004-.718c-.001-.535.004-1.07-.007-1.606-.076-4.09-.31-8.18-.955-12.193v-.14z" fill="#F3783C" fill-rule="nonzero"/><path d="M279.776 249.14c18.842-22.184-1.979-72.424-3.014-74.877-2.457-2.503-4.866-5.622-7.154-9.63-1.348.45-2.642.723-3.853.783-.286.014-.584.022-.885.022-9.718.001-26.728-7.301-38.246-16.641.691 3.137 1.04 6.315.972 9.54-.09 3.97-.926 8.12-3.285 11.54a14.354 14.354 0 0 1-4.526 4.155c-.73.435-1.499.773-2.273 1.075 7.035 7.111 11.86 16.832 16.949 27.108 9.54 19.265 19.406 39.182 45.315 46.925M420.15 203.486c7.213 1.804 9.446-3.056 12.001-8.675.601-1.322 1.222-2.689 1.934-3.986-2.113.116-6.682.878-11.429 4.88-.116.53-.242 1.053-.377 1.575-.412 1.52-.914 2.996-1.45 4.457-.22.587-.449 1.168-.679 1.75" fill="#CAA575" fill-rule="nonzero"/><path d="M316.527 344.04c-1.109.568-2.624 1.23-4.8 1.902-.897.278-1.825.56-2.767.846v16.607c5.607-2.014 8.966-4.178 9.88-5.218 1.16-1.32 1.84-8.57 1.232-13.148-.294-2.23-.749-2.555-.754-2.558-.12.02-.495.249-1.012.563-.375.23-.846.514-1.44.83a.729.729 0 0 1-.339.177" fill="#83603C" fill-rule="nonzero"/><path d="M304.569 348.137v16.655a64.922 64.922 0 0 0 2.886-.88v-16.666c-.943.288-1.908.585-2.886.89" fill="#FDBE2A" fill-rule="nonzero"/><path d="M454.873 187.857c-4.829.945-6.296 5.267-7.715 9.446-1.436 4.23-2.93 8.58-8.247 7.213-1.683 3.18-3.379 5.953-4.768 7.59 5.5-.25 15.156-1.5 16.473-5.45 3.05-9.139 4.918-17.428 4.257-18.799M419.32 201.192c.508-1.434.98-2.88 1.357-4.337.36-1.44.706-2.96.644-4.279-.016-.312-.083-.62-.164-.756-.1-.118-.036-.08-.202-.115-.68.013-1.328.13-1.911.382-1.177.49-2.033 1.618-2.745 2.89-1.414 2.564-2.372 5.67-4.48 8.206-1.026 1.274-2.401 2.31-3.928 2.899a9.606 9.606 0 0 1-4.717.562c3.03-.826 5.688-2.123 7.466-4.426 1.444-1.783 2.29-3.977 3.304-6.216-12.511-1.271-19.258-.96-25.077 5.785 1.201-.273 2.42-.426 3.618-.494 2.772-.18 5.518.126 8.181.84-2.738.431-5.42.424-8.05.746-2.609.302-5.238.734-7.384 2.027-1.02.691-1.969 1.513-2.575 2.622a13.856 13.856 0 0 0-1.431 3.562c-.353 1.268-.618 2.586-.908 3.913-.26 1.328-.68 2.661-1.02 3.991-.969 3.084-2.203 6.054-3.59 8.945 1.606 1.193 7.713 5.198 16.71 4.873 1.933-5.558 4.628-10.734 8.607-15.201-.1.015-.201.03-.3.043-1.497.223-2.988.455-4.426.807-1.426.367-2.872.773-3.91 1.966.197-.774.757-1.449 1.39-1.964.634-.53 1.362-.905 2.095-1.235 1.478-.654 3.025-1.011 4.557-1.319 3.07-.591 6.17-.713 9.143-1.233.738-.137 1.476-.277 2.164-.497.673-.22 1.364-.498 1.755-.875.389-.378.816-1.089 1.182-1.711.374-.648.73-1.316 1.07-1.995a74.8 74.8 0 0 0 3.576-8.406" fill="#CAA575" fill-rule="nonzero"/><path d="M285.622 359.41c.27 2.034 1.189 3.63 2.73 4.738 4.274 3.075 11.944 1.635 12.021 1.62a.729.729 0 0 1 .291.002c.83-.185 1.623-.378 2.4-.578v-16.58c-8.859 2.842-18.02 6.438-17.442 10.798" fill="#83603C" fill-rule="nonzero"/><path d="M455.965 186.797c1.903 2.255-2.519 16.13-3.92 20.336a4.605 4.605 0 0 1-.396.852c4.817-2.8 6.912-8.996 8.796-14.586.323-.96.64-1.899.962-2.796.934-2.605 2.213-4.756 3.146-6.327.55-.928 1.228-2.07 1.279-2.497-4.467-1.613-8.508 3.168-9.867 5.018M444.77 185.575c-4.374-.284-6.844 1.846-8.718 4.86l-.011.016c-.934 1.505-1.723 3.225-2.52 4.981-2.625 5.779-5.356 11.724-13.941 9.457a80.204 80.204 0 0 1-2.466 5.402 38.788 38.788 0 0 1-1.123 2.07c-.112.182-.22.362-.33.543 3.752-.024 13.66-.14 16.257-.728.665-.156 2.975-3.016 6.624-10.252 3.945-7.826 6.453-14.863 6.228-16.35" fill="#CAA575" fill-rule="nonzero"/><path d="M225.018 347.787c-.564 1.221-1.203 2.402-1.957 3.484a39.853 39.853 0 0 1-1.332 1.848c29.806 13.9 53.575 15.944 70.165 14.093-1.568-.333-3.116-.905-4.423-1.845-1.89-1.36-3.014-3.298-3.34-5.76-.53-3.99 4.16-7.046 10.547-9.63-13.94 1.82-41.5 2.867-68.802-10.668a17.85 17.85 0 0 1 .178 4.526c-.103 1.386-.537 2.698-1.036 3.952" fill="#83603C" fill-rule="nonzero"/><path d="M189.821 392.574c.068.007.156.017.147.002.01.011.108-.035.19-.066.196-.11.418-.267.637-.458.44-.376.864-.836 1.273-1.304.82-.945 1.595-1.959 2.352-2.986 1.512-2.061 2.96-4.187 4.399-6.318 2.874-4.27 5.71-8.579 8.638-12.83 1.463-2.115 2.921-4.274 4.57-6.3 1.627-2.031 3.347-3.967 5.035-5.906 1.683-1.94 3.346-3.887 4.748-5.973.72-1.033 1.307-2.129 1.826-3.244.449-1.133.834-2.296.92-3.49.223-2.45-.124-4.96-.995-7.261-.863-2.313-2.23-4.43-3.898-6.295-2.656-2.924-5.914-5.276-9.373-7.3-1.896.82-11.129 5.43-9.804 16.726 3.358.417 6.703.95 10.024 1.661a.75.75 0 0 1 .27 1.35l-.037.024-2.33 1.603-1.166.8c-.378.279-.724.602-1.088.9l-2.16 1.827c-.676.654-1.324 1.342-1.988 2.011l-.987 1.014-.898 1.094c-.588.737-1.22 1.44-1.773 2.206l-1.617 2.326c-.553.766-.982 1.615-1.48 2.417a57.527 57.527 0 0 0-4.69 10.318c-1.205 3.576-2.136 7.309-2.588 11.004l-.003.023a.754.754 0 0 1-.746.66h-5.176a.752.752 0 0 1-.723-.96l.005-.016a47.883 47.883 0 0 0 1.384-6.259c.322-2.114.499-4.251.411-6.36-.096-2.095-.458-4.203-1.418-5.96-.487-.865-1.133-1.617-1.926-2.167-.75-.526-1.625-.86-2.547-1.057-.369.113-.593.297-.747.685-.176.422-.213 1.017-.208 1.609.025 1.204.226 2.482.355 3.782.124 1.302.235 2.655-.039 4.075-.109.693-.487 1.472-.766 1.983-.291.568-.573 1.137-.836 1.708-1.061 2.27-1.78 4.681-1.477 7.065.14 1.162.499 2.395 1.068 3.373.607 1.018 1.428 1.959 2.294 2.85a33.317 33.317 0 0 0 5.965 4.608c1.07.67 2.19 1.245 3.322 1.769 1.134.487 2.328.916 3.443 1.017l.208.02z" fill="#CAA575" fill-rule="nonzero"/><path d="M198.05 260.13c-3.3.738-6.56 1.61-9.747 2.734a98.359 98.359 0 0 0-5.136 2.002c9.943 1.612 9.983 1.692 36.565 63.19.194.194.38.394.571.59-5.137-30.34-14.032-56.853-18.568-69.216a75.074 75.074 0 0 0-3.686.7zM332.817 294.014c-.094-2.733.145-5.508.794-8.206.646-2.698 1.719-5.3 3.101-7.693.082-.138.17-.272.254-.41l-3.378-4.322c-.093.34-.184.684-.286 1.022a39.387 39.387 0 0 1-5.512 11.311c-2.328 3.321-5.16 6.31-8.45 8.723.607 3.974.838 7.972.913 11.96.012.597.007 1.192.008 1.789 1.73 1.762 10.377 10.343 16.694 12.519 3.074 1.058 10.398-1.188 18.418-6.262-18.69 1.44-23.096-6.974-22.294-16.649a46.537 46.537 0 0 1-.262-3.782z" fill="#DF642F" fill-rule="nonzero"/><path d="M226.062 146.504c1.068 3.88 1.619 7.82 1.534 11.833-.09 3.972-.926 8.12-3.285 11.54a14.354 14.354 0 0 1-4.526 4.155c-1.78 1.063-3.78 1.617-5.595 2.21-3.71 1.206-7.382 2.51-10.977 3.993-7.197 2.948-14.062 6.681-20.318 11.282-6.318 4.532-11.763 10.124-17.26 15.69a909.986 909.986 0 0 0-31.957 34.335c-10.336 11.728-20.395 23.715-29.72 36.245-4.65 6.27-9.12 12.679-13.127 19.356-1.992 3.343-3.891 6.745-5.508 10.265-1.609 3.513-3.031 7.15-3.665 10.898-.308 1.864-.403 3.767-.027 5.55.354 1.758 1.298 3.43 2.505 4.816 2.433 2.829 5.975 4.576 9.58 5.816 3.64 1.238 7.466 1.966 11.306 2.517 3.848.529 7.734.85 11.627 1.056 15.59.77 31.253.104 46.919.011 7.834-.053 15.68-.023 23.523.374 7.838.401 15.694 1.132 23.418 2.787a.749.749 0 0 1 .27 1.349l-.036.025-2.33 1.602-1.165.8c-.38.28-.726.602-1.09.9l-2.16 1.826c-.676.656-1.323 1.343-1.987 2.013l-.987 1.013-.898 1.094c-.587.738-1.22 1.44-1.773 2.205l-1.616 2.328c-.554.765-.982 1.614-1.481 2.417a57.55 57.55 0 0 0-4.691 10.316c-1.205 3.577-2.135 7.31-2.587 11.004l-.003.024a.752.752 0 0 1-.747.66h-5.176a.752.752 0 0 1-.722-.961l.004-.015a47.523 47.523 0 0 0 1.385-6.26c.322-2.113.498-4.25.412-6.358-.097-2.095-.46-4.204-1.419-5.96-.486-.867-1.133-1.618-1.927-2.169-.791-.554-1.72-.9-2.7-1.093l.28-.003h-.002c-.452.11-.7.293-.87.724-.177.422-.214 1.019-.208 1.61.025 1.205.226 2.481.354 3.781.124 1.303.235 2.656-.04 4.076-.108.695-.487 1.471-.766 1.983a47 47 0 0 0-.834 1.709c-1.063 2.27-1.78 4.68-1.477 7.064.14 1.161.498 2.395 1.066 3.373.607 1.019 1.429 1.958 2.296 2.85a33.315 33.315 0 0 0 5.963 4.608c1.07.67 2.191 1.245 3.323 1.769 1.134.488 2.328.916 3.443 1.018l.208.019c.069.007.156.017.147.002.01.011.107-.035.19-.066.196-.11.419-.268.637-.457.44-.376.863-.837 1.273-1.305.82-.945 1.595-1.958 2.352-2.985 1.511-2.062 2.96-4.187 4.399-6.32 2.875-4.269 5.709-8.578 8.637-12.83 1.463-2.113 2.922-4.273 4.57-6.3 1.628-2.03 3.348-3.967 5.036-5.905 1.683-1.94 3.346-3.887 4.749-5.973.72-1.034 1.307-2.13 1.825-3.244.448-1.134.834-2.297.92-3.49.222-2.45-.124-4.96-.995-7.262-.863-2.311-2.23-4.43-3.897-6.295-3.38-3.719-7.725-6.52-12.229-8.887-4.534-2.35-9.284-4.31-14.106-6.071-4.823-1.77-9.72-3.352-14.633-4.897-4.92-1.537-9.84-3.068-14.784-4.49-9.887-2.828-19.883-5.405-30.053-6.67a78.44 78.44 0 0 0-15.26-.377c-5.027.43-10.119 1.81-14.138 5.124 1.786-1.866 4.003-3.346 6.412-4.38 2.4-1.068 4.982-1.67 7.568-2.07 5.198-.839 10.457-.399 15.599.21 10.316 1.285 20.363 3.88 30.29 6.718 4.965 1.427 9.892 2.963 14.816 4.5 4.924 1.548 9.84 3.137 14.7 4.92 4.86 1.776 9.665 3.755 14.288 6.151 4.591 2.419 9.07 5.283 12.65 9.217 1.766 1.974 3.248 4.253 4.187 6.773a17.924 17.924 0 0 1 1.083 7.919c-.103 1.387-.536 2.7-1.037 3.953-.564 1.22-1.203 2.401-1.955 3.484-1.476 2.193-3.172 4.172-4.864 6.123-1.696 1.948-3.4 3.866-4.997 5.858-1.605 1.973-3.035 4.09-4.505 6.213-2.917 4.236-5.747 8.538-8.63 12.818-1.443 2.14-2.898 4.274-4.434 6.37-.77 1.045-1.56 2.082-2.43 3.083-.439.5-.887.994-1.427 1.457a5.255 5.255 0 0 1-.936.658c-.216.091-.41.192-.727.222-.167.028-.24.01-.333.004l-.274-.022c-2.87-.358-5.17-1.678-7.443-3.004a34.704 34.704 0 0 1-6.243-4.83c-.927-.954-1.82-1.96-2.534-3.16-.717-1.26-1.077-2.56-1.258-3.945-.163-1.375-.053-2.773.25-4.097.315-1.325.806-2.577 1.354-3.775.276-.598.566-1.186.862-1.763.328-.621.525-1.015.633-1.6.22-1.12.14-2.371.016-3.624-.122-1.261-.33-2.537-.362-3.91.003-.69.01-1.412.316-2.193.156-.384.4-.786.767-1.084a2.913 2.913 0 0 1 1.2-.553h.003a.59.59 0 0 1 .254-.01l.026.006c1.159.222 2.31.646 3.304 1.343.997.691 1.8 1.635 2.377 2.667 1.134 2.089 1.498 4.396 1.607 6.626.092 2.243-.096 4.464-.428 6.651a49.02 49.02 0 0 1-1.435 6.482l-.719-.977h5.176l-.75.684c.48-3.917 1.425-7.664 2.662-11.352a59.049 59.049 0 0 1 4.815-10.588c.511-.826.954-1.696 1.524-2.486l1.665-2.398c.57-.788 1.222-1.516 1.83-2.277l.927-1.129 1.02-1.046c.686-.693 1.355-1.404 2.055-2.08l2.233-1.89c.377-.309.736-.641 1.128-.931l1.206-.83 2.412-1.656.234 1.374c-7.595-1.627-15.384-2.355-23.174-2.752-7.796-.394-15.616-.425-23.436-.372-15.642.092-31.308.76-47.01-.013-3.923-.207-7.847-.531-11.755-1.07-3.902-.558-7.804-1.299-11.583-2.583-3.738-1.291-7.511-3.108-10.235-6.256-1.347-1.56-2.405-3.399-2.837-5.484-.43-2.055-.311-4.126.014-6.108.677-3.979 2.144-7.698 3.785-11.282 1.647-3.592 3.57-7.032 5.581-10.408 4.046-6.742 8.542-13.184 13.21-19.481 9.364-12.582 19.445-24.593 29.8-36.343a911.44 911.44 0 0 1 32.012-34.394c5.487-5.555 11.016-11.237 17.443-15.85 6.359-4.677 13.348-8.474 20.635-11.458 3.642-1.501 7.35-2.82 11.085-4.034 1.897-.617 3.709-1.124 5.3-2.078a12.837 12.837 0 0 0 4.053-3.716c2.119-3.064 2.933-6.922 3.016-10.718.087-3.808-.462-7.701-1.47-11.357l-.011-.04a.752.752 0 0 1 1.45-.399" fill="#3E4147" fill-rule="nonzero"/><path d="M139.477 298.854c4.153-5.537 8.807-10.583 13.784-15.328 4.978-4.738 10.352-9.068 16.09-12.873 5.765-3.75 11.881-7.037 18.406-9.348l2.46-.82c.83-.245 1.672-.445 2.508-.669a29.682 29.682 0 0 1 2.528-.58c.85-.159 1.695-.346 2.553-.456l2.575-.301c.855-.114 1.727-.08 2.587-.127 1.719-.118 3.45.052 5.157.166-3.416.43-6.769.883-10.076 1.612-3.298.738-6.559 1.61-9.746 2.734-3.176 1.141-6.318 2.407-9.337 3.944-3.026 1.521-5.951 3.242-8.788 5.101-5.652 3.748-10.96 8.024-15.88 12.707-4.912 4.677-9.552 9.717-13.598 15.114l-.019.025a.751.751 0 1 1-1.204-.901" fill="#3E4147" fill-rule="nonzero"/><path d="M180.534 265.172c12.212 2.367 9.373-3.821 37.966 62.328M269.955 163.737c17.597 31.602 42.092 8.074 44.266 63.206" stroke="#3E4147" stroke-linecap="round" stroke-linejoin="round" stroke-width="2"/><path d="M403.175 206.644c3.029-.826 5.687-2.124 7.464-4.425 1.839-2.27 2.705-5.205 4.184-8.051.388-.709.821-1.425 1.398-2.07.574-.645 1.307-1.213 2.14-1.569.831-.36 1.726-.507 2.586-.517.298.029.658.04.976.255.17.089.314.196.418.33.102.126.246.27.292.397.135.266.237.532.275.768.068.253.076.473.097.7.06 1.768-.331 3.286-.726 4.818-.412 1.52-.914 2.996-1.45 4.458-1.09 2.916-2.309 5.767-3.715 8.553a39.154 39.154 0 0 1-1.123 2.069c-.426.69-.761 1.344-1.467 2.053-.751.675-1.556.937-2.331 1.2a23.51 23.51 0 0 1-2.326.588c-3.086.606-6.135 1.015-9.141 1.453-1.499.223-2.989.456-4.427.807-1.426.367-2.872.773-3.91 1.966.197-.774.757-1.45 1.39-1.963.634-.53 1.362-.906 2.095-1.236 1.477-.655 3.024-1.01 4.557-1.319 3.07-.592 6.17-.713 9.143-1.232.738-.138 1.476-.278 2.164-.498.674-.22 1.365-.498 1.755-.875.39-.379.817-1.09 1.182-1.71.374-.648.73-1.317 1.07-1.996a74.885 74.885 0 0 0 3.576-8.406c.507-1.434.979-2.88 1.355-4.337.361-1.44.706-2.959.645-4.278-.017-.314-.083-.62-.163-.757-.1-.118-.036-.08-.203-.115-.68.013-1.33.13-1.912.383-1.176.49-2.032 1.617-2.744 2.889-1.413 2.565-2.372 5.67-4.48 8.205-1.026 1.274-2.401 2.31-3.928 2.9a9.606 9.606 0 0 1-4.716.562" fill="#3E4147" fill-rule="nonzero"/><path d="M419.108 203.993c16.355 4.988 10.757-20.403 25.952-19.15 3 .247-9.65 27.315-12.975 28.067-3.328.752-17.875.752-17.875.752" stroke="#3E4147" stroke-linecap="round" stroke-linejoin="round" stroke-width="2"/><path d="M438.511 203.63c10.06 3.265 5.403-14.527 16.33-16.532 2.714-.498-1.505 13.783-3.511 19.797-2.007 6.015-19.245 6.015-19.245 6.015" stroke="#3E4147" stroke-linecap="round" stroke-linejoin="round" stroke-width="2"/><path d="M454.841 187.098s5.19-8.299 11.287-6.014c1.753.656-1.954 4.036-4.013 9.773-2.653 7.392-4.918 17.582-13.964 19.192M435.392 190.077s-6.595-.724-13.513 5.29" stroke="#3E4147" stroke-linecap="round" stroke-linejoin="round" stroke-width="2"/><path d="M400.667 202.134c-2.74.43-5.42.424-8.05.745-2.61.302-5.238.734-7.385 2.027-1.02.69-1.97 1.513-2.574 2.622a13.85 13.85 0 0 0-1.432 3.562c-.352 1.267-.618 2.585-.908 3.912-.259 1.33-.68 2.663-1.02 3.993-1.65 5.25-4.053 10.179-6.708 14.93-2.673 4.747-5.65 9.308-8.817 13.725a176.048 176.048 0 0 1-10.116 12.786 135.422 135.422 0 0 1-5.528 6.007l-2.785 2.928c-.886 1.004-1.792 1.994-2.63 3.034-3.352 4.142-6.29 8.67-7.712 13.77-.738 2.537-1.103 5.18-1.274 7.853-.153 2.677-.094 5.381-.027 8.094-.479-2.67-.814-5.373-.884-8.109-.095-2.732.145-5.507.794-8.204.646-2.7 1.719-5.3 3.101-7.693 1.4-2.385 3.001-4.637 4.78-6.721.873-1.058 1.806-2.057 2.722-3.072l2.84-2.932a133.894 133.894 0 0 0 5.467-5.94 174.404 174.404 0 0 0 10.029-12.678c3.14-4.378 6.088-8.897 8.728-13.584 2.621-4.688 4.983-9.547 6.582-14.633.327-1.292.728-2.542.987-3.872.288-1.317.557-2.654.93-3.994.341-1.34.859-2.688 1.592-3.94.702-1.281 1.817-2.332 3.016-3.154 2.483-1.586 5.35-2.146 8.1-2.303 2.771-.18 5.518.127 8.182.84" fill="#3E4147" fill-rule="nonzero"/><path d="M415.149 195.368c-14.206-1.504-21.775-1.33-28.412 7.893M403.206 216.386c-18.34 18.074-11.82 49.399-22.855 71.953-11.035 22.553-36.367 35.584-43.64 33.078C329.437 318.912 320 309 320 309M374.783 228.172s6.914 5.98 18.154 5.383M209.5 322c-1 1-11.47 4.49-9.5 18" stroke="#3E4147" stroke-linecap="round" stroke-linejoin="round" stroke-width="2"/><path d="M309.857 218.888c2.23 3.453 4.404 6.956 6.698 10.39 4.576 6.878 9.406 13.603 13.61 20.799l1.502 2.75c.489.926.902 1.903 1.355 2.852.219.48.37 1.003.557 1.503.159.51.401.998.487 1.528.238 1.044.484 2.086.566 3.15.51 4.246-.119 8.517-1.33 12.546a39.377 39.377 0 0 1-5.513 11.31c-2.416 3.447-5.369 6.542-8.821 9.001l.309-.74c.662 4.127.898 8.28.976 12.423.078 4.144-.103 8.279-.34 12.405-.244 4.127-.645 8.24-1.105 12.345-.472 4.106-1.013 8.191-1.691 12.281a.753.753 0 0 1-1.485-.245l.002-.01c.668-4.036 1.21-8.12 1.68-12.198.456-4.08.855-8.169 1.097-12.266.235-4.096.416-8.198.337-12.291-.076-4.09-.31-8.18-.955-12.193v-.14c0-.247.125-.467.31-.6 3.289-2.344 6.127-5.313 8.452-8.632a37.825 37.825 0 0 0 5.307-10.887c1.164-3.867 1.757-7.953 1.275-11.937-.076-1.002-.308-1.972-.528-2.945-.076-.496-.308-.945-.454-1.42-.177-.466-.308-.943-.52-1.403-.439-.915-.83-1.846-1.305-2.747l-1.47-2.692c-4.154-7.083-8.942-13.838-13.58-20.689-2.327-3.423-4.698-6.83-6.762-10.444-.513-.906-1.02-1.816-1.507-2.735-.483-.925-.901-1.887-1.346-2.829-.434-.947-.758-1.956-1.116-2.934-.198-.48-.278-1.013-.405-1.52a38.418 38.418 0 0 1-.328-1.526c1.698 3.794 3.88 7.237 6.04 10.74z" fill="#3E4147" fill-rule="nonzero"/><path d="M216.161 174.819c20.727 19.842 22.542 63.15 63.866 75.179 20.316-23.055-2.615-76.129-2.615-76.129M221 353.5c59.636 28.155 95.123 8.907 98.405 5.173 2.018-2.297 2.352-16.934 0-16.934-1.095 0-2.105 1.694-7.9 3.485-11.475 3.546-27.49 7.791-26.629 14.284 1.296 9.774 15.64 6.998 15.64 6.998" stroke="#3E4147" stroke-linecap="round" stroke-linejoin="round" stroke-width="2"/><path d="M225.5 338c39.24 20.176 78.317 9.584 78.317 9.584v17.666M308.207 346.232v17.811" stroke="#3E4147" stroke-linecap="round" stroke-linejoin="round" stroke-width="2"/><path d="M319.405 358.673s35.03 61.312-7.106 224.034l-122.73-12.029s-29.666-126.468.383-177.34" stroke="#3E4147" stroke-linecap="round" stroke-linejoin="round" stroke-width="2"/><path d="M303.816 428.673c-2.937 1.059-5.929 1.846-8.936 2.56-3.01.697-6.025 1.37-9.05 1.996-3.027.613-6.066 1.17-9.11 1.7-3.045.528-6.107.97-9.233 1.095 2.928-1.1 5.921-1.883 8.93-2.582a341.98 341.98 0 0 1 9.056-1.974c3.03-.6 6.07-1.151 9.114-1.68 3.048-.51 6.111-.948 9.23-1.115" fill="#3E4147" fill-rule="nonzero"/><path d="M282.398 433.007l-14.91 145.308M333.5 272.5l4 5" stroke="#3E4147" stroke-linecap="round" stroke-linejoin="round" stroke-width="2"/><path d="M269.608 164.632c-1.348.451-2.641.724-3.852.784-.287.014-.585.022-.887.022-9.717.001-26.727-7.301-38.245-16.641.534 2.42.857 4.864.949 7.335 7.974 7.075 23.301 18.834 37.155 18.876 3.143.01 6.47-1.177 9.84-3.175-1.694-2.03-3.357-4.393-4.96-7.2z" fill="#B78554" fill-rule="nonzero"/><path d="M332.252 272.579c-2.954 5.332-11.828 13.032-29.616 15.474-63.786 8.754-60.308-2.143-70.263-5.227-16.84-5.22 3.568 21.048 17.048 20.688 18.872-.502 50.26-6.674 69.104-2.475-.147-2.286-.37-4.56-.732-6.81v-.141c0-.247.124-.467.309-.6 3.29-2.344 6.128-5.313 8.453-8.632a37.837 37.837 0 0 0 5.697-12.277" fill="#DF642F" fill-rule="nonzero"/><path d="M285.83 433.229c-.916.186-1.835.357-2.752.533l-14.765 143.879 1.232.12c7.644-60.018 19.515-125.056 23.459-146.102a371.582 371.582 0 0 1-7.175 1.57" fill="#5D91AB" fill-rule="nonzero"/><path d="M177.285 64.054c-1.417.728-2.316 2.5-2.467 4.86-.195 3.01.916 6.908 3.736 9.253 1.642-2.504 4.616-6.672 8.263-10.21-2.091-1.971-6.64-5.39-9.532-3.903M202.673 78.048c-1.937-1.549-7.399-4.123-16.273 5.456a.737.737 0 0 1-.918.133c-3.847-2.284-7.194-2.858-9.181-1.57-1.345.87-1.977 2.584-1.734 4.701.535 4.63 5.19 10.766 14.357 14.344.076-.882.25-1.734.537-2.544 1.277-3.604 3.078-5.674 5.354-6.154 3.156-.666 5.996 2.012 6.488 2.505 3.463 1.968 5.431 4.174 6.006 6.743.964 4.311-2.136 8.664-5.42 13.27-1.136 1.595-2.258 3.17-3.205 4.727l-.009.015c-2.835 4.668-4.09 9.179.573 13.611-.892-6.896 4.045-12.19 8.833-17.327 4.293-4.605 8.348-8.954 7.835-14.064-.428-4.248-4.01-8.722-10.953-13.68a.738.738 0 0 1-.178-1.02c1.735-2.511.73-6.87-2.112-9.146" fill="#83603C" fill-rule="nonzero"/><path d="M207.821 69.582c-.021-2.527-2.17-4.63-6.213-6.082-4.406-1.58-9.156 1.212-13.202 5.005v.002l-.003.001c-4.28 4.015-7.765 9.139-9.217 11.416 1.655.058 3.806.607 6.538 2.148 2.817-2.93 10.46-9.785 16.915-5.838 2.622-1.13 5.207-3.838 5.182-6.652" fill="#83603C" fill-rule="nonzero"/><path d="M210.926 125.278a203.28 203.28 0 0 1-2.421-7.608c-1.685 1.813-3.349 3.655-4.711 5.578 2.693 1.708 5.185 2.417 7.132 2.03" fill="#B78554" fill-rule="nonzero"/><path d="M205.868 101.984c-.366-1.636-1.467-3.128-3.34-4.522l3.304 7.378c.211-.977.244-1.93.036-2.856" fill="#50483C" fill-rule="nonzero"/><path d="M203.09 34.918c.11-.118 2.155-2.245 5.38-4.464.046-1.367.49-6.211 4.245-11.658-2.173-.31-7.108-.55-10.542 2.821-3.692 3.626-4.858 12.078-5.177 15.334 1.83-.863 3.888-1.606 6.093-2.033M219.524 25.655c.651-.89 4.508-5.555 13.243-4.923.548-.536 4.623-4.347 10.77-5.797-1.935-1.245-14.585-8.858-23.7-1.562-7.738 6.19-9.425 13.166-9.792 16.052 2.671-1.647 5.937-3.168 9.48-3.77" fill="#83603C" fill-rule="nonzero"/><path d="M263.126 38.037c.017-.008.031-.018.048-.024 2.23-1.061 3.774-2.532 4.55-4.157 1.91-3.997-.52-8.993-6.5-13.366-12.877-9.419-23.366-2.21-26.508.459 2.944.448 6.371 1.471 10.34 3.355 4.875 2.312 7.372 4.944 7.424 7.825.045 2.425-1.76 4.839-4.96 6.732 6.765 1.47 12.056.848 15.606-.824M217.864 41.841c-.354-1.96-1.945-3.522-4.734-4.642-9.8-3.937-19.59 3.186-22.48 5.573 3.02 1.54 5.51 4.415 6.307 5.397 1.863-.21 3.914-.212 6.18.07 4.736.588 7.99 1.827 9.737 3.69 1.54-1.556 5.692-6.18 4.99-10.088" fill="#83603C" fill-rule="nonzero"/><path d="M212.84 54.945c-.49-2.687-3.909-4.499-9.885-5.243-7.392-.918-13.27 1.103-17.466 6.009-2.392 2.798-3.521 5.762-3.928 7.032 2.75 1.013 5.275 3.202 6.335 4.205 4.278-3.849 9.334-6.59 14.21-4.836 1.935.695 3.365 1.495 4.422 2.335 2.75-1.65 6.957-5.975 6.313-9.502" fill="#83603C" fill-rule="nonzero"/><path d="M195.114 93.858c-1.734.37-3.169 2.12-4.261 5.202-.958 2.702-.487 5.965.793 9.229 1.383 3.524 3.711 7.04 6.248 9.861.878-1.385 1.847-2.747 2.792-4.075 1.766-2.475 3.472-4.873 4.458-7.159l-4.922-10.99c-.462-.449-2.78-2.562-5.108-2.068" fill="#CAA575" fill-rule="nonzero"/><path d="M303.413 113.963c.004.013.013.022.016.036.764 3.52 3.19 5.623 5.538 7.655 2.435 2.11 4.952 4.291 5.118 7.915.111 2.43-.64 5.63-1.437 9.015-1.421 6.049-3.032 12.904-.103 16.886.742 1.01 1.745 1.802 3.023 2.384a6.223 6.223 0 0 1-.924-1.377c-2.047-4.163.663-10.186 3.533-16.563 2.482-5.516 5.05-11.22 3.947-15.032-1.018-3.529-3.822-5.805-7.069-8.44-3.954-3.21-8.58-6.998-10.522-14.161-.32 4.237-.717 8.199-1.12 11.682M236.551 37.49c.571-1.882-.554-4.062-3.345-6.479-11.006-9.528-23.488-.123-27.627 3.574 2.594-.185 5.333.132 8.103 1.246 3.291 1.322 5.187 3.257 5.635 5.752.232 1.29.036 2.612-.387 3.887 5.39-.841 16.24-3.43 17.621-7.98" fill="#83603C" fill-rule="nonzero"/><path d="M236.909 39.84c1.991.61 5.81-.098 9.044-1.78 3.2-1.665 5.087-3.87 5.051-5.904-.04-2.241-2.317-4.496-6.58-6.52-13.346-6.331-20.163-2.43-22.642-.23 4.016-.194 8.288.938 12.39 4.49 3.273 2.834 4.549 5.533 3.792 8.023-.207.687-.575 1.324-1.055 1.92M268.785 14.36c1.174.41 6.313 2.304 11.43 5.687 7.67 5.073 11.49 11.073 11.048 17.351-.094 1.33-.366 2.494-.783 3.524 11.52 4.676 14.665 24.017 14.746 43.292 5.773-4.903 8.855-10.254 9.162-15.922.49-9.049-6.361-15.913-6.43-15.981a.732.732 0 0 1-.22-.555c1.013-25.378-15.719-27.295-16.432-27.364a.738.738 0 0 1-.64-.534c-3.998-14.247-21.63-16.12-27.621-16.34 1.994 1.87 3.91 4.146 5.74 6.842" fill="#83603C" fill-rule="nonzero"/><path d="M244.938 14.658c4.825-.8 10.746-.048 17.16 4.642 6.596 4.825 9.198 10.505 6.957 15.193-.785 1.644-2.24 3.156-4.295 4.325 3.733 2.77 14.496 7.499 20.71 5.113 2.628-1.008 4.08-3.242 4.32-6.636.98-13.925-21.485-21.54-21.713-21.616a.737.737 0 0 1-.379-.29c-2.203-3.28-4.523-5.92-6.95-7.932a.724.724 0 0 1-.336-.281c-3.24-2.597-6.667-4.063-10.25-4.376-8.196-.71-14.874 4.898-16.574 6.472 6.127 1.266 10.966 4.563 11.05 4.62a.738.738 0 0 1 .3.766" fill="#83603C" fill-rule="nonzero"/><g fill="#83603C" fill-rule="nonzero"><path d="M189.119 42.135c.835-.747 3.126-2.67 6.323-4.398.128-1.758.731-8.132 2.975-13.061-2.373.517-7.037 1.725-9.418 3.664-2.528 2.059-6.434 7.496-3.816 13.706 1.316-.422 2.653-.322 3.936.089"/></g><g fill="#83603C" fill-rule="nonzero"><path d="M180.142 62.35c.845-2.611 4.549-11.848 15.095-13.919-1.207-1.365-3.624-3.805-6.211-4.771l-.042-.016c-1.297-.477-2.636-.582-3.884.013-3.231 1.537-7.206 4.733-8.672 9.088-1.028 3.058-.715 6.325.896 9.72.906-.291 1.86-.3 2.818-.116"/></g><g fill="#83603C" fill-rule="nonzero"><path d="M218.168 141.51c-2.184-3.304-4.447-8.274-6.755-14.826-.51.119-1.035.194-1.588.194-2.044 0-4.37-.816-6.85-2.395-1.98 3.182-3.01 6.613-1.855 10.532a.736.736 0 0 1-1.15.8c-7.17-5.363-5.96-11.008-2.872-16.35-2.66-2.887-5.129-6.541-6.652-10.27a65.583 65.583 0 0 1-3.912-1.545c-8.748 12.2-13.476 29.836-.832 43.344 8.792 9.395 25.477 13.965 40.35 4.525.058-.037.122-.052.184-.071a40.667 40.667 0 0 0-1.184-6.296c-2.789-2.462-5.165-5.038-6.884-7.641"/></g><g fill="#83603C" fill-rule="nonzero"><path d="M188.9 102.684c-10.762-4.012-15.246-10.96-15.799-15.747-.31-2.694.563-4.922 2.398-6.109a5.583 5.583 0 0 1 1.85-.752c.097-.164.234-.385.405-.662-3.323-2.666-4.632-7.153-4.41-10.595.165-2.566 1.125-4.595 2.66-5.698-.92-1.926-1.454-3.823-1.599-5.677-3.083 5.027-9.976 18.216-6.183 30.474 2.628 8.494 9.888 15.03 21.564 19.456-.509-1.591-.826-3.17-.886-4.69"/></g><g fill="#83603C" fill-rule="nonzero"><path d="M185.166 107.032a51.92 51.92 0 0 1-2.063-1.012c-4.846.381-13.615 7.33-15.531 15.445-1.626 6.893 1.862 13.161 10.082 18.205-2.558-8.972-1.277-20.299 7.512-32.638"/></g><g fill="#CAA575" fill-rule="nonzero"><path d="M265.289 165.605c11.839-.589 31.949-22.546 34.706-37.893.345-1.923 2.83-16.223 3.607-33.026.003-.951.034-1.934.116-2.972 0-.007.005-.013.005-.02.106-3.22.144-6.509.086-9.8-.276-15.721-2.94-35.287-13.993-39.653-.883 1.397-2.151 2.429-3.815 3.067-1.328.51-2.843.73-4.448.73-6.815 0-15.273-3.953-18.254-6.493-2.315 1-5.216 1.612-8.652 1.612-2.719 0-5.774-.388-9.132-1.256-2.204.974-4.744 1.638-6.88 1.638-1.087 0-2.057-.182-2.836-.57-4.774 4.107-15.297 5.775-17.52 6.088-1.367 2.801-3.585 5.158-4.53 6.088.257.481.445.99.544 1.535.747 4.092-3.52 8.774-6.653 10.81 1.267 1.42 1.647 2.876 1.657 4.08.029 3.263-2.551 6.187-5.321 7.66 2.894 2.617 3.945 7.16 2.395 10.18 6.95 5.068 10.554 9.76 11.013 14.337.56 5.557-3.566 10.213-7.736 14.695.023.044.054.082.068.131 3.35 11.352 6.608 19.47 9.685 24.125 8.397 12.71 34.119 25.503 45.888 24.907"/></g><g fill="#3E4147" fill-rule="nonzero"><path d="M302.895 95.062c.038 1.49-.106 2.79-.34 4.149a20.604 20.604 0 0 1-1.107 3.908c-.483 1.263-1.173 2.443-1.96 3.517-.781 1.09-1.794 1.976-2.829 2.76l-.143-.174c.874-.94 1.67-1.928 2.217-3.06.552-1.121.988-2.286 1.224-3.501a18.64 18.64 0 0 0 .382-3.664c.005-1.205-.093-2.495-.312-3.57l2.868-.365z"/></g><g fill="#B78554" fill-rule="nonzero"><path d="M280.435 123.378c-1.463.457-5.859 2.113-7.354 1.78-.684-.152-1.2-.842-1.82-1.11-.823-.358-1.606-.336-2.477-.323-.806.013-5.455 1.641-4.507-1.375.415-1.324-1.406-2.305-2.329-1.316-1.47 1.576-2.184 3.616-1.254 5.69 1.342 2.988 4.286 2.654 6.977 3.474 2.252.686 3.923 1.46 6.362.835 2.49-.638 4.42-2.22 5.694-4.417.038-.064.042-.128.068-.193 1.377-.694 2.26-3.551.64-3.045"/></g><g fill="#B78554" fill-rule="nonzero"><path d="M303.121 93.778s-5.342-11.102-17.595-4.987c-5.318 2.655-5.387 10.363-5.387 10.363l22.982-5.376z"/></g><g fill="#FFF" fill-rule="nonzero"><path d="M301.375 93.865s.269 7.357-1.48 10.966c-4.371 9.026-14.505 9.384-18.773 4.937-.87-.905-6.919-21.389 20.253-15.903"/></g><g fill="#ABB833" fill-rule="nonzero"><path d="M280.768 102.68a7.713 7.713 0 0 0 7.936 7.483c4.26-.123 7.613-3.672 7.49-7.928-.122-4.257-3.676-7.608-7.936-7.484a7.712 7.712 0 0 0-7.49 7.929"/></g><g fill="#94A727" fill-rule="nonzero"><path d="M280.768 102.68s2.994-3.124 7.254-3.247c4.26-.122 8.172 2.802 8.172 2.802-.122-4.257-3.676-7.608-7.936-7.484a7.712 7.712 0 0 0-7.49 7.929"/></g><g fill="#B78554" fill-rule="nonzero"><path d="M258.346 106.613s5.893-16.727-8.592-19.446c-14.486-2.72-20.716 7.095-20.716 7.095l29.308 12.351z"/></g><g fill="#FFF" fill-rule="nonzero"><path d="M258.434 108.377s-4.71-16.979-14.402-17.188c-9.692-.21-13.061 3.03-13.953 5.692-.892 2.662 3.304 13.719 11.04 15.837 7.737 2.118 17.315-4.341 17.315-4.341"/></g><g fill="#ABB833" fill-rule="nonzero"><path d="M244.396 110.74c4.758-.138 8.504-4.102 8.366-8.857-.138-4.754-4.106-8.496-8.864-8.359-4.757.138-8.504 4.102-8.366 8.857.138 4.754 4.107 8.496 8.864 8.358z"/></g><g fill="#94A727" fill-rule="nonzero"><path d="M235.532 102.38s3.344-3.488 8.102-3.626c4.758-.136 9.128 3.13 9.128 3.13-.138-4.755-4.106-8.497-8.864-8.36-4.757.138-8.504 4.102-8.366 8.857"/></g><g fill="#92311F" fill-rule="nonzero"><path d="M271.87 134.715c-1.333.422-1.735.763-2.537.803-.803.04-1.554-1.352-3.176-1.42-1.622-.068-24.537-.039-24.537-.039s18.831 3.554 25.91 3.571c7.08.017 14.174-.336 14.174-.336s-8.502-3.001-9.835-2.579z"/></g><g fill="#B94732" fill-rule="nonzero"><path d="M267.309 145.799c-7.116-.02-29.972-13.352-26.012-10.828 3.96 2.524 6.316 16.79 24.707 16.76 11.992-.02 13.794-10.45 15.227-12.836 1.433-2.386-6.806 6.923-13.922 6.904z"/></g><g fill="#FFF" fill-rule="nonzero"><path d="M282.696 137.16c-16.641 3.275-43.88-3.847-43.88-3.847s16.986 12.935 27.924 12.462c10.937-.473 15.956-8.615 15.956-8.615"/></g><g fill="#83603C" fill-rule="nonzero"><path d="M257.714 82.03c-2.992 2.19-12.245-11.063-35.224 2.198 8.415-19.58 34.898-12.338 36.674-9.44 1.777 2.9 1.54 5.051-1.45 7.242z"/></g><g fill="#83603C" fill-rule="nonzero"><path d="M282.986 77.89c-1.075 3.153-2.116 4.962.543 6.039 6.378 2.581 11.796-10.58 21.332-.275 4.41-10.028-18.823-14.705-21.875-5.763"/></g><g><path d="M275.646 112.185c.537.91 1.159 1.738 1.818 2.528.672.78 1.407 1.5 2.147 2.233.734.718 1.518 1.514 2.159 2.397.326.445.654.95.846 1.59.198.641.131 1.387-.08 1.98-.21.596-.508 1.104-.824 1.568-.34.472-.734.914-1.156 1.297-.843.782-1.826 1.33-2.798 1.814-1.973.947-4.033 1.428-6.159 1.692 1.773-1.245 3.721-2.036 5.465-3.026a13.443 13.443 0 0 0 2.394-1.68c.355-.318.657-.661.933-1.035.295-.383.544-.778.705-1.16.15-.386.197-.727.13-1.1-.078-.376-.279-.79-.539-1.208-.517-.864-1.17-1.601-1.85-2.42-1.352-1.603-2.614-3.432-3.19-5.47M269.482 125.854c-1.118-.35-1.937.174-2.916.63a5.876 5.876 0 0 1-1.685.576 3.094 3.094 0 0 1-1.992-.374c-.578-.315-1.113-.86-1.366-1.51a3.63 3.63 0 0 1-.183-1.906c.188-1.194.72-2.194 1.388-3.092-.1 1.115-.288 2.187-.239 3.157.048.995.396 1.68 1.128 2.068.353.203.696.285 1.122.27.43-.001.911-.148 1.44-.268.522-.133 1.1-.267 1.712-.253.612.015 1.23.266 1.59.702" fill="#3E4147" fill-rule="nonzero"/><path d="M283.84 102.591a4.641 4.641 0 0 0 4.776 4.504 4.641 4.641 0 0 0 4.507-4.772 4.643 4.643 0 0 0-4.776-4.503 4.64 4.64 0 0 0-4.506 4.771" fill="#3F4147" fill-rule="nonzero"/><path d="M285.13 98.898a1.856 1.856 0 1 0 1.803-1.909 1.857 1.857 0 0 0-1.803 1.909" fill="#FFF" fill-rule="nonzero"/><path d="M280.768 102.68a7.713 7.713 0 0 0 7.936 7.483c4.26-.123 7.613-3.672 7.49-7.928-.122-4.257-3.676-7.608-7.936-7.484a7.712 7.712 0 0 0-7.49 7.929zM235.532 102.38c.138 4.755 4.107 8.497 8.864 8.36 4.758-.138 8.504-4.102 8.366-8.857-.138-4.754-4.106-8.496-8.864-8.359-4.757.138-8.504 4.102-8.366 8.857z" stroke="#3E4147" stroke-width="1.963"/><path d="M238.963 102.282a5.184 5.184 0 0 0 5.334 5.03 5.183 5.183 0 0 0 5.034-5.33 5.184 5.184 0 0 0-5.333-5.03 5.182 5.182 0 0 0-5.035 5.33" fill="#3F4147" fill-rule="nonzero"/><path d="M240.3 98.308a2.075 2.075 0 1 0 4.147-.12 2.073 2.073 0 0 0-2.134-2.01 2.072 2.072 0 0 0-2.013 2.13" fill="#FFF" fill-rule="nonzero"/><path d="M238.858 133.251c3.562 2.132 7.125 4.24 10.787 6.122 3.676 1.841 7.436 3.527 11.356 4.612 1.942.527 3.975 1.006 5.93 1.047 1.965.049 3.933-.335 5.776-1.061 1.848-.717 3.593-1.726 5.224-2.914 1.642-1.182 3.197-2.506 4.706-3.94a.073.073 0 0 1 .104-.004c.025.023.03.062.015.09-1.006 1.86-2.422 3.469-4.024 4.864-1.616 1.38-3.452 2.545-5.471 3.326a16.574 16.574 0 0 1-6.373 1.117c-2.2-.05-4.24-.54-6.29-1.083a39.64 39.64 0 0 1-5.926-2.167 55.461 55.461 0 0 1-5.575-2.882c-3.624-2.077-7.022-4.49-10.322-7.004a.075.075 0 0 1-.015-.104.074.074 0 0 1 .098-.019" fill="#3E4147" fill-rule="nonzero"/><path d="M282.718 137.306c-.904.202-1.82.373-2.737.543-.919.135-1.843.232-2.769.344-.926.073-1.853.154-2.783.205-.928.034-1.857.056-2.786.067-3.716.004-7.426-.217-11.113-.61-3.687-.402-7.35-.967-10.994-1.636-3.633-.709-7.268-1.502-10.762-2.766a.147.147 0 0 1-.09-.188.152.152 0 0 1 .174-.094c3.604.77 7.225 1.401 10.865 1.925 3.638.547 7.296.941 10.955 1.26 3.658.323 7.32.58 10.984.7 3.667.136 7.327.158 11.013-.042a.148.148 0 0 1 .158.136.15.15 0 0 1-.115.156M258.622 109.24c-1.216-3.476-2.74-6.823-4.727-9.691-.99-1.426-2.138-2.714-3.449-3.644-1.301-.948-2.757-1.487-4.239-1.593-.37-.05-.739-.008-1.127-.014l-1.3.09c-.86.08-1.719.16-2.573.291-1.71.229-3.42.592-5.256.939-1.828.305-3.798.688-5.796.48-1.986-.195-3.919-.796-5.578-2.003l.017-.098c3.945-1.11 6.97-1.447 10.517-2.36 1.761-.42 3.65-.852 5.595-1.052.97-.09 1.948-.148 2.924-.153l1.459.04c.528.05 1.085.066 1.62.185 2.172.37 4.177 1.456 5.695 2.857 1.548 1.393 2.686 3.06 3.585 4.779 1.76 3.465 2.625 7.192 2.813 10.917l-.18.03zM280.218 100.053c.306-1.26.762-2.534 1.513-3.68a10.362 10.362 0 0 1 2.929-2.996c2.407-1.637 5.398-2.134 8.088-2.07 2.72.084 5.316.516 7.72 1.16 1.204.316 2.358.682 3.485.99 1.136.26 2.177.613 3.485.106-.211.665-.788 1.247-1.448 1.607-.666.388-1.376.574-2.082.711-1.402.24-2.755.206-4.043.104-1.29-.107-2.527-.301-3.735-.506-1.209-.187-2.394-.365-3.56-.456-2.33-.205-4.568-.097-6.626.713-1.03.406-2.007.995-2.94 1.74-.91.768-1.745 1.685-2.586 2.673l-.2-.096z" fill="#3E4147" fill-rule="nonzero"/><path d="M259.164 74.788c1.777 2.9 1.54 5.051-1.45 7.242-2.992 2.19-12.245-11.063-35.224 2.198 8.415-19.58 34.898-12.338 36.674-9.44zM282.986 77.89c-1.075 3.153-2.116 4.962.543 6.039 6.378 2.581 11.796-10.58 21.332-.275 4.41-10.028-18.823-14.705-21.875-5.763z" stroke="#3F4147" stroke-linecap="round" stroke-linejoin="round" stroke-width="1.963"/><path d="M230.483 94.245c-.062 1.24.055 2.706.28 4.063.221 1.38.572 2.75 1.048 4.083a21.193 21.193 0 0 0 1.791 3.875c.7 1.259 1.598 2.396 2.537 3.514l-.067.07c-1.105-.954-2.2-1.962-3.122-3.13a22.36 22.36 0 0 1-2.504-3.72 24.838 24.838 0 0 1-1.812-4.161c-.48-1.468-.853-2.889-1.042-4.56l2.891-.034z" fill="#3E4147" fill-rule="nonzero"/><path d="M289.805 41.438c21.983 8.09 13.69 70.958 10.916 86.403-2.774 15.446-23.236 37.896-35.396 38.5-12.16.605-37.924-12.195-46.541-25.236-3.646-5.518-7.055-15.102-9.775-24.324" stroke="#3E4147" stroke-linecap="round" stroke-linejoin="round" stroke-width="1.963"/><path d="M304.454 91.77c-1.747 22.386 15.414 22.632 18.38 32.907 2.967 10.276-18.043 31.28-2.157 35.083-18.431-1.34-6.929-21.403-7.33-30.157-.3-6.572-8.995-7.877-10.64-15.447M177.812 80.74s12.814-21.967 24.045-17.934c11.232 4.034 6.125 12.205.711 14.256" stroke="#3E4147" stroke-linecap="round" stroke-linejoin="round" stroke-width="1.963"/><path d="M187.893 67.976s-6.582-6.82-10.946-4.578c-4.363 2.243-3.798 12.021 1.783 15.866" stroke="#3E4147" stroke-linecap="round" stroke-linejoin="round" stroke-width="1.963"/><path d="M180.655 63.214s3.93-16.54 22.39-14.244c18.46 2.297 8.192 13.853 3.4 16.375" stroke="#3E4147" stroke-linecap="round" stroke-linejoin="round" stroke-width="1.963"/><path d="M196.629 48.945s-6.458-8.518-11.847-5.954c-5.387 2.564-13.334 9.786-7.835 20.408" stroke="#3E4147" stroke-linecap="round" stroke-linejoin="round" stroke-width="1.963"/><path d="M189.291 42.977s11.911-11.365 24.116-6.462c12.204 4.903-.597 16.507-.597 16.507" stroke="#3E4147" stroke-linecap="round" stroke-linejoin="round" stroke-width="1.963"/><path d="M203.619 35.433s16.026-17.14 30.069-4.98c14.044 12.16-15.901 15.926-15.901 15.926" stroke="#3E4147" stroke-linecap="round" stroke-linejoin="round" stroke-width="1.963"/><path d="M220.043 26.2s6.528-9.852 24.697-1.23c18.17 8.622-4.199 18.617-9.027 15.106" stroke="#3E4147" stroke-linecap="round" stroke-linejoin="round" stroke-width="1.963"/><path d="M233.232 21.31s12.577-13.009 28.429-1.416c15.85 11.593 4.467 24.709-16.215 19.234" stroke="#3E4147" stroke-linecap="round" stroke-linejoin="round" stroke-width="1.963"/><path d="M244.218 14.499s-14.44-10.027-24.843-1.702-10.171 18.01-10.171 18.01" stroke="#3E4147" stroke-linecap="round" stroke-linejoin="round" stroke-width="1.963"/><path d="M214.005 18.283s-7.492-1.962-12.35 2.808c-4.857 4.77-5.505 17.135-5.505 17.135" stroke="#3E4147" stroke-linecap="round" stroke-linejoin="round" stroke-width="1.963"/><path d="M199.76 23.657s-7.777 1.302-11.227 4.111c-3.45 2.809-6.82 8.947-3.75 15.224M183.229 105.263c-8.665.43-30.327 21.364-4.59 35.85M232.627 9.171s18.69-19.498 35.684 5.807c0 0 23.25 7.7 22.215 22.368-1.034 14.67-22.92 5.353-27.08 1.349" stroke="#3E4147" stroke-linecap="round" stroke-linejoin="round" stroke-width="1.963"/><path d="M261.005 6.762s25.348-1.014 30.37 16.896c0 0 18.156 1.695 17.1 28.128 0 0 17.36 17.06-3.904 33.92M200.84 95.502c19.954 11.214-18.57 26.152-.427 39.721-5.532-18.765 35.276-25.971 4.98-47.61 3.995-5.782-4.706-20.616-19.534-4.61-15.63-9.282-17.816 11.421 3.739 19.162" stroke="#3E4147" stroke-linecap="round" stroke-linejoin="round" stroke-width="1.963"/><path d="M198.007 119.367c-5.692-5.98-9.944-14.644-7.85-20.553 3.767-10.63 10.683-3.312 10.683-3.312l5.092 11.369M211.584 125.894c-2.537.755-5.696-.295-8.82-2.425M186.281 106.733c-26.767 36.459 11.5 67.604 40.168 49.408M175.19 54.894s-28.018 38.237 15.79 53.712" stroke="#3E4147" stroke-linecap="round" stroke-linejoin="round" stroke-width="1.963"/></g></g></svg>
