<?xml version="1.0" encoding="utf-8"?>
<!-- Generator: Adobe Illustrator 24.0.3, SVG Export Plug-In . SVG Version: 6.00 Build 0)  -->
<svg version="1.1" xmlns="http://www.w3.org/2000/svg" xmlns:xlink="http://www.w3.org/1999/xlink" x="0px" y="0px"
	 viewBox="0 0 398.51 496.15" style="enable-background:new 0 0 398.51 496.15;" xml:space="preserve">
<style type="text/css">
	.st0{fill:#ECEDEE;}
	.st1{fill:#3E4147;}
	.st2{fill:#F7C9A1;}
	.st3{fill:#E39D74;}
	.st4{fill:#F3783C;}
	.st5{fill:#FFF8E9;}
	.st6{fill:#EAE4C9;}
	.st7{fill:#71A3C3;}
	.st8{fill:#D8E9F7;}
	.st9{opacity:0.68;fill:#E39D74;}
	.st10{fill:#FFFFFF;}
	.st11{fill:#959E33;}
	.st12{fill:none;stroke:#3E4147;stroke-width:1.25;stroke-linecap:round;stroke-linejoin:round;stroke-miterlimit:10;}
	.st13{fill:#DF642F;}
	.st14{fill:#CA481D;}
	.st15{fill:#C35927;}
	.st16{fill:#8F4727;}
	.st17{fill:#5D91AB;}
	.st18{fill:#8F4727;stroke:#3E4147;stroke-width:1.25;stroke-linecap:round;stroke-linejoin:round;stroke-miterlimit:10;}
	.st19{fill:#C4D7E9;}
	.st20{fill:#B5C933;stroke:#3E4147;stroke-width:1.0328;stroke-linecap:round;stroke-linejoin:round;stroke-miterlimit:10;}
	.st21{fill:#E1D8BF;}
</style>
<g id="Layer_1">
	<ellipse class="st0" cx="239.95" cy="461.38" rx="141.03" ry="27.89"/>
	<g>
	</g>
	<g>
		<path class="st1" d="M371.14,374.98c-7.02-28.72-29.42-28.09-35.23-27.42c0.03-0.06,0.07-0.11,0.1-0.17
			c0.18-0.34,0.33-0.71,0.43-1.15c0.09-0.52,0.02-0.81,0.01-1.19l-0.06-1.09l-0.16-1.07c-0.09-0.72-0.26-1.42-0.45-2.11
			c-0.15-0.7-0.4-1.38-0.62-2.05c-0.93-2.7-2.18-5.26-3.55-7.72c-1.37-2.47-2.87-4.86-4.42-7.2c-3.11-4.69-6.39-9.22-9.6-13.81
			c-6.45-9.16-13.02-18.24-19.52-27.35l-2.42-3.43c-0.79-1.16-1.62-2.27-2.25-3.47c-1.31-2.41-2.44-4.99-3.63-7.52
			c-2.35-5.08-4.77-10.18-7.8-14.96c-1.54-2.37-3.24-4.68-5.36-6.65c-1.03-1.02-2.33-1.82-3.65-2.41c-1.32-0.6-2.7-1.03-4.09-1.37
			c-5.58-1.28-11.24-1.36-16.84-1.48c-2.8-0.05-5.6-0.07-8.37-0.22c-2.74-0.2-5.61-0.34-7.83-1.71c-0.59-0.29-1.06-0.77-1.58-1.17
			c-0.24-0.23-0.46-0.48-0.69-0.72c-0.24-0.23-0.46-0.49-0.65-0.76c-0.86-1.03-1.49-2.25-2.1-3.46c-0.35-0.77-0.65-1.56-0.94-2.36
			c4.66,6.58,11.93,7.18,14.4,7.18c0.37,0,0.62-0.01,0.75-0.02c0.79,0.26,1.6,0.49,2.42,0.68c0.26,0.06,0.55-0.06,0.68-0.31
			c0.16-0.3,0.05-0.68-0.25-0.84l-0.03-0.02l0,0c-2.06-1.17-4.03-2.77-5.39-4.73c-0.68-0.98-1.24-2.04-1.51-3.19
			c-0.2-0.56-0.2-1.15-0.29-1.73c-0.01-0.29,0.01-0.59,0.02-0.88c0.01-0.29,0-0.59,0.08-0.87c0.24-2.37,1.77-4.31,3.51-6.05
			c1.75-1.74,3.7-3.34,5.53-5.1c3.69-3.45,6.93-7.66,8.6-12.55c1.73-4.86,2.06-10.07,1.68-15.13c0-0.02-0.01-0.04-0.02-0.07
			c0.24-4.63-0.84-9.25-2.36-13.52c-1.78-5.14-4.65-9.75-7.37-14.31c-2.27-3.77-3.8-8.08-6.28-11.94
			c-2.95-5.86-5.42-10.15-8.61-13.4c-4.08-4.17-10.81-8.04-19.96-3.62c0.47-2.59,0.65-6.47-1.25-10.3
			c-2.27-4.57-6.89-7.81-13.75-9.63c-24.2-6.43-35.04,10.78-42.22,22.16c-1.08,1.71-2.09,3.32-3.06,4.71
			c-2.45,3.52-5.45,6.81-8.63,10.3c-6.08,6.67-12.35,13.55-14.88,22.42c-4.64,0.43-9.35-0.47-13.23-3.43
			c1.97,2.59,5.17,4.19,8.44,4.68c1.48,0.24,2.97,0.27,4.44,0.15c-0.04,0.15-0.08,0.3-0.11,0.45c-0.49,2.22-0.78,4.83-0.9,7.7
			c-0.22,1.12-1.1,2.76-2.12,4.66c-2.44,4.53-5.77,10.73-3.79,16.73c0.93,2.81,3,5.31,6.12,7.47c-1.4,2.15-2.47,4.33-3.06,6.58
			c-1.94,7.37,0.64,15.45,6.42,20.1c2.82,2.27,5.99,3.42,9.22,3.42c2.06,0,4.14-0.49,6.17-1.44c2.91,3.83,6.58,5.86,9.2,6.9
			c0.34,0.13,0.67,0.25,1.01,0.37c-8.54,10.01-9.81,21.49-10.82,30.76c-0.28,2.54-0.54,4.94-0.92,7.07
			c-0.37,2.02-1.17,4.75-2.1,7.92c-3.47,11.8-9.22,31.34-2.21,49.2c-5.2-2.32-9.9-3.36-14.15-2.82
			c-17.32,2.19-28.28,12.15-30.87,28.05c-2.12,13.02,29.28,52.17,36.73,61.24c-3.23-1.2-6.25-2.16-8.71-2.59c0,0-0.01,0-0.01,0
			c-1.36-0.24-2.55-0.31-3.49-0.16c-10.59,1.67-15.75,15.2-15.38,27.7c0.29,9.56,4.14,21.07,14.08,22.04c2,0.2,3.9,0.31,5.7,0.37
			c0.01,0,0.02,0.01,0.03,0.01c0.01,0,0.01,0,0.02,0c8.85,0.28,15.31-0.88,19.84-1.7c3.28-0.59,5.65-1.02,7.34-0.68
			c1.57,0.33,3.16,0.7,4.69,1.07c3.21,0.76,5.98,1.41,7.63,1.36c0.67-0.03,1.39-0.15,2.15-0.27c1.96-0.33,4.39-0.74,7.65,0.25
			c1.89,0.57,4.71,2.18,7.69,3.88c4.22,2.41,8.57,4.89,11.16,4.89c2.59,0,8.25-4.48,12.65-8.33c7.17,1.24,13,3.82,13.49,4.04
			c1.15,0.99,2.37,1.91,3.71,2.67c1.56,0.87,3.33,1.54,5.16,1.65c1.77,0.16,3.56,0.15,5.33-0.11c1.77-0.28,3.55-0.77,5.13-1.86
			c0.77-0.54,1.52-1.31,1.83-2.35c0.09-0.28,0.13-0.58,0.14-0.87c0.7,0.03,1.4,0.06,2.1,0.06c5.92,0,11.89-1.1,18.18-3.32
			c4.18-1.48,9.09-4.09,14.78-7.64c1.65,0.11,13.26,0.93,15.52,1.54c1.09,0.29,3.63,1.54,6.09,2.74c3.08,1.51,6.27,3.08,7.78,3.39
			c0.81,0.17,2.44,0.26,4.39,0.26c2.91,0,6.52-0.2,9.14-0.66c0.03,0,0.05,0,0.08-0.01c0.02,0,0.03-0.01,0.05-0.02
			c1.37-0.25,2.47-0.57,3-0.97c2.58-1.94,4.11-27.42,0.87-39.6c1.36-0.99,2.73-1.99,4.12-3
			C351.15,413.69,376.17,395.55,371.14,374.98z M240.06,142.73c-0.85-1.49-1.69-2.83-2.55-4.07
			C238.37,139.89,239.21,141.24,240.06,142.73z M138.99,158.65c-2.54,3.49-4.67,7.22-5.94,11.37
			C134.32,165.86,136.45,162.13,138.99,158.65z M145.37,228.73c-3.43-3.85-6.23-9.1-8.38-14.95
			C139.15,219.63,141.94,224.88,145.37,228.73z M134.24,209.36c-0.69-0.36-1.35-0.73-1.96-1.11c0.38-0.54,0.78-1.08,1.2-1.62
			C133.72,207.56,133.97,208.46,134.24,209.36z M133.38,200.81c-0.41-2.06-0.76-4.13-1.04-6.17
			C132.62,196.68,132.96,198.75,133.38,200.81z M125.6,200.73c-1.82-5.49,1.37-11.42,3.7-15.75c0.34-0.64,0.67-1.24,0.96-1.82
			c0.05,6.72,0.99,14.48,2.83,21.96c-0.66,0.81-1.28,1.62-1.86,2.44C128.34,205.56,126.44,203.28,125.6,200.73z M134.68,234.3
			c-5.41-4.35-7.82-11.91-6-18.81c0.55-2.1,1.57-4.17,2.9-6.21c0.97,0.61,2.02,1.19,3.17,1.73c2.64,8.24,6.43,15.66,11.39,20.3
			c0.66,1.87,1.49,3.49,2.42,4.9C143.87,238.34,138.85,237.66,134.68,234.3z M129.45,337.89c-1.51,0.19-2.94,0.46-4.35,0.77
			C126.5,338.35,127.94,338.08,129.45,337.89c0.51-0.07,1.04-0.1,1.56-0.12C130.48,337.79,129.96,337.82,129.45,337.89z
			 M123.13,424.41c-7.47,1.18-14.79,10.64-14.32,26.43c0.02,0.6,0.06,1.22,0.1,1.83c-0.05-0.62-0.09-1.23-0.1-1.83
			C108.34,435.05,115.66,425.59,123.13,424.41c0.23-0.04,0.47-0.05,0.74-0.06C123.6,424.36,123.36,424.38,123.13,424.41z
			 M188.59,348.91c1.02,1.93,1.98,3.76,1.98,4.55c0,1.56-5.03,11.17-7.5,15.06c-9.33-8.13-17.75-15.16-25.33-20.54
			c5.8-2.14,11.16-5.26,15.78-9.34c1.92-1.68,3.66-3.59,5.17-5.66c0.58,1.27,1.26,2.46,2.05,3.61c1,1.43,2.16,2.76,3.51,3.92
			c0.29,0.24,0.59,0.47,0.9,0.68C185.92,343.84,187.39,346.64,188.59,348.91z M186.78,342.11
			C186.78,342.11,186.78,342.11,186.78,342.11c0.58,1.6,1.38,3.24,2.14,4.73C188.15,345.34,187.36,343.71,186.78,342.11z
			 M182.5,370.47c0.11,0.08,0.24,0.12,0.37,0.12c0.08,0,0.16-0.02,0.24-0.06c-0.08,0.04-0.16,0.06-0.24,0.06
			C182.74,370.59,182.61,370.55,182.5,370.47c-0.28-0.2-0.34-0.59-0.13-0.87c0-0.01,0.01-0.02,0.02-0.02
			c-1.84-1.6-3.65-3.16-5.42-4.68c1.77,1.51,3.57,3.07,5.42,4.68c-0.01,0.01-0.01,0.02-0.02,0.02
			C182.16,369.87,182.22,370.26,182.5,370.47z M264.55,334.56C264.55,334.56,264.55,334.56,264.55,334.56
			c-0.31,1.85-0.97,3.87-1.71,5.84C263.58,338.44,264.24,336.4,264.55,334.56z M262.6,344.4c1.43-3.48,3.18-7.79,3.37-11.27
			c0.95-1.05,1.82-2.18,2.55-3.4c1.28-2.19,2.11-4.62,2.58-7.09l0.29-1.87l0.12-1.87c0.06-0.62,0.04-1.25,0.02-1.87
			c-0.02-0.62,0-1.25-0.08-1.87c-0.07-1.03-0.2-2.04-0.38-3.04c3.44,2.7,13.55,11.45,26.44,30.14c-1.52,1.3-2.97,2.7-4.4,4.09
			c-3.94,3.85-7.56,7.99-11.06,12.21c-2.28,2.74-4.5,5.52-6.72,8.3c-1.3-2.21-4.78-6.18-8.17-10.05c-2.68-3.06-6.02-6.87-6.2-7.62
			C260.88,348.61,261.79,346.37,262.6,344.4z M232.93,133.55c-3.54-2.94-8.62-5.08-15.16-2.65
			C224.31,128.47,229.4,130.61,232.93,133.55z M159.31,133.44c-0.71,1.13-1.4,2.22-2.07,3.23
			C157.9,135.65,158.59,134.57,159.31,133.44c7.4-11.74,17.54-27.81,40.84-21.62c0.74,0.2,1.44,0.41,2.13,0.65
			c-0.68-0.23-1.39-0.45-2.13-0.65C176.84,105.62,166.71,121.7,159.31,133.44z M160.54,245.22c-7.84,9.12-9.44,19.63-10.42,28.43
			C151.1,264.85,152.69,254.34,160.54,245.22z M166.51,356.2c-8.23-6.59-15.57-11.74-22.08-14.9c0,0,0,0,0,0c0,0,0,0,0,0
			C150.94,344.46,158.28,349.61,166.51,356.2z M146.85,290.62c0.47-1.6,0.91-3.09,1.28-4.44
			C147.76,287.53,147.32,289.02,146.85,290.62c-3.51,11.92-9.36,31.82-1.75,49.6C137.49,322.44,143.34,302.53,146.85,290.62z
			 M144.25,341.21C144.25,341.21,144.25,341.21,144.25,341.21L144.25,341.21c-2.06-0.99-4.03-1.78-5.93-2.35
			C140.22,339.43,142.2,340.22,144.25,341.21z M130.83,472.08c2.97-0.03,5.64-0.21,8.01-0.48
			C136.47,471.86,133.81,472.05,130.83,472.08z M159.55,470.76c-1.12-0.27-2.28-0.54-3.44-0.79
			C157.27,470.22,158.43,470.49,159.55,470.76c2.98,0.71,5.79,1.4,7.27,1.33C165.34,472.16,162.53,471.47,159.55,470.76z
			 M168.9,471.82c1.55-0.26,3.37-0.56,5.66-0.25C172.28,471.27,170.45,471.56,168.9,471.82z M185,476.11
			c-1.36-0.77-2.67-1.52-3.9-2.17C182.33,474.59,183.64,475.34,185,476.11c0.22,0.13,0.45,0.26,0.68,0.39
			C185.45,476.37,185.22,476.24,185,476.11z M242.77,475.68C242.77,475.68,242.77,475.68,242.77,475.68c4.9,0.24,9.81-0.28,14.9-1.6
			C252.58,475.4,247.67,475.92,242.77,475.68z M262.83,472.5c-0.81,0.29-1.62,0.55-2.42,0.8
			C261.21,473.05,262.01,472.78,262.83,472.5c4.5-1.6,9.88-4.54,16.21-8.58c0,0,0,0,0,0C272.7,467.96,267.32,470.9,262.83,472.5z
			 M279.79,464.9C279.8,464.9,279.8,464.9,279.79,464.9c0.22,0.02,0.46,0.03,0.7,0.05c0.11,0.01,0.23,0.02,0.35,0.03
			c0.14,0.01,0.28,0.02,0.43,0.03c0.15,0.01,0.31,0.02,0.47,0.04c0.12,0.01,0.25,0.02,0.37,0.03c0.17,0.01,0.35,0.03,0.53,0.04
			c0.12,0.01,0.24,0.02,0.36,0.03c0.21,0.02,0.41,0.03,0.62,0.05c0.08,0.01,0.17,0.01,0.25,0.02c0.18,0.01,0.37,0.03,0.55,0.05
			C282.67,465.12,281,464.99,279.79,464.9z M307.66,472.47c-1.36-0.28-4.61-1.88-7.48-3.28c-1.76-0.86-3.44-1.69-4.73-2.24
			c1.29,0.55,2.97,1.38,4.73,2.24C303.05,470.6,306.3,472.19,307.66,472.47c0.1,0.02,0.22,0.04,0.34,0.05
			C307.89,472.51,307.76,472.49,307.66,472.47z M310.82,472.71c1.35,0.02,2.91-0.01,4.48-0.09c0,0,0,0,0,0
			C313.73,472.7,312.16,472.73,310.82,472.71z M357.74,404.83c9.59-9.76,14.69-19.3,12.18-29.55c0-0.02-0.01-0.03-0.01-0.05
			c0,0.02,0.01,0.03,0.01,0.05C372.43,385.53,367.33,395.07,357.74,404.83z"/>
		<path class="st1" d="M171.75,80.76c0.1,0.1,0.24,0.14,0.38,0.14c3.18-0.12,6.51,0.05,10.04,0.24c2.76,0.15,5.56,0.29,8.33,0.29
			c4.27,0,8.46-0.35,12.31-1.6c0.21-0.07,0.35-0.26,0.36-0.48c0.18-11.25-0.32-22.14-0.86-33.68c-0.1-2.12-0.2-4.25-0.29-6.39
			c-0.28-6.28-1.78-31.95-1.8-32.21c-0.02-0.27-0.24-0.49-0.52-0.49c0,0,0,0,0,0l-29.9,0.1c-0.14,0-0.27,0.06-0.37,0.16
			c-0.1,0.1-0.15,0.24-0.14,0.38c0.02,0.49,2.22,49.31,2.32,73.16C171.59,80.52,171.65,80.66,171.75,80.76z"/>
		<path class="st1" d="M116.75,110.47c0.07,0.12,0.19,0.21,0.32,0.24c0.04,0.01,0.08,0.02,0.12,0.02c0.1,0,0.19-0.03,0.28-0.08
			c2.69-1.69,5.66-3.21,8.81-4.82c6.27-3.19,12.75-6.5,17.22-11.45c0.15-0.16,0.18-0.4,0.07-0.6c-5.46-9.83-11.35-19.02-17.59-28.74
			c-1.14-1.78-2.29-3.58-3.45-5.39c-3.38-5.3-17.52-26.78-17.66-27c-0.15-0.23-0.45-0.3-0.69-0.16L78.34,47.54
			c-0.12,0.07-0.21,0.19-0.24,0.32s-0.01,0.28,0.07,0.4C78.43,48.68,104.74,89.86,116.75,110.47z"/>
		<path class="st1" d="M19.78,129.37c0.44,0.23,43.81,22.73,64.52,34.57c0.08,0.04,0.17,0.07,0.26,0.07c0.05,0,0.1-0.01,0.14-0.02
			c0.13-0.04,0.25-0.13,0.31-0.25c1.48-2.81,3.3-5.61,5.22-8.58c3.83-5.9,7.8-12.01,9.19-18.52c0.05-0.22-0.05-0.44-0.24-0.55
			c-9.65-5.79-19.34-10.79-29.61-16.09c-1.88-0.97-3.77-1.95-5.67-2.94c-5.58-2.9-28.56-14.43-28.79-14.55
			c-0.25-0.12-0.54-0.03-0.68,0.2l-14.86,25.95c-0.07,0.12-0.09,0.27-0.05,0.4C19.57,129.19,19.66,129.3,19.78,129.37z"/>
		<path class="st1" d="M83.31,226.32c0.1-0.1,0.15-0.24,0.14-0.38c-0.12-3.18,0.05-6.51,0.24-10.04c0.37-7.03,0.75-14.3-1.31-20.64
			c-0.07-0.21-0.26-0.35-0.48-0.36c-11.25-0.18-22.14,0.33-33.67,0.86c-2.12,0.1-4.25,0.2-6.4,0.29c-6.28,0.28-31.95,1.78-32.21,1.8
			c-0.27,0.02-0.49,0.24-0.49,0.52l0.1,29.9c0,0.14,0.06,0.27,0.16,0.37c0.1,0.09,0.22,0.14,0.36,0.14c0.01,0,0.02,0,0.02,0
			c0.49-0.02,49.31-2.22,73.16-2.32C83.07,226.48,83.21,226.42,83.31,226.32z"/>
		<path class="st1" d="M113.26,280.99c0.03-0.14,0.01-0.28-0.06-0.4c-1.69-2.69-3.21-5.66-4.81-8.81
			c-3.2-6.27-6.5-12.75-11.45-17.22c-0.16-0.15-0.4-0.17-0.6-0.07c-9.83,5.46-19.01,11.35-28.73,17.58
			c-1.78,1.14-3.58,2.3-5.39,3.45c-5.3,3.38-26.78,17.52-27,17.66c-0.23,0.15-0.3,0.45-0.16,0.69l15.04,25.84
			c0.07,0.12,0.19,0.21,0.32,0.24c0.04,0.01,0.08,0.01,0.12,0.01c0.1,0,0.19-0.03,0.28-0.08c0.41-0.26,41.59-26.58,62.2-38.59
			C113.14,281.24,113.23,281.13,113.26,280.99z"/>
		<path class="st1" d="M380.83,266.15c-0.44-0.23-43.81-22.73-64.52-34.57c-0.12-0.07-0.27-0.09-0.4-0.05
			c-0.13,0.04-0.25,0.13-0.31,0.25c-1.48,2.81-3.3,5.61-5.22,8.58c-3.83,5.9-7.8,12.01-9.19,18.53c-0.05,0.22,0.05,0.44,0.24,0.55
			c9.65,5.78,19.34,10.79,29.6,16.09c1.88,0.97,3.77,1.95,5.68,2.94c5.58,2.9,28.56,14.43,28.79,14.55
			c0.07,0.04,0.15,0.05,0.23,0.05c0.18,0,0.35-0.09,0.45-0.26l14.86-25.95c0.07-0.12,0.09-0.27,0.05-0.4
			C381.05,266.33,380.96,266.21,380.83,266.15z"/>
		<path class="st1" d="M391.38,167.24c0-0.14-0.06-0.27-0.16-0.37c-0.1-0.1-0.23-0.15-0.38-0.14c-0.49,0.02-49.31,2.22-73.16,2.32
			c-0.14,0-0.27,0.06-0.37,0.16s-0.15,0.24-0.14,0.38c0.12,3.17-0.05,6.51-0.24,10.04c-0.37,7.03-0.75,14.3,1.31,20.64
			c0.07,0.21,0.26,0.35,0.48,0.36c1.61,0.03,3.2,0.04,4.79,0.04c9.58,0,19-0.44,28.89-0.9c2.11-0.1,4.24-0.2,6.38-0.29
			c6.28-0.28,31.95-1.78,32.21-1.8c0.27-0.02,0.49-0.24,0.49-0.52L391.38,167.24z"/>
		<path class="st1" d="M287.36,114.52c-0.03,0.14-0.01,0.28,0.07,0.4c1.69,2.69,3.21,5.66,4.82,8.81
			c3.19,6.27,6.5,12.75,11.45,17.22c0.1,0.09,0.22,0.13,0.35,0.13c0.09,0,0.17-0.02,0.25-0.07c9.83-5.46,19.01-11.35,28.73-17.59
			c1.78-1.14,3.58-2.29,5.39-3.45c5.3-3.38,26.78-17.52,27-17.66c0.23-0.15,0.3-0.45,0.16-0.69l-15.04-25.84
			c-0.07-0.12-0.19-0.21-0.33-0.24c-0.13-0.03-0.28-0.01-0.4,0.07c-0.41,0.26-41.59,26.58-62.2,38.59
			C287.48,114.27,287.39,114.39,287.36,114.52z"/>
		<path class="st1" d="M234.33,82.46c2.81,1.48,5.61,3.3,8.58,5.23c5.9,3.83,12.01,7.8,18.52,9.19c0.04,0.01,0.07,0.01,0.11,0.01
			c0.18,0,0.35-0.09,0.44-0.25c5.79-9.66,10.8-19.35,16.1-29.62c0.97-1.88,1.94-3.76,2.93-5.66c2.9-5.58,14.43-28.56,14.55-28.79
			c0.12-0.24,0.03-0.54-0.21-0.68l-25.95-14.86c-0.12-0.07-0.27-0.09-0.4-0.05c-0.13,0.04-0.25,0.13-0.31,0.26
			c-0.23,0.44-22.73,43.81-34.57,64.52c-0.07,0.12-0.09,0.27-0.05,0.4C234.12,82.29,234.21,82.4,234.33,82.46z"/>
	</g>
</g>
<g id="Layer_2">
	<path class="st2" d="M227.25,225.66c-0.33-1-0.62-2.08-0.84-3.24c-0.19,0.2-0.38,0.41-0.56,0.61
		c-4.91,5.26-11.31,11.05-14.55,11.55c-0.95,0.15-1.87,0.21-2.73,0.21c-1.83,0-3.41-0.28-4.64-0.61c0.17,0.17,0.34,0.33,0.51,0.51
		c0.54,0.62,1.07,1.27,1.49,2.06c0.21,0.38,0.38,0.86,0.44,1.34c0.03,0.43,0.07,0.88,0.04,1.29c-0.2,3.32-1.08,6.41-1.95,9.49
		c-0.88,3.1-2.03,6.06-2.79,9.15l-2.55,9.2l-4.76,17.17c0.42,2.35,3.93,16.9,25.3,14.79c10.57-1.04,18.14-4.95,22.48-11.6
		c6.21-9.52,5.97-24.78-0.7-45.34c-0.69-0.07-1.39-0.15-2.08-0.27c-0.71-0.13-1.42-0.25-2.13-0.52l-1.05-0.4
		c-0.35-0.13-0.65-0.36-0.98-0.54c-0.67-0.34-1.2-0.86-1.79-1.32c-0.27-0.25-0.51-0.53-0.77-0.79c-0.26-0.26-0.5-0.54-0.71-0.84
		c-0.93-1.13-1.6-2.42-2.24-3.71C228.49,231.24,227.69,228.51,227.25,225.66z"/>
	<path class="st2" d="M163.72,206.32c0.11-0.13,0.23-0.26,0.38-0.38c0.47-0.36,0.92-0.43,1.36-0.52c0.92-0.13,1.82,0.11,2.58,0.48
		c1.41,0.72,2.46,1.77,3.39,2.95c0.09,0,0.18-0.01,0.27-0.01c0.92,0,1.78,0.16,2.61,0.36c1.53,0.39,2.98,0.92,4.41,1.55
		c0.03-0.02,0.05-0.05,0.07-0.07c0.37-0.31,0.8-0.66,1.49-0.74c1.13-0.05,2.07,0.4,2.85,0.98c0.57,0.45,1.04,0.94,1.46,1.51
		c0.21-0.18,0.41-0.37,0.64-0.54c0.68-0.49,1.47-1.06,2.6-1.02c1.15,0.17,1.76,0.73,2.45,1.27c0.66,0.55,1.22,1.16,1.76,1.79
		c1.06,1.26,1.98,2.61,2.85,3.99c0.42,0.69,0.84,1.39,1.23,2.11c0.19,0.36,0.38,0.72,0.57,1.09l0.14,0.29
		c0.04,0.1,0.09,0.18,0.13,0.36c0.1,0.32,0.07,0.62,0.03,0.88c-0.23,1.03-0.77,1.69-1.28,2.37c-0.37,0.46-0.77,0.88-1.18,1.3
		c2.15,1.63,4.31,3.26,6.39,5.03c0.25,0.22,0.5,0.45,0.75,0.67c0.11,0.06,4.1,2.16,9.44,1.33c5.15-0.79,23.36-20.13,24.35-25.86
		c0.94-5.42-1.13-39.76-1.29-42.4c-0.95-1.42-1.87-2.88-2.81-4.36c-2.88-4.56-5.83-9.18-9.62-12.87c-0.08-0.07-0.14-0.12-0.15-0.12
		c-0.04-0.03-0.06-0.07-0.08-0.1c-3.17-3.03-6.94-5.38-11.76-6.48c-1.98,1.38-4.16,2.4-6.41,3.24c-1.74,1.43-4.22,2.22-7.47,1.78
		c-1.08,0.58-2.36,0.98-3.84,1.17c-0.03,0-0.05,0-0.08,0c-0.26,0-0.49-0.16-0.58-0.4c-0.01-0.02-0.99-2.45-3.62-3.22
		c-2.61-0.76-5.92,0.29-9.85,3.1c-0.32,2.71-0.56,5.55-0.81,8.43c-0.1,1.17-0.2,2.35-0.31,3.53c1.93-0.67,5.81-1.8,7.27-0.65
		c0.47,0.37,0.75,1,0.85,1.88c0.17,1.58-0.3,3.74-1.02,4.61c-0.5,0.61-2.14,0.8-3.98,0.8c-1.29,0-2.65-0.09-3.8-0.2
		c-0.72,5.85-1.78,11.52-3.82,16.45c-1.08,2.62-2.2,4.94-3.32,7.01c-0.53,4.11-1.8,6.82-2.92,9.22
		C164.82,200.47,163.77,202.77,163.72,206.32z"/>
	<g>
		<path class="st3" d="M179.9,165.42c-1.29,0-2.65-0.09-3.8-0.2c-0.72,5.85-1.78,11.52-3.82,16.45c-1.08,2.62-2.2,4.94-3.32,7.01
			c-1.81,4.99-5.47,10.15-2.92,9.22C173.42,195.19,180.19,165.42,179.9,165.42z"/>
		<path class="st3" d="M187.75,143.72c-2.61-0.76-5.92,0.29-9.85,3.1c-0.32,2.71-0.56,5.55-0.81,8.43c-0.1,1.17-0.2,2.35-0.31,3.53
			c1.05-0.36,2.68-0.86,4.19-1.06c-0.07-3.63-0.35-5.9-0.35-5.9c1.38-3.59,6.97-5.1,10.3-5.69
			C190.4,145.34,189.4,144.2,187.75,143.72z"/>
	</g>
	<path class="st2" d="M243.05,201.94c0.08-0.09,0.18-0.14,0.29-0.18c2.41-5.73,4.83-11.69,4.49-19.27c-0.06-1.27-0.34-2.6-0.79-3.98
		c-1.58-1.42-4.21-1.69-6.61-0.66c-2.5,1.07-4,3.25-4.01,5.82c0.33,7.29,0.6,15.02,0.52,19.88
		C237.89,203.9,240.7,204.63,243.05,201.94z"/>
	<path class="st4" d="M202.51,452.16c-1.89-2.89-3.79-5.79-5.9-8.49c-0.74-0.95-1.52-1.87-2.34-2.73
		c-1.4,0.55-10.54,3.73-24.71-0.38c-4.1-1.19-5.74-1.73-10.27-3.53c-1.03-0.41-3.09-0.67-5.09-0.93c-2.25-0.29-4.37-0.56-5.57-1.06
		c-1.84-0.76-3.32-2-4.76-3.19c-1.35-1.13-2.63-2.19-4.11-2.78c-4.72-1.9-9.74-3.8-13.35-4.46c-2.33,1.53-5.32,8.38-6.4,17.57
		c-0.73,6.17-1.43,21.39,7.63,29.88c8.62,0.26,14.94-0.89,19.38-1.69c3.42-0.62,5.89-1.07,7.82-0.67c1.59,0.33,3.19,0.71,4.73,1.08
		c2.99,0.71,5.81,1.4,7.29,1.33c0.59-0.02,1.24-0.13,1.99-0.26c2.08-0.35,4.67-0.78,8.21,0.29c2.03,0.61,4.91,2.25,7.95,3.99
		c3.88,2.22,8.29,4.73,10.54,4.73c3.16,0,13.4-9.28,17.35-13.12C209.21,462.66,205.89,457.37,202.51,452.16z M186.74,472.38
		c-0.07,0.03-0.14,0.04-0.21,0.04c-0.2,0-0.39-0.09-0.51-0.26l-7.81-10.75l-2.78,5.82c-0.09,0.2-0.29,0.33-0.51,0.35
		c-0.22,0.03-0.43-0.08-0.56-0.25l-10.62-14.5l-7.15,14.08c-0.11,0.21-0.34,0.33-0.57,0.34c-0.24-0.01-0.46-0.15-0.55-0.37
		l-7.19-16.15l-7,13.84c-0.16,0.31-0.53,0.43-0.84,0.28c-0.31-0.16-0.43-0.53-0.28-0.84l7.46-14.75l-5.58-12.55
		c-0.14-0.32,0-0.68,0.32-0.83c0.32-0.14,0.68,0,0.82,0.32l5.17,11.62l4.96-9.81c0.1-0.19,0.29-0.32,0.51-0.34
		c0.22-0.02,0.43,0.08,0.56,0.25l9.18,12.53l2.93-5.77c0.1-0.19,0.29-0.32,0.51-0.34c0.21-0.01,0.43,0.08,0.56,0.26l10.45,14.38
		l6.15-12.86c0.12-0.25,0.4-0.39,0.68-0.34c0.28,0.05,0.49,0.29,0.51,0.57l1.83,25.41C187.17,472.03,187.01,472.29,186.74,472.38z"
		/>
	<path class="st5" d="M118.76,442.02c0.93-7.88,3.34-14.83,5.99-17.64c-0.61-0.05-1.16-0.04-1.62,0.03
		c-7.47,1.18-14.79,10.64-14.32,26.43c0.27,9.05,3.82,19.94,12.95,20.83c1.39,0.14,2.74,0.23,4.03,0.3
		C117.36,462.96,118.04,448.16,118.76,442.02z"/>
	<path class="st4" d="M310.6,443.19c-12.07,8.84-22.27,16.26-30.81,21.71c3.79,0.28,12.09,0.93,14.07,1.46
		c1.21,0.32,3.69,1.54,6.31,2.83c2.87,1.41,6.12,3.01,7.48,3.28c1.36,0.28,4.5,0.31,7.64,0.15
		C309.12,467.61,310.17,448.55,310.6,443.19z"/>
	<path class="st5" d="M319.18,436.91c-1.98,1.45-3.92,2.87-5.81,4.26c-0.48,0.35-0.95,0.69-1.42,1.04
		c-0.79,8.08-1.25,28.43,5.68,30.25c0.94-0.08,1.82-0.19,2.62-0.31C319.82,468.88,317.95,452.81,319.18,436.91z"/>
	<path class="st6" d="M320.51,435.93c-1.38,16.05,0.52,32.59,0.95,36c0.88-0.18,1.54-0.4,1.86-0.64c1.48-1.34,3.85-24.7,0.53-37.81
		C322.73,434.31,321.61,435.13,320.51,435.93z"/>
	<path class="st7" d="M335.01,348.95c-0.51,0.68-1.05,1.3-1.6,1.93c-0.95,1.05-1.95,2.05-2.97,3.03
		c-4.09,3.88-8.42,7.45-12.81,10.95c-8.8,6.96-17.86,13.58-27.16,19.86c-2.33,1.56-4.68,3.1-7.09,4.56
		c-1.21,0.73-2.42,1.45-3.72,2.08c-0.33,0.15-0.66,0.31-1.05,0.44c-0.09,0.03-0.19,0.06-0.32,0.09l-0.16,0.03
		c-1.12,1.26-2.01,6.6-2.64,15.9c-0.19,2.73-0.83,5.58-1.52,8.6c-0.74,3.27-1.51,6.64-1.65,9.91c-0.24,5.25,0.04,10.03,0.28,14.25
		c0.42,7.3,0.7,12.12-2.28,12.99c-0.79,0.23-1.36,0-1.7-0.23c-1.52-1.06-1.77-4.56-2.08-9c-0.09-1.28-0.18-2.63-0.31-3.97
		c-0.84-8.69-2.06-12.58-2.68-13.13c-0.04,0.04-0.1,0.11-0.17,0.23c-3.29,6.16-3.32,14.2-3.34,20.66
		c-0.02,5.6-0.04,10.03-2.21,11.52c-0.5,0.35-1.09,0.52-1.77,0.52c-0.44,0-0.94-0.1-1.46-0.25c-0.06,0.17-0.12,0.33-0.21,0.5
		c-0.17,0.35-0.48,0.7-0.84,0.92c-0.36,0.25-0.76,0.33-1.13,0.39c-0.71,0.11-1.53-0.03-2.21-0.4c-1.27-0.83-1.81-2.1-2.25-3.26
		c-0.04,0.01-0.07,0.02-0.11,0.02c-4.35,0-7.11-4.37-8.45-13.37c-0.59-3.98-0.6-12.41,0.01-20.78
		c-13.38,7.83-29.64,10.85-36.66,11.84l2.57,0.64c1.43,0.35,2.86,0.65,4.28,1.01c2.83,0.75,5.69,1.38,8.58,2.03
		c-2.97,0.08-5.94-0.24-8.86-0.76c-2.91-0.58-5.74-1.48-8.59-2.12c-1.42-0.33-2.85-0.64-4.26-0.79c-1.41-0.13-2.84-0.15-4.12,0.28
		c-0.65,0.19-1.24,0.51-1.78,0.91c0.43,0.09,0.83,0.23,1.19,0.41c0.86,0.42,1.59,0.99,2.26,1.58c1.34,1.2,2.48,2.56,3.56,3.93
		c2.15,2.77,4.06,5.68,5.96,8.58c3.78,5.82,7.42,11.71,11.57,17.21c2.09,2.73,4.29,5.39,6.81,7.68c2.5,2.25,5.42,4.27,8.71,4.5
		c1.68,0.15,3.38,0.14,5.04-0.1c1.64-0.25,3.29-0.72,4.55-1.66c0.63-0.46,1.08-1.07,1.28-1.7c0.18-0.63,0.05-1.31-0.29-1.98
		c-0.7-1.35-2.06-2.45-3.36-3.64c1.7,0.48,3.38,1.34,4.48,3c0.17,0.27,0.32,0.57,0.43,0.89c6.53,0.32,13.09-0.72,20.05-3.19
		c10.99-3.9,27.27-15.83,49.8-32.34c4.93-3.61,10.16-7.45,15.71-11.47c26.3-19.07,46.07-35.11,41.59-53.41
		C362.44,344.67,337.76,348.43,335.01,348.95z"/>
	<path class="st7" d="M140.23,427.91c1.65,0.67,3.07,1.84,4.44,2.98c1.37,1.13,2.78,2.31,4.44,3c1.05,0.43,3.18,0.71,5.25,0.98
		c1.08,0.14,2.12,0.27,3.05,0.43c-2.21-1.76-4.21-3.72-6.2-5.68c-2.86-2.86-5.63-5.8-8.43-8.69c-2.78-2.91-5.71-5.67-8.7-8.32
		c-2.99-2.64-6.02-5.25-9.7-6.97c1.96,0.49,3.88,1.3,5.61,2.38l1.3,0.81c0.43,0.28,0.83,0.59,1.25,0.89
		c0.84,0.58,1.64,1.22,2.41,1.88c3.1,2.64,5.89,5.58,8.73,8.46c2.81,2.9,5.58,5.84,8.42,8.68c2.84,2.8,5.74,5.64,9.05,7.69
		c3.48,1.36,5.17,1.9,8.77,2.95c6.61,1.92,12.13,2.18,16.21,1.89c0.53-1.27,1.16-2.52,2.04-3.64c0.09-0.11,0.19-0.21,0.28-0.31
		c0.05-0.09,0.12-0.17,0.2-0.23c0.91-0.98,2.04-1.81,3.35-2.2c1.53-0.51,3.13-0.47,4.63-0.33c0.89,0.1,1.76,0.25,2.62,0.42
		c1.42-0.13,23.44-2.35,40.31-12.54c0.09-1.14,0.2-2.27,0.32-3.38c-16.18-12.97-30.9-26-43.9-37.51
		c-4.39-3.89-8.61-7.62-12.65-11.15c-0.12,0.13-0.28,0.2-0.44,0.2c-0.13,0-0.26-0.04-0.37-0.12c-0.28-0.2-0.34-0.59-0.13-0.87
		c0-0.01,0.01-0.02,0.02-0.02c-14.96-13.03-27.51-23.21-37.95-28.27c-0.06-0.02-0.12-0.04-0.18-0.09
		c-5.51-2.65-10.44-3.88-14.81-3.32c-16.72,2.12-27.3,11.71-29.79,27.01c-2.21,13.55,35.66,59.29,37.86,61.94
		C138.41,427.18,139.32,427.54,140.23,427.91z"/>
	<path class="st8" d="M243.17,288.25c-4.56,6.99-12.44,11.08-23.4,12.16c-1.45,0.14-2.83,0.21-4.13,0.21
		c-15.33,0-20.38-9.35-21.94-13.92l-9.9,35.73c-0.88,3.33-2.36,6.47-4.26,9.33c0.58,1.42,1.36,2.82,2.24,4.11
		c0.94,1.35,2.04,2.59,3.32,3.6c1.28,1,2.7,1.75,4.21,2.31c0.39,0.11,0.77,0.24,1.16,0.37l1.21,0.22c0.2,0.03,0.41,0.09,0.62,0.11
		l0.62,0.04c0.42,0.04,0.84,0.06,1.28,0.11c-1.63,0.47-3.46,0.72-5.2,0.27c-0.77-0.18-1.51-0.45-2.22-0.78
		c0.78,2.15,1.94,4.37,2.92,6.22c1.19,2.25,2.13,4.04,2.13,5.14c0,2.06-5.44,12.16-7.8,15.89c4.08,3.56,8.33,7.32,12.76,11.24
		c3.68,3.26,7.52,6.65,11.48,10.12c2.35,0.38,29.67,4.5,50.3-6.19c0.96-0.96,1.59-1.57,1.7-1.68c0.03-0.03,0.07-0.04,0.1-0.07
		c0.01-0.01,0.02-0.03,0.04-0.04c2.25-1.28,4.18-3.26,6.03-5.21c1.84-2,3.59-4.09,5.31-6.2c0.92-1.13,1.84-2.28,2.76-3.43
		c-0.86-1.82-4.94-6.49-8.26-10.28c-4.38-5.01-6.32-7.3-6.49-8.22c-0.16-0.89,0.47-2.49,1.69-5.48c1.19-2.9,2.6-6.38,3.11-9.37
		c-0.32,0.29-0.64,0.59-0.97,0.86c-1.94,1.58-4.19,2.9-6.71,3.21c2.08-1.39,4.04-2.68,5.89-4.19c1.81-1.54,3.35-3.38,4.54-5.43
		c2.39-4.1,3.11-8.99,2.82-13.77c-0.3-4.79-1.79-9.45-3.56-14c-0.87-2.29-1.71-4.62-2.27-7.04c-0.56-2.42-0.81-4.95-0.42-7.41
		c0.42,2.45,0.96,4.77,1.65,7.09c0.68,2.31,1.5,4.6,2.3,6.91c1.07,3.09,2.19,6.24,2.92,9.48c1.68,1.2,12.91,9.66,27.77,31.18
		c0.26-0.21,0.52-0.43,0.79-0.64c2.19-1.68,4.58-3.16,7.24-4.02c-4.32,3.42-8.59,6.64-12.53,10.44c-3.9,3.8-7.49,7.91-10.97,12.11
		c-3.49,4.2-6.85,8.52-10.32,12.77c-1.74,2.12-3.5,4.23-5.37,6.26c-1.47,1.54-2.96,3.1-4.72,4.4c2.24,0.23,4.45,0.83,6.46,1.84
		c2.61,1.26,4.82,3.19,6.94,4.91c0.53,0.43,1.08,0.8,1.62,1.04c0.11,0.03,0.28,0.1,0.34,0.11l0.06-0.02
		c0.05-0.01,0.11-0.02,0.19-0.05c0.28-0.09,0.59-0.23,0.89-0.37c1.22-0.59,2.42-1.31,3.61-2.02c2.38-1.45,4.72-2.98,7.04-4.53
		c9.27-6.25,18.31-12.86,27.08-19.8c4.37-3.48,8.69-7.04,12.72-10.87c1-0.96,1.99-1.94,2.91-2.97c0.91-1.02,1.83-2.09,2.42-3.22
		c0.15-0.28,0.25-0.56,0.31-0.81c0.04-0.17,0-0.58-0.01-0.9l-0.06-1.01l-0.16-1c-0.08-0.67-0.25-1.33-0.42-2
		c-0.14-0.67-0.38-1.31-0.59-1.96c-1.82-5.19-4.77-9.98-7.83-14.63c-3.08-4.65-6.37-9.19-9.58-13.78
		c-6.45-9.16-13.01-18.23-19.52-27.35l-2.42-3.44c-0.79-1.15-1.64-2.3-2.32-3.57c-1.36-2.51-2.48-5.07-3.67-7.61
		c-2.35-5.07-4.75-10.13-7.72-14.81c-1.51-2.32-3.16-4.56-5.15-6.4c-1.92-1.87-4.54-2.83-7.18-3.49
		c-5.37-1.24-10.99-1.33-16.57-1.44c-2.8-0.05-5.6-0.07-8.42-0.22c-0.27-0.02-0.55-0.04-0.82-0.06
		C249.4,263.03,249.54,278.48,243.17,288.25z"/>
	<path class="st3" d="M189.83,180.13c0,0-1.74-9.77-8.77-10.97c-7.94-1.35-16.16,2.83-12.46,12.98
		C172.29,192.3,189.83,180.13,189.83,180.13z"/>
	<path class="st3" d="M206.7,175.71c0,0-1.33-9.83,5-13.12c7.14-3.72,16.58-1.22,16.17,9.58
		C227.45,182.96,206.7,175.71,206.7,175.71z"/>
	<path class="st9" d="M193.67,195.81c-0.51-1.66,0.57-3.68,1.58-4.93c0.57-0.71,1.28-1.41,1.68-0.95c0.22,0.25,0.12,1.43,0.66,2.21
		c0.94,1.35,2.58,2.16,3.93,1.91c1.22-0.23,2.91-2.04,3.02-3.45c0.09-1.13-0.52-2.27,0.3-2.46c1.28-0.29,4.94,4.5,4.15,6.04
		c0.09,0.01,0.07-0.1,0.15-0.11c0.23,0.93-0.61,2.28-1.48,2.58c-0.65,0.22-1.31,0.02-1.92,0.19c-0.61,0.17-1.06,0.66-1.56,1.07
		c-1.16,0.97-2.03,1.59-3.55,1.19c-0.76-0.2-1.39-0.64-2.23-0.61c-0.76,0.02-1.51,0.3-2.26,0.33
		C193.62,198.9,193.52,196.53,193.67,195.81z"/>
	<g>
		<path class="st1" d="M203.71,197.1c-0.23-0.47,0.02-1.01,0.23-1.37c0.23-0.39,0.55-0.7,0.88-0.98c0.35-0.26,0.73-0.48,1.15-0.61
			c0.41-0.13,0.91-0.23,1.37-0.02c-0.35,0.31-0.59,0.6-0.89,0.87c-0.28,0.27-0.58,0.51-0.87,0.75c-0.31,0.22-0.61,0.45-0.93,0.65
			C204.34,196.61,204,196.74,203.71,197.1z"/>
	</g>
	<g>
		<path class="st1" d="M205.52,195.6c0.56-0.75,1.58-0.95,2.25-1.25c0.73-0.31,0.81-0.54,0.81-1.3c-0.03-0.65-0.39-1.24-0.88-1.93
			c-0.48-0.67-0.99-1.38-1.33-2.19c0.73,0.49,1.39,0.99,2.04,1.56c0.33,0.29,0.64,0.61,0.91,1.02c0.28,0.4,0.45,0.92,0.5,1.43
			c0.03,0.48,0.03,1.06-0.33,1.61c-0.38,0.54-0.97,0.75-1.42,0.83C207.13,195.54,206.39,195.4,205.52,195.6z"/>
	</g>
	<g>
		<path class="st1" d="M200.31,197.76c-0.41-0.22-0.77-0.21-1.14-0.3c-0.38-0.06-0.74-0.16-1.11-0.25
			c-0.36-0.11-0.73-0.22-1.09-0.37c-0.37-0.13-0.7-0.32-1.15-0.47c0.35-0.36,0.85-0.46,1.28-0.5c0.45-0.04,0.88,0.02,1.3,0.13
			c0.41,0.13,0.82,0.3,1.18,0.58C199.92,196.83,200.34,197.24,200.31,197.76z"/>
	</g>
	<g>
		<path class="st1" d="M198.06,197.06c-0.88,0.14-1.51,0.54-2.44,0.75c-0.44,0.1-1.07,0.13-1.62-0.23
			c-0.55-0.37-0.77-0.91-0.91-1.36c-0.14-0.49-0.18-1.03-0.07-1.51c0.1-0.48,0.27-0.9,0.46-1.29c0.39-0.78,0.81-1.48,1.3-2.21
			c-0.02,0.87-0.22,1.73-0.41,2.53c-0.19,0.82-0.31,1.5-0.09,2.12c0.28,0.71,0.44,0.89,1.24,0.9
			C196.24,196.77,197.26,196.57,198.06,197.06z"/>
	</g>
	<path class="st10" d="M206.28,177.33c0,0,1.42-15.48,12.5-12.78s9.08,10.5,9.08,10.5s-1,5.75-9.5,6.33S206.28,177.33,206.28,177.33
		z"/>
	<path class="st11" d="M218.38,165.01c-0.45-0.12-0.83-0.12-1.18-0.05c-0.35-0.12-0.75-0.12-1.16,0.09
		c-0.89,0.44-3.27,1.32-4.61,2.5c-0.39-0.15-0.83-0.15-1.22,0.12c-0.71,0.48-1.24,1.01-1.67,1.76c-0.61,1.05,0.18,2.03,1.1,2.21
		c0.67,0.61,1.91,1.56,2.77,1.62c2.41,0.18,4.91-1.17,6.47-3.22C219.96,168.63,220.61,165.61,218.38,165.01z"/>
	<g>
		<path class="st1" d="M206.23,177.33c-0.14-1.5,0.01-3.02,0.32-4.51c0.32-1.49,0.86-2.96,1.67-4.32c0.18-0.35,0.41-0.68,0.66-0.99
			c0.25-0.32,0.47-0.65,0.77-0.92c0.29-0.28,0.57-0.58,0.88-0.85l1-0.72c1.39-0.86,2.99-1.49,4.62-1.64
			c0.41-0.05,0.81-0.12,1.22-0.14l1.21,0.01c0.81-0.04,1.64,0.16,2.46,0.29c1.63,0.43,3.24,1.22,4.47,2.46
			c1.26,1.2,2.04,2.77,2.45,4.34c0.38,1.58,0.41,3.2-0.05,4.72c-0.01,0.03-0.04,0.04-0.07,0.03c-0.02,0-0.03-0.02-0.04-0.03
			c-1.13-2.85-2.41-5.3-4.3-6.89c-0.96-0.78-2.04-1.33-3.24-1.74c-0.63-0.13-1.23-0.37-1.91-0.41l-1-0.13c-0.33-0.02-0.66,0-0.99,0
			c-1.33-0.02-2.61,0.34-3.78,0.92c-1.19,0.57-2.13,1.57-2.99,2.63c-0.86,1.08-1.49,2.37-2.02,3.71c-0.52,1.34-0.94,2.75-1.25,4.2
			c0,0.03-0.03,0.05-0.06,0.04C206.25,177.37,206.24,177.35,206.23,177.33z"/>
	</g>
	<g>
		<path class="st1" d="M209.65,179.84c1.56,0.57,3.19,0.62,4.8,0.74c0.81,0.05,1.62,0.08,2.43,0.07c0.81,0,1.63,0.01,2.4-0.06
			c1.56-0.08,3.09-0.44,4.46-1.16c1.38-0.71,2.63-1.71,3.65-3.05c-0.39,1.66-1.58,3.11-3.04,4.07c-1.47,0.98-3.23,1.49-4.96,1.61
			c-1.75,0.08-3.38-0.05-5.07-0.31c-0.83-0.14-1.67-0.33-2.47-0.63C211.05,180.84,210.23,180.46,209.65,179.84z"/>
	</g>
	<path class="st10" d="M190.46,180.12c0,0-7.04-13.86-16.34-7.26s-4.56,13.11-4.56,13.11s3.05,4.97,11.17,2.37
		S190.46,180.12,190.46,180.12z"/>
	<path class="st11" d="M181.21,172.3c-0.45-0.12-0.83-0.12-1.18-0.05c-0.35-0.12-0.75-0.12-1.16,0.09c-0.89,0.44-3.27,1.32-4.61,2.5
		c-0.39-0.15-0.83-0.15-1.22,0.12c-0.71,0.48-1.24,1.01-1.67,1.76c-0.61,1.05,0.18,2.03,1.1,2.21c0.67,0.61,1.91,1.56,2.77,1.62
		c2.41,0.18,4.91-1.17,6.47-3.22C182.8,175.92,183.44,172.9,181.21,172.3z"/>
	<path class="st12" d="M170.88,177.75c0,0,1.03,3.33,6.28,2.8c5.25-0.53,6.12-5.99,5.62-8.29"/>
	<ellipse transform="matrix(0.866 -0.5 0.5 0.866 -63.8602 111.6263)" class="st1" cx="176.37" cy="174.98" rx="2.92" ry="2.51"/>
	<circle class="st10" cx="177.98" cy="174.7" r="1.62"/>
	<g>
		<path class="st1" d="M190.42,180.14c-0.83-1.23-1.74-2.39-2.72-3.44c-0.98-1.05-2.04-2.02-3.24-2.7
			c-1.19-0.67-2.44-1.24-3.76-1.34c-1.3-0.11-2.62,0.03-3.85,0.54c-0.31,0.12-0.62,0.22-0.92,0.36l-0.88,0.49
			c-0.61,0.29-1.08,0.74-1.62,1.09c-0.97,0.82-1.77,1.74-2.37,2.82c-1.17,2.18-1.46,4.93-1.45,8c0,0.03-0.02,0.05-0.05,0.06
			c-0.02,0-0.03-0.01-0.05-0.02c-0.99-1.24-1.56-2.76-1.79-4.37c-0.2-1.6-0.06-3.35,0.67-4.93c0.69-1.6,1.89-2.93,3.24-3.93
			c0.72-0.42,1.41-0.92,2.18-1.18l1.13-0.46c0.39-0.13,0.79-0.21,1.19-0.32c1.56-0.46,3.28-0.47,4.89-0.18l1.2,0.3
			c0.38,0.14,0.75,0.31,1.13,0.47c0.38,0.14,0.72,0.37,1.06,0.57c0.35,0.2,0.68,0.42,0.98,0.68c1.26,0.96,2.3,2.13,3.15,3.39
			c0.85,1.27,1.54,2.62,1.97,4.07c0.01,0.03-0.01,0.05-0.03,0.06C190.45,180.17,190.43,180.16,190.42,180.14z"/>
	</g>
	<g>
		<path class="st1" d="M188.27,183.69c-0.31,0.8-0.93,1.45-1.55,2.02c-0.63,0.58-1.34,1.06-2.06,1.5c-1.47,0.86-2.94,1.59-4.6,2.16
			c-1.66,0.53-3.48,0.7-5.21,0.34c-1.72-0.35-3.35-1.26-4.33-2.66c1.44,0.86,2.98,1.33,4.52,1.48c1.54,0.16,3.09-0.07,4.57-0.57
			c0.74-0.22,1.5-0.54,2.25-0.84c0.75-0.3,1.5-0.62,2.23-0.97C185.54,185.44,187.02,184.8,188.27,183.69z"/>
	</g>
	<path class="st12" d="M208.04,170.46c0,0,1.03,3.33,6.28,2.8s6.12-5.99,5.62-8.29"/>
	<ellipse transform="matrix(0.866 -0.5 0.5 0.866 -55.2343 129.2325)" class="st1" cx="213.53" cy="167.68" rx="2.92" ry="2.51"/>
	<circle class="st10" cx="215.15" cy="167.41" r="1.62"/>
	<path class="st1" d="M221.99,163.8c3.71,2,5.88,3.89,8.71,0.75c0.83,1.83-2.3,5.17-2.3,5.17s1.55,0.75,3.14-2.03
		c0.73,4.11-3.67,7.36-3.67,7.36C228.4,170.2,221.99,163.8,221.99,163.8z"/>
	<path class="st13" d="M188.01,208.33c3,0.88,6.98,7.94,16.25,7.63c9.27-0.31,13.93-14.3,17.09-16.74l-18.84,7.49L188.01,208.33z"/>
	<path class="st14" d="M188.01,207.71c4.75,0.32,9.69-4.61,15.69-5.94c7.06-1.56,13.44-0.36,17.65-2.56c0,0-11.44,6.28-17.99,7.87
		C193.56,209.46,188.01,207.71,188.01,207.71z"/>
	<g>
		<path class="st1" d="M183.7,209.21c0.13-0.43,0.33-0.85,0.67-1.22c0.35-0.36,0.88-0.55,1.36-0.61c0.99-0.12,1.87,0.06,2.75,0.15
			c1.74,0.22,3.42,0.5,5.15,0.5c3.45,0,6.9-0.73,10.23-1.76c3.34-1.07,6.67-2.24,9.88-3.66c3.12-1.58,6.46-2.71,9.29-4.86
			c-0.49,0.75-1.16,1.38-1.85,1.96c-0.68,0.59-1.42,1.11-2.17,1.6c-1.49,1.01-3.11,1.8-4.76,2.47c-3.29,1.39-6.63,2.6-10.02,3.68
			c-3.41,1.06-6.97,1.8-10.6,1.83c-1.81,0.03-3.65-0.1-5.38-0.56c-0.86-0.21-1.71-0.49-2.5-0.58
			C184.97,208.02,184.26,208.48,183.7,209.21z"/>
	</g>
	<g>
		<path class="st1" d="M220,197.3c0.49-0.26,1.02-0.35,1.54-0.37c0.53-0.03,1.05,0.06,1.57,0.22c0.5,0.19,1.01,0.43,1.41,0.85
			c0.4,0.4,0.68,0.96,0.64,1.52c-0.44-0.35-0.82-0.55-1.22-0.73c-0.39-0.18-0.8-0.32-1.23-0.46
			C221.87,198.03,220.97,197.8,220,197.3z"/>
	</g>
	<path class="st15" d="M205.01,138.91c0.76-5.17-3.02-11.2-10.65-12.33c-1.59-0.24-3.04-0.28-4.37-0.14
		c5.22,1.36,9.26,6.65,9.78,11.72c0.3,2.89-0.53,5.25-2.29,6.87C202.32,145.09,204.57,141.91,205.01,138.91z"/>
	<path class="st16" d="M176.24,163.98c2.95,0.25,6.19,0.25,6.68-0.16c0.44-0.54,0.88-2.35,0.73-3.67c-0.06-0.51-0.19-0.89-0.38-1.03
		c-0.85-0.67-4.32,0.19-6.63,1.04C176.52,161.43,176.39,162.71,176.24,163.98z"/>
	<path class="st16" d="M186.75,127.37c-0.07,0.01-0.14-0.01-0.2-0.02c-0.69,0.32-1.34,0.71-1.94,1.18
		c-3.9,3.08-5.54,9.28-6.51,16.63c3.87-2.56,7.24-3.46,10.01-2.64c2.48,0.73,3.74,2.62,4.2,3.5c6.21-1.01,6.42-5.73,6.21-7.74
		C197.95,132.74,192.79,126.89,186.75,127.37z"/>
	<path class="st15" d="M144.81,165.4c2.63-1.74,5.02-3.81,7.17-6.11c4.48-4.5,6.41-10.74,8.32-16.8c1.9-6.08,3.78-12.37,7.45-17.83
		c1.84-2.69,4.11-5.13,6.77-7.05c2.67-1.91,5.68-3.3,8.79-4.26c1.55-0.49,3.14-0.84,4.74-1.15l2.41-0.38l1.24-0.11l1.25-0.01
		c3.35,0.1,6.57,1.32,9.31,3.13c2.75,1.81,5.1,4.15,7.07,6.74c1.96,2.6,3.61,5.45,4.67,8.58c0.06,0.18,0.1,0.36,0.16,0.53
		c0.48-2.4,0.77-6.24-1.06-9.92c-2.1-4.23-6.46-7.24-12.94-8.97c-23.31-6.19-33.44,9.88-40.84,21.62c-1.08,1.72-2.11,3.34-3.09,4.76
		c-2.49,3.59-5.52,6.91-8.73,10.43c-5.86,6.42-11.89,13.05-14.44,21.4c1.09-0.16,2.18-0.4,3.24-0.69
		C139.3,168.48,142.16,167.09,144.81,165.4z"/>
	<path class="st15" d="M213.92,136.75c2.16-0.18,4.26,0.05,6.33,0.51c2.48,0.57,4.85,1.52,7.08,2.74c1.07,0.67,2.17,1.31,3.13,2.15
		c1.03,0.74,1.88,1.68,2.78,2.56c0.9,0.88,1.63,1.91,2.42,2.87c0.73,1.02,1.38,2.08,2.04,3.13c-0.86-0.91-1.68-1.83-2.5-2.74
		l-1.33-1.28c-0.44-0.42-0.85-0.88-1.34-1.25l-1.4-1.18c-0.23-0.2-0.47-0.39-0.72-0.55l-0.73-0.54c-0.96-0.75-2-1.36-3.02-2.01
		c-2.09-1.2-4.33-2.15-6.69-2.68c-2.26-0.52-4.69-0.71-6.91-0.38c-0.39,0.51-0.83,0.98-1.28,1.41c-0.25,0.23-0.51,0.44-0.77,0.66
		c4.78,1.29,8.52,3.75,11.67,6.83c2.53,2.13,19.44,16.65,24.78,29.15c0.01,0.02,0.02,0.04,0.03,0.06c0.24,0.55,0.45,1.1,0.63,1.65
		c0.01,0.02,0.01,0.03,0.02,0.05c0.53,1.56,0.87,3.07,0.93,4.51c0.37,8.07-2.37,14.56-4.78,20.28c-1.54,3.67-3.01,7.16-3.55,10.72
		c3.57-3.47,7.43-6.53,10.7-10.15c1.77-1.95,3.36-4.05,4.61-6.33c1.26-2.28,2.1-4.77,2.51-7.33c0.83-5.16-0.29-10.43-2.06-15.39
		c-1.72-4.99-4.53-9.51-7.27-14.09c-2.8-4.66-4.38-9.86-7.74-13.87c-1.64-2.02-3.6-3.74-5.71-5.28c-2.14-1.51-4.43-2.79-6.7-4.28
		c4.06,1.01,7.89,3.1,10.98,6.02c-1.77-3.11-3.51-5.64-5.53-7.7c-3.92-4-10.47-7.73-19.42-2.92c-0.19,0.71-0.37,1.19-0.44,1.37
		c0,0.14,0,0.28-0.01,0.42l-0.02,0.67c-0.03,0.22-0.1,0.43-0.15,0.65C214.37,135.76,214.16,136.27,213.92,136.75z"/>
	<path class="st16" d="M244.9,176.15c-3.75-2.05-6.68-5.3-9.36-9.07c0.16,2.67,0.43,7.41,0.69,12.77c0.82-1.35,2.07-2.45,3.7-3.15
		C241.58,175.99,243.34,175.83,244.9,176.15z"/>
	<path class="st15" d="M228.31,153.8c1.43,2.04,2.77,4.15,4.1,6.25c3.92,6.19,7.65,12.07,13.18,15.05
		C241.81,167.52,234.01,159.25,228.31,153.8z"/>
	<path class="st16" d="M236.72,232.93c-0.9-1.08-1.61-2.34-2.04-3.69c-0.43-1.35-0.57-2.79-0.47-4.18c0.11-1.4,0.4-2.76,0.91-4.08
		c0.96-2.36,2.53-4.33,4.21-6.12c0.27-3.64,1.53-7.1,3.01-10.68c-1.16,0.72-2.34,0.96-3.35,0.96c-0.83,0-1.55-0.15-2.07-0.3
		c-0.04,1.24-0.11,2.23-0.22,2.86c-0.52,2.99-4.99,8.81-9.22,13.56c1.94,12.04,9.72,14.89,14.24,15.5
		c-0.63-0.33-1.25-0.68-1.86-1.07C238.7,234.91,237.63,234,236.72,232.93z"/>
	<path class="st15" d="M252.37,204.12c-3.64,4.01-7.91,7.3-11.61,11.04c-1.82,1.88-3.53,3.92-4.48,6.27
		c-0.89,2.35-1.18,5.05-0.41,7.42c0.74,2.4,2.54,4.37,4.68,5.77c1.08,0.7,2.24,1.3,3.45,1.79c-0.96-0.83-1.83-1.76-2.56-2.82
		c-0.75-1.08-1.38-2.28-1.7-3.58c-0.22-0.64-0.24-1.32-0.33-1.98c-0.01-0.33,0.01-0.67,0.02-1c0.01-0.34,0.01-0.67,0.09-1
		c0.17-1.31,0.64-2.65,1.37-3.76c0.72-1.12,1.59-2.09,2.5-2.99c1.82-1.8,3.75-3.4,5.55-5.12c3.62-3.39,6.68-7.4,8.28-12.07
		c0.97-2.72,1.47-5.59,1.66-8.48c-0.45,1.36-1.02,2.67-1.71,3.92C255.84,199.95,254.18,202.12,252.37,204.12z"/>
	<path class="st7" d="M223.63,393.06c-6.1,0-11.01-0.5-13.65-0.83c9.33,8.16,19.36,16.76,30.04,25.34
		c0.66-5.72,1.64-10.83,2.95-13.69c2.29-5.02,8.74-12.23,13.09-16.77C245.19,391.86,233.02,393.06,223.63,393.06z"/>
	<path class="st15" d="M137.23,202.33c-0.99,1.04-1.92,2.09-2.8,3.13c2.3,9.08,5.94,17.66,10.95,23.27
		c-0.16-0.69-0.3-1.41-0.41-2.16c-2.97-5.84-5.51-11.96-6.9-18.42C137.65,206.25,137.37,204.3,137.23,202.33z"/>
	<path class="st2" d="M272.76,416.14c0.67-2.97,1.31-5.77,1.49-8.41c0.62-9.15,1.43-14.16,2.63-16.18c-0.6-0.3-1.13-0.66-1.61-1.04
		c-2.21-1.79-4.27-3.59-6.73-4.78c-2.35-1.17-4.96-1.76-7.59-1.81c-1.65,1.61-13.65,13.47-16.84,20.46
		c-3.47,7.59-4.57,32.62-3.45,40.15c1.2,8.08,3.48,12.09,6.96,12.28c-0.24-0.87-0.45-1.75-0.6-2.63c-0.44-2.5-0.72-5-0.96-7.51
		c-0.25-2.5-0.44-5.01-0.49-7.52c-0.07-2.51-0.02-5.02,0.31-7.54c0.53,2.49,0.78,4.98,0.97,7.47c0.21,2.49,0.33,4.98,0.51,7.47
		c0.18,2.49,0.45,4.96,0.89,7.39c0.21,1.22,0.49,2.41,0.87,3.55c0.39,1.11,0.93,2.22,1.75,2.74c0.42,0.2,0.88,0.32,1.42,0.24
		c0.5-0.08,0.83-0.25,1.03-0.66c0.21-0.4,0.3-0.98,0.33-1.56c0.03-0.59,0.02-1.19-0.03-1.8c-0.17-2.45-0.51-4.95-0.78-7.44
		c-0.64-4.98-0.89-10.05-0.14-15.06c0.66,5.01,0.98,9.95,1.4,14.93c0.23,2.49,0.59,4.95,0.76,7.5c0.04,0.64,0.06,1.28,0.03,1.95
		c-0.01,0.11-0.02,0.23-0.03,0.35c0.99,0.3,1.75,0.29,2.28-0.07c1.63-1.12,1.65-5.47,1.67-10.5c0.03-6.6,0.06-14.81,3.51-21.27
		c0.54-0.88,1.1-0.96,1.49-0.87c1.56,0.36,2.8,5.16,3.69,14.27c0.13,1.36,0.23,2.71,0.32,4.01c0.25,3.61,0.51,7.34,1.54,8.06
		c0.11,0.08,0.29,0.16,0.63,0.06c2.02-0.59,1.74-5.5,1.38-11.72c-0.23-4.04-0.53-9.06-0.28-14.38
		C271.23,422.89,272.01,419.46,272.76,416.14z"/>
	<path class="st16" d="M184.64,241.59c-0.55-0.31-1.31-0.61-1.99-0.88c-5.59-2.21-11.34-4.2-16.65-7.32
		c0.77,2.35,2.97,6.88,8.86,9.09c0.04,0.01,0.07,0.02,0.11,0.04c2.59,0.95,5.89,1.44,10.07,1.11c0-0.15,0.01-0.3,0-0.45
		c-0.02-0.36-0.04-0.71-0.12-1.02C184.86,241.84,184.75,241.61,184.64,241.59z"/>
	<path class="st15" d="M153.64,204.63c4.25-3.47,9.34-7.63,14.17-16.46c0.01-0.02,0.02-0.03,0.02-0.04
		c1.12-2.05,2.22-4.34,3.29-6.94c3.12-7.52,3.93-16.94,4.72-26.05c0.26-3,0.52-5.95,0.85-8.76c0-0.01,0-0.01,0-0.02
		c0.98-8.21,2.66-15.27,7.14-18.81c2.11-1.67,4.71-2.47,7.86-2.43c-1.99-0.19-4.09-0.04-6.26,0.49c-6.89,1.69-13.13,6.9-15.53,12.96
		c-2.33,5.89-3.51,13.79-4.55,20.76c-0.99,6.63-1.85,12.35-3.47,15.64c-3.5,7.11-10.28,13.51-16.83,19.7
		c-2.31,2.18-4.57,4.32-6.66,6.44c0.1,2.28,0.4,4.55,0.89,6.78c1.13,5.24,3.05,10.29,5.34,15.15
		C144.11,212.45,148.13,209.13,153.64,204.63z"/>
	<path class="st2" d="M186,247.79l-0.37,4.28l15.91,1.84c0.58-1.8,1.19-3.59,1.7-5.4c0.86-3.03,1.72-6.14,1.9-9.18
		c0.04-0.39-0.01-0.73-0.03-1.1c-0.04-0.32-0.14-0.6-0.31-0.92c-0.33-0.62-0.81-1.23-1.31-1.8c-1.03-1.15-2.2-2.21-3.4-3.23
		c-2.41-2.04-4.95-3.94-7.5-5.86l-1.91-1.45c-0.65-0.5-1.28-0.93-1.88-1.7c-0.38-0.56-0.35-1.17-0.19-1.67
		c0.17-0.49,0.46-0.84,0.76-1.15c0.61-0.61,1.31-1.05,2.07-1.37c-0.54,0.6-1.07,1.21-1.43,1.86c-0.17,0.32-0.33,0.65-0.36,0.94
		c-0.05,0.27,0.07,0.53,0.15,0.62c0.44,0.43,1.1,0.97,1.68,1.47c0.6,0.5,1.24,0.98,1.87,1.46c0.05,0.04,0.11,0.08,0.16,0.12
		c0.43-0.42,0.84-0.86,1.21-1.32c0.46-0.58,0.91-1.25,1.02-1.81c0.02-0.13,0.03-0.25,0-0.31c0.01-0.02-0.04-0.12-0.08-0.2
		l-0.12-0.26c-0.17-0.35-0.35-0.7-0.54-1.04c-0.37-0.69-0.78-1.37-1.19-2.05c-0.84-1.34-1.73-2.64-2.74-3.84
		c-0.51-0.59-1.03-1.16-1.61-1.64c-0.28-0.26-0.59-0.45-0.88-0.65c-0.31-0.15-0.62-0.33-0.84-0.33c-0.51-0.04-1.18,0.32-1.76,0.77
		c-0.34,0.26-0.67,0.55-0.99,0.86c-0.03,0.04-0.07,0.08-0.11,0.11c-0.2,0.19-0.4,0.39-0.6,0.59c-1.08,1.14-2.11,2.36-3.13,3.6
		c-1.02,1.24-1.99,2.53-3.18,3.65c-1.18,1.11-2.49,2.17-4.05,2.76c1.11-1.21,2.1-2.41,3.12-3.63c1-1.23,2.1-2.38,3.13-3.6
		c1.05-1.22,2.06-2.47,3.2-3.65c0.09-0.1,0.19-0.19,0.29-0.29c-0.81-1.16-2.07-2.18-3.28-2.12c-0.18,0.01-0.51,0.19-0.79,0.45
		c-0.11,0.09-0.21,0.2-0.31,0.3c-0.01,0.01-0.02,0.02-0.03,0.03c-0.17,0.17-0.33,0.35-0.5,0.54c-0.54,0.64-1.04,1.34-1.52,2.05
		c-0.99,1.42-1.84,2.95-2.83,4.41c-1.02,1.4-2.17,2.91-3.91,3.63c0.95-1.54,1.8-2.96,2.77-4.41l2.95-4.33
		c0.49-0.72,1.01-1.44,1.58-2.14c-1.23-0.52-2.5-0.98-3.78-1.3c-0.77-0.19-1.56-0.32-2.31-0.32c-0.12,0.01-0.26,0.02-0.38,0.03
		c-0.04,0.01-0.08,0.01-0.12,0.01c-0.01,0-0.02,0-0.02,0c-0.13,0.05-0.28,0.04-0.39,0.13c-0.25,0.1-0.43,0.36-0.62,0.64
		c-0.35,0.59-0.56,1.38-0.71,2.17c-0.17,0.79-0.25,1.61-0.4,2.43c-0.3,1.63-0.79,3.32-1.87,4.71c0.06-1.74,0.24-3.31,0.52-4.95
		c0.14-0.81,0.33-1.63,0.51-2.46c0.21-0.83,0.38-1.68,0.88-2.53c0.25-0.38,0.55-0.79,1.02-1.05c-0.76-0.89-1.65-1.7-2.63-2.19
		c-0.61-0.3-1.25-0.45-1.86-0.36c-0.29,0.05-0.63,0.14-0.76,0.26c-0.2,0.14-0.38,0.43-0.55,0.71c-0.66,1.21-1.02,2.71-1.32,4.17
		c-0.29,1.47-0.5,2.97-0.64,4.48c-0.28,3.01-0.38,6.06-0.15,9.05c0.06,0.75,0.15,1.49,0.28,2.21c0.07,0.36,0.15,0.72,0.25,1.05
		c0.1,0.34,0.22,0.57,0.41,0.86c0.78,1.09,2.04,1.97,3.29,2.76c2.55,1.56,5.35,2.8,8.14,3.98c2.81,1.18,5.66,2.24,8.52,3.36
		c0.73,0.3,1.41,0.54,2.19,0.98c0.08,0.04,0.28,0.19,0.37,0.3c0.08,0.12,0.17,0.24,0.24,0.36c0.1,0.23,0.19,0.47,0.23,0.68
		c0.1,0.44,0.13,0.85,0.15,1.26c0.01,0.33,0,0.65-0.01,0.97c0,0.02,0.01,0.03,0.01,0.05c0,0.05-0.01,0.1-0.02,0.15
		C186.24,245.49,186.1,246.64,186,247.79z"/>
	<path class="st17" d="M213.62,468.74c-0.75,0.72-2.31,2.22-4.25,3.96c3.99,0.76,7.49,1.9,9.83,2.76c-1.83-1.89-3.49-3.93-5.07-6.01
		C213.96,469.22,213.8,468.98,213.62,468.74z"/>
	<polygon class="st4" points="178.83,460.13 185.75,469.66 184.25,448.78 	"/>
	<polygon class="st4" points="164.37,451.58 174.75,465.75 177.38,460.26 167.13,446.16 	"/>
	<path class="st15" d="M137.12,200.64c-0.13-4.13,0.39-8.28,1.75-12.21c1.07-3.16,2.62-6.15,4.45-8.91c1.82-2.78,3.9-5.34,5.98-7.89
		c4.08-5.14,8.6-9.84,11.29-15.87c-0.72,3.22-2.3,6.24-4.15,8.97c-1.86,2.75-4.04,5.23-6.15,7.72c-4.19,4.98-8.18,10.24-10.23,16.38
		c-1.17,3.39-1.68,6.96-1.68,10.54c1.86-1.86,3.83-3.72,5.83-5.61c6.47-6.11,13.17-12.43,16.57-19.34
		c1.54-3.12,2.42-9.02,3.35-15.28c1.05-7.04,2.24-15.01,4.63-21.04c2.58-6.52,9.01-11.9,16.39-13.71
		c5.95-1.46,11.48-0.32,15.58,3.22c0.02,0.02,0.03,0.04,0.04,0.05c4.16,2.76,6.09,7.32,5.49,11.43c-0.17,1.13-0.55,2.22-1.13,3.21
		c2.12-0.96,4.15-2.16,5.81-3.7c1.1-1.04,2.03-2.29,2.36-3.68c0.04-0.17,0.1-0.34,0.12-0.52l0.01-0.53c0-0.18,0.02-0.35,0.01-0.53
		l-0.07-0.55c-0.12-0.74-0.32-1.49-0.56-2.23c-1-2.94-2.59-5.71-4.48-8.22c-1.9-2.5-4.15-4.74-6.76-6.45
		c-2.59-1.71-5.59-2.83-8.67-2.92l-1.15,0.01l-1.15,0.1l-2.34,0.37c-1.55,0.29-3.09,0.63-4.59,1.11c-3,0.92-5.88,2.26-8.43,4.08
		c-2.54,1.83-4.7,4.15-6.47,6.73c-3.52,5.24-5.39,11.4-7.29,17.5c-0.96,3.06-1.93,6.14-3.24,9.11c-1.26,2.97-3.09,5.84-5.35,8.16
		c-2.22,2.38-4.69,4.52-7.41,6.32c-2.74,1.76-5.71,3.17-8.85,4.11c-1.3,0.38-2.63,0.69-3.99,0.88c-0.07,0.29-0.15,0.57-0.22,0.87
		c-0.48,2.19-0.77,4.77-0.89,7.61c0,0.01,0,0.02,0,0.03c0,0,0,0.01,0,0.01c-0.28,7.04,0.56,15.67,2.52,24.01
		C135.02,202.86,136.04,201.75,137.12,200.64z"/>
	<path class="st15" d="M173.42,243.19c-6.96-3.16-8.69-9.5-8.98-10.83c-0.85-0.6-1.66-1.29-2.32-2.21c-0.24-0.34-0.46-0.81-0.57-1.2
		c-0.12-0.4-0.21-0.79-0.28-1.18c-0.15-0.78-0.24-1.56-0.3-2.34c-0.24-3.11-0.14-6.2,0.15-9.27c0.15-1.54,0.36-3.07,0.66-4.6
		c0.21-0.99,0.44-1.97,0.78-2.95c-0.48-5.22,0.89-8.15,2.34-11.24c0.76-1.63,1.54-3.3,2.12-5.4c-4.35,6.89-8.8,10.55-12.6,13.64
		c-5.64,4.61-9.37,7.65-8.48,18.68c0.41,5.08,1.97,8.85,3.96,11.67c0.08,0.06,0.15,0.12,0.19,0.22c0.02,0.04,0.02,0.08,0.03,0.11
		c2.76,3.75,6.29,5.71,8.81,6.71C164.55,245.2,170.55,244.86,173.42,243.19z"/>
	<polygon class="st4" points="149.01,449.29 156.07,465.17 162.91,451.7 153.97,439.49 	"/>
	<path class="st8" d="M156.51,347.12L156.51,347.12c5.89-2.06,11.51-5.26,16.19-9.41c4.71-4.14,8.29-9.54,9.89-15.6l10.21-36.84
		l0.26-0.96c-0.01-0.04-0.01-0.06-0.01-0.06c-0.03-0.19,0.04-0.37,0.17-0.5l4.68-16.9l2.55-9.21c0.21-0.84,0.45-1.68,0.7-2.51
		l-15.7-1.82c-0.18,1.23-0.39,2.45-0.7,3.65c-1.48,6.05-4.29,11.64-7.51,16.87c-3.22,5.25-6.9,10.16-10.57,15.06
		c-3.66,4.89-7.4,9.73-10.57,14.91c-1.56,2.6-2.91,5.31-3.92,8.12c-1.01,2.82-1.64,5.7-1.75,8.79c-0.95-2.99-0.52-6.3,0.46-9.24
		c0.99-2.98,2.53-5.7,4.13-8.33c3.23-5.26,6.98-10.12,10.64-15.01c3.67-4.89,7.33-9.78,10.51-14.96c3.18-5.16,5.92-10.65,7.36-16.51
		c0.38-1.46,0.62-2.94,0.81-4.43l0.39-4.56c0.09-0.93,0.18-1.87,0.24-2.79c-0.83,0.06-1.64,0.1-2.41,0.1
		c-3.08,0-5.65-0.47-7.79-1.24c-1.59,1.25-4.41,2.05-7.78,2.05c-1.95,0-4.08-0.27-6.24-0.88c-8.61,9.81-9.87,21.27-10.87,30.5
		c-0.28,2.57-0.54,4.99-0.94,7.16c-0.38,2.09-1.19,4.85-2.14,8.05c-3.51,11.92-9.37,31.84-1.74,49.64
		C148.68,342,152.47,344.31,156.51,347.12z"/>
	<path class="st17" d="M187.52,441.13c2.83-0.31,4.79-0.85,5.75-1.17c-0.02-0.02-0.04-0.04-0.06-0.06
		c-0.62-0.55-1.28-1.05-1.98-1.39c-0.63-0.32-1.29-0.45-1.89-0.35c-0.07,0.08-0.14,0.15-0.2,0.23
		C188.49,439.21,187.97,440.15,187.52,441.13z"/>
	<path class="st18" d="M197.79,155.55c-1.3,1.13-0.83,2.57,1.77,3.91c2.36,1.22,6.19-2.44,11.59-3.75
		c4.62-1.12,10.85,0.01,17.25,2.25c-6.75-6.21-12-6.18-16.43-6.14C206.45,151.88,198.42,155,197.79,155.55z"/>
	<path class="st19" d="M259.79,348.52c0.18-0.97,0.76-2.41,1.65-4.59c1.19-2.9,2.6-6.38,3.11-9.37c-0.32,0.29-0.64,0.59-0.97,0.86
		c-1.94,1.58-4.19,2.9-6.71,3.21c2.08-1.39,4.04-2.68,5.89-4.19c1.81-1.54,3.35-3.38,4.54-5.43c0.97-1.66,1.65-3.45,2.11-5.3
		c-3.8,3.65-9.16,7.73-15.23,9.11c-11.84,2.69-23.48,0-29.15,0c-5.67,0-21.67,4.32-30.83,2.81c-5.38-0.88-10.19-3.87-13.25-6.18
		c-0.44,0.79-0.91,1.57-1.41,2.32c0.58,1.42,1.36,2.82,2.24,4.11c0.94,1.35,2.04,2.59,3.32,3.6c1.28,1,2.7,1.75,4.21,2.31
		c0.39,0.11,0.77,0.24,1.16,0.37l1.21,0.22c0.2,0.03,0.41,0.09,0.62,0.11l0.62,0.04c0.42,0.04,0.84,0.06,1.28,0.11
		c-1.63,0.47-3.46,0.72-5.2,0.27c-0.77-0.18-1.51-0.45-2.22-0.78c0.78,2.15,1.94,4.37,2.92,6.22c0.47,0.89,0.9,1.71,1.25,2.44
		c8.25-3.08,23.44-8.1,35.42-8.36C240.1,342.1,251.21,345.76,259.79,348.52z"/>
	<path class="st12" d="M186.7,126.74c11.18-0.88,18.82,18.22,5.25,19.97c0,0-3.29-8.5-14.64-0.25"/>
	<path class="st12" d="M195.82,145.53c13.36,1.94,13.5-17.36-1.37-19.56c-23.57-3.5-13.81,33.87-22.75,55.47
		c-12.12,29.28-28.12,21.16-26.38,42.91s24.29,23.34,29.35,18.72"/>
	<g>
		<path class="st1" d="M202.88,143.22c2.9-1.07,5.8-2.54,8.05-4.61c1.1-1.04,2.03-2.29,2.36-3.68c0.04-0.17,0.1-0.34,0.12-0.52
			l0.01-0.53c0-0.18,0.02-0.35,0.01-0.53l-0.07-0.55c-0.12-0.74-0.32-1.49-0.56-2.23c-1-2.94-2.59-5.71-4.48-8.22
			c-1.9-2.5-4.15-4.74-6.76-6.45c-2.59-1.71-5.59-2.83-8.67-2.92l-1.15,0.01l-1.15,0.1l-2.34,0.37c-1.55,0.29-3.09,0.63-4.59,1.11
			c-3,0.92-5.88,2.26-8.43,4.08c-2.54,1.83-4.7,4.15-6.47,6.73c-3.52,5.24-5.39,11.4-7.29,17.5c-0.96,3.06-1.93,6.14-3.24,9.11
			c-1.26,2.97-3.09,5.84-5.35,8.16c-2.22,2.38-4.69,4.52-7.41,6.32c-2.74,1.76-5.71,3.17-8.85,4.11c-3.12,0.93-6.47,1.42-9.76,0.88
			c-3.26-0.48-6.46-2.09-8.44-4.68c5.18,3.94,11.84,4.24,17.83,2.57c3.01-0.85,5.87-2.24,8.52-3.93c2.63-1.74,5.02-3.81,7.17-6.11
			c4.48-4.5,6.41-10.74,8.32-16.8c1.9-6.08,3.78-12.37,7.45-17.83c1.84-2.69,4.11-5.13,6.77-7.05c2.67-1.91,5.68-3.3,8.79-4.26
			c1.55-0.49,3.14-0.84,4.74-1.15l2.41-0.38l1.24-0.11l1.25-0.01c3.35,0.1,6.57,1.32,9.31,3.13c2.75,1.81,5.1,4.15,7.07,6.74
			c1.96,2.6,3.61,5.45,4.67,8.58c0.25,0.79,0.47,1.59,0.61,2.43l0.08,0.64c0.01,0.22-0.01,0.44-0.01,0.67l-0.02,0.67
			c-0.03,0.22-0.1,0.43-0.15,0.65c-0.42,1.74-1.51,3.16-2.72,4.3c-2.48,2.27-5.43,3.74-8.51,4.89c-0.32,0.12-0.68-0.04-0.8-0.37
			s0.04-0.68,0.37-0.8l0,0L202.88,143.22z"/>
	</g>
	<path class="st12" d="M200.31,128.09c-9.85-8.5-26.48-1.13-30.98,10.25s-4.68,29.63-8,36.36c-7.38,14.97-29.62,26.89-33.25,40.64
		c-3.63,13.75,9.06,27.49,21.47,21.12"/>
	<g>
		<path class="st1" d="M160.58,155.76c-0.72,3.22-2.3,6.24-4.15,8.97c-1.86,2.75-4.04,5.23-6.15,7.72
			c-4.19,4.98-8.18,10.24-10.23,16.38c-2.11,6.1-2.13,12.75-0.77,19.07c1.37,6.33,3.87,12.4,6.83,18.19l0,0
			c0.16,0.31,0.03,0.68-0.27,0.84c-0.31,0.16-0.68,0.03-0.84-0.27l0,0c-2.99-5.86-5.54-12.02-6.94-18.51
			c-1.4-6.46-1.39-13.39,0.81-19.73c1.07-3.16,2.62-6.15,4.45-8.91c1.82-2.78,3.9-5.34,5.98-7.89
			C153.37,166.49,157.89,161.79,160.58,155.76z"/>
	</g>
	<path class="st12" d="M214.06,133.34c0,0,6.83-16.66-13.75-22.12c-27.28-7.25-37.06,15.77-44.61,26.62
		c-7.54,10.85-20.75,20.05-23.88,34.34s1.37,46.32,14.84,58.8"/>
	<path class="st12" d="M130.93,179.84c-1.05,5.63-16.48,21,4.27,30.71"/>
	<g>
		<path class="st1" d="M191.45,219.09c-0.54,0.6-1.07,1.21-1.43,1.86c-0.17,0.32-0.33,0.65-0.36,0.94
			c-0.05,0.27,0.07,0.53,0.15,0.62c0.44,0.43,1.1,0.97,1.68,1.47c0.6,0.5,1.24,0.98,1.87,1.46c2.54,1.92,5.1,3.83,7.55,5.91
			c1.22,1.05,2.42,2.13,3.52,3.35c0.54,0.62,1.07,1.27,1.49,2.06c0.21,0.38,0.38,0.86,0.44,1.34c0.03,0.43,0.07,0.88,0.04,1.29
			c-0.2,3.32-1.08,6.41-1.95,9.49c-0.88,3.1-2.03,6.06-2.79,9.15l-2.55,9.2l-5.1,18.41l-10.2,36.81
			c-1.66,6.29-5.41,11.95-10.27,16.2c-4.86,4.28-10.52,7.53-16.65,9.67c-0.33,0.11-0.68-0.06-0.8-0.38s0.06-0.68,0.38-0.8l0,0
			l0.04-0.01c5.89-2.05,11.5-5.26,16.18-9.4c4.71-4.14,8.29-9.54,9.89-15.6l10.21-36.84l5.1-18.42l2.55-9.21
			c0.77-3.1,1.93-6.09,2.78-9.12c0.86-3.03,1.72-6.14,1.9-9.18c0.04-0.39-0.01-0.73-0.03-1.1c-0.04-0.32-0.14-0.6-0.31-0.92
			c-0.33-0.62-0.81-1.23-1.31-1.8c-1.03-1.15-2.2-2.21-3.4-3.23c-2.41-2.04-4.95-3.94-7.5-5.86l-1.91-1.45
			c-0.65-0.5-1.28-0.93-1.88-1.7c-0.38-0.56-0.35-1.17-0.19-1.67c0.17-0.49,0.46-0.84,0.76-1.15
			C190,219.84,190.69,219.4,191.45,219.09z"/>
	</g>
	<g>
		<path class="st1" d="M173.95,224.46c1.11-1.21,2.1-2.41,3.12-3.63c1-1.23,2.1-2.38,3.13-3.6c1.05-1.22,2.06-2.47,3.2-3.65
			c0.57-0.59,1.16-1.17,1.84-1.69c0.68-0.49,1.47-1.06,2.6-1.02c1.15,0.17,1.76,0.73,2.45,1.27c0.66,0.55,1.22,1.16,1.76,1.79
			c1.06,1.26,1.98,2.61,2.85,3.99c0.42,0.69,0.84,1.39,1.23,2.11c0.19,0.36,0.38,0.72,0.57,1.09l0.14,0.29
			c0.04,0.1,0.09,0.18,0.13,0.36c0.1,0.32,0.07,0.62,0.03,0.88c-0.23,1.03-0.77,1.69-1.28,2.37c-0.53,0.66-1.09,1.25-1.71,1.83
			c-0.25,0.23-0.65,0.22-0.88-0.03c-0.23-0.25-0.22-0.65,0.03-0.88l0,0l0.01-0.01c0.55-0.51,1.1-1.09,1.57-1.68
			c0.46-0.58,0.91-1.25,1.02-1.81c0.02-0.13,0.03-0.25,0-0.31c0.01-0.02-0.04-0.12-0.08-0.2l-0.12-0.26
			c-0.17-0.35-0.35-0.7-0.54-1.04c-0.37-0.69-0.78-1.37-1.19-2.05c-0.84-1.34-1.73-2.64-2.74-3.84c-0.51-0.59-1.03-1.16-1.61-1.64
			c-0.28-0.26-0.59-0.45-0.88-0.65c-0.31-0.15-0.62-0.33-0.84-0.33c-0.51-0.04-1.18,0.32-1.76,0.77c-0.59,0.45-1.15,0.99-1.7,1.56
			c-1.08,1.14-2.11,2.36-3.13,3.6c-1.02,1.24-1.99,2.53-3.18,3.65C176.82,222.81,175.5,223.87,173.95,224.46z"/>
	</g>
	<g>
		<path class="st1" d="M170.51,222.59c0.95-1.54,1.8-2.96,2.77-4.41l2.95-4.33c0.5-0.73,1.01-1.45,1.6-2.15
			c0.3-0.35,0.61-0.69,0.98-1.01c0.37-0.31,0.8-0.66,1.49-0.74c1.13-0.05,2.07,0.4,2.85,0.98c0.77,0.61,1.37,1.3,1.88,2.15
			c0.18,0.3,0.08,0.68-0.21,0.86c-0.3,0.18-0.68,0.08-0.86-0.21l0,0l-0.02-0.03c-0.78-1.31-2.19-2.57-3.53-2.5
			c-0.18,0.01-0.51,0.19-0.79,0.45c-0.29,0.25-0.57,0.56-0.84,0.87c-0.54,0.64-1.04,1.34-1.52,2.05c-0.99,1.42-1.84,2.95-2.83,4.41
			C173.4,220.36,172.26,221.87,170.51,222.59z"/>
	</g>
	<g>
		<path class="st1" d="M167.2,220.21c0.06-1.74,0.24-3.31,0.52-4.95c0.14-0.81,0.33-1.63,0.51-2.46c0.21-0.83,0.38-1.68,0.88-2.53
			c0.27-0.41,0.59-0.86,1.11-1.1c0.24-0.16,0.52-0.19,0.78-0.27c0.25-0.04,0.47-0.04,0.71-0.06c0.92,0,1.78,0.16,2.61,0.36
			c1.67,0.42,3.24,1.01,4.8,1.72c0.31,0.14,0.45,0.51,0.31,0.83c-0.14,0.31-0.51,0.45-0.83,0.31l0,0l-0.02-0.01
			c-1.46-0.67-3.01-1.25-4.56-1.64c-0.77-0.19-1.56-0.32-2.31-0.32c-0.17,0.02-0.38,0.01-0.53,0.04c-0.13,0.05-0.28,0.04-0.39,0.13
			c-0.25,0.1-0.43,0.36-0.62,0.64c-0.35,0.59-0.56,1.38-0.71,2.17c-0.17,0.79-0.25,1.61-0.4,2.43
			C168.77,217.13,168.27,218.82,167.2,220.21z"/>
	</g>
	<g>
		<path class="st1" d="M170.64,209.85c-0.85-1.12-1.93-2.22-3.15-2.83c-0.61-0.3-1.25-0.45-1.86-0.36
			c-0.29,0.05-0.63,0.14-0.76,0.26c-0.2,0.14-0.38,0.43-0.55,0.71c-0.66,1.21-1.02,2.71-1.32,4.17c-0.29,1.47-0.5,2.97-0.64,4.48
			c-0.28,3.01-0.38,6.06-0.15,9.05c0.06,0.75,0.15,1.49,0.28,2.21c0.07,0.36,0.15,0.72,0.25,1.05c0.1,0.34,0.22,0.57,0.41,0.86
			c0.78,1.09,2.04,1.97,3.29,2.76c2.55,1.56,5.35,2.8,8.14,3.98c2.81,1.18,5.66,2.24,8.52,3.36c0.73,0.3,1.41,0.54,2.19,0.98
			c0.08,0.04,0.28,0.19,0.37,0.3c0.08,0.12,0.17,0.24,0.24,0.36c0.1,0.23,0.19,0.47,0.23,0.68c0.1,0.44,0.13,0.85,0.15,1.26
			c0.04,1.61-0.15,3.13-0.29,4.66l-0.4,4.58c-0.2,1.54-0.45,3.08-0.84,4.58c-1.48,6.05-4.29,11.64-7.51,16.87
			c-3.22,5.25-6.9,10.16-10.57,15.06c-3.66,4.89-7.4,9.73-10.57,14.91c-1.56,2.6-2.91,5.31-3.92,8.12c-1.01,2.82-1.64,5.7-1.75,8.79
			c-0.95-2.99-0.52-6.3,0.46-9.24c0.99-2.98,2.53-5.7,4.13-8.33c3.23-5.26,6.98-10.12,10.64-15.01c3.67-4.89,7.33-9.78,10.51-14.96
			c3.18-5.16,5.92-10.65,7.36-16.51c0.38-1.46,0.62-2.94,0.81-4.43l0.39-4.56c0.14-1.52,0.32-3.04,0.29-4.49
			c-0.02-0.36-0.04-0.71-0.12-1.02c-0.07-0.32-0.18-0.55-0.28-0.57c-0.55-0.31-1.31-0.61-1.99-0.88c-5.66-2.24-11.5-4.25-16.86-7.45
			c-1.32-0.84-2.65-1.71-3.67-3.12c-0.24-0.34-0.46-0.81-0.57-1.2c-0.12-0.4-0.21-0.79-0.28-1.18c-0.15-0.78-0.24-1.56-0.3-2.34
			c-0.24-3.11-0.14-6.2,0.15-9.27c0.15-1.54,0.36-3.07,0.66-4.6c0.33-1.53,0.66-3.05,1.46-4.54c0.23-0.37,0.45-0.74,0.87-1.07
			c0.47-0.36,0.92-0.44,1.36-0.52c0.92-0.13,1.82,0.11,2.58,0.48c1.52,0.78,2.64,1.93,3.63,3.23c0.21,0.27,0.16,0.67-0.12,0.88
			c-0.27,0.21-0.67,0.16-0.88-0.12l0,0L170.64,209.85z"/>
	</g>
	<path class="st12" d="M168.36,188.46c-1.15,9.3-6.06,11.05-5.17,20.21"/>
	<path class="st12" d="M165.01,232c0,0,2.14,13.95,20.67,12.21"/>
	<path class="st12" d="M234.79,164.88c0,0,2.29,36.96,1.29,42.71s-19.2,25.5-24.88,26.38c-5.68,0.88-9.84-1.41-9.84-1.41"/>
	<path class="st12" d="M246.91,176.43c-14.88-6.17-17.19-31.59-37.26-35.97"/>
	<path class="st12" d="M221.99,147.24c0,0,25.83,21.38,26.46,35.22c0.62,13.84-7.9,22.67-8.53,32.67"/>
	<path class="st12" d="M235.79,183.69c0-6.43,8.16-8.99,11.77-5.56"/>
	<path class="st12" d="M236.33,203.96c0,0,4.01,2.03,7.19-1.61"/>
	<g>
		<path class="st1" d="M212.61,136.9c2.62-0.42,5.15-0.19,7.64,0.36c2.48,0.57,4.85,1.52,7.08,2.74c1.07,0.67,2.17,1.31,3.13,2.15
			c1.03,0.74,1.88,1.68,2.78,2.56c0.9,0.88,1.63,1.91,2.42,2.87c0.73,1.02,1.38,2.08,2.04,3.13c-0.86-0.91-1.68-1.83-2.5-2.74
			l-1.33-1.28c-0.44-0.42-0.85-0.88-1.34-1.25l-1.4-1.18c-0.23-0.2-0.47-0.39-0.72-0.55l-0.73-0.54c-0.96-0.75-2-1.36-3.02-2.01
			c-2.09-1.2-4.33-2.15-6.69-2.68c-2.33-0.53-4.82-0.73-7.1-0.36l-0.06,0.01c-0.34,0.05-0.66-0.18-0.72-0.52
			C212.04,137.28,212.27,136.96,212.61,136.9L212.61,136.9z"/>
	</g>
	<path class="st12" d="M243.52,147.93c-2.74-5.46-5.26-9.99-8.54-13.34c-4.63-4.73-11.55-7.79-20.4-2.91"/>
	<g>
		<path class="st1" d="M260.06,187.4c0.38,5.06,0.05,10.27-1.68,15.13c-1.67,4.89-4.91,9.1-8.6,12.55c-1.83,1.76-3.77,3.36-5.53,5.1
			c-1.75,1.73-3.28,3.67-3.51,6.05c-0.08,0.29-0.07,0.58-0.08,0.87c0,0.29-0.03,0.59-0.02,0.88c0.09,0.58,0.1,1.17,0.29,1.73
			c0.27,1.14,0.83,2.21,1.51,3.19c1.35,1.96,3.33,3.57,5.39,4.73l0,0l0.03,0.02c0.3,0.16,0.42,0.54,0.25,0.84
			c-0.13,0.25-0.42,0.37-0.68,0.31c-2.72-0.59-5.26-1.61-7.59-3.12c-1.15-0.77-2.22-1.67-3.13-2.75c-0.9-1.08-1.61-2.34-2.04-3.69
			c-0.43-1.35-0.57-2.79-0.47-4.18c0.11-1.4,0.4-2.76,0.91-4.08c1.06-2.62,2.87-4.75,4.74-6.68c3.81-3.84,8.04-7.1,11.58-11.01
			c1.77-1.95,3.36-4.05,4.61-6.33c1.26-2.28,2.1-4.77,2.51-7.33c0.83-5.16-0.29-10.43-2.06-15.39c-1.72-4.99-4.53-9.51-7.27-14.09
			c-2.8-4.66-4.38-9.86-7.74-13.87c-1.64-2.02-3.6-3.74-5.71-5.28c-2.14-1.51-4.43-2.79-6.7-4.28c5.22,1.3,10.08,4.38,13.46,8.72
			c3.43,4.34,5.07,9.59,7.77,14.07c2.72,4.56,5.6,9.18,7.37,14.31c1.8,5.03,2.99,10.55,2.12,16c-0.42,2.71-1.32,5.35-2.64,7.74
			c-1.31,2.4-2.97,4.57-4.79,6.58c-3.64,4.01-7.91,7.3-11.61,11.04c-1.82,1.88-3.53,3.92-4.48,6.27c-0.89,2.35-1.18,5.05-0.41,7.42
			c0.74,2.4,2.54,4.37,4.68,5.77c2.15,1.4,4.64,2.39,7.13,2.93l-0.4,1.17l0,0c-1.18-0.64-2.21-1.39-3.2-2.24
			c-0.99-0.85-1.89-1.8-2.64-2.89c-0.75-1.08-1.38-2.28-1.7-3.58c-0.22-0.64-0.24-1.32-0.33-1.98c-0.01-0.33,0.01-0.67,0.02-1
			c0.01-0.34,0.01-0.67,0.09-1c0.17-1.31,0.64-2.65,1.37-3.76c0.72-1.12,1.59-2.09,2.5-2.99c1.82-1.8,3.75-3.4,5.55-5.12
			c3.62-3.39,6.68-7.4,8.28-12.07c1.65-4.64,1.98-9.68,1.61-14.61l0-0.01c-0.03-0.34,0.23-0.64,0.58-0.67
			C259.74,186.8,260.04,187.05,260.06,187.4z"/>
	</g>
	<path class="st12" d="M245.07,237.49c0,0-15.53,1.54-18.26-16.43"/>
	<path class="st12" d="M175.55,164.55c0,0,7.01,0.7,7.84-0.32c0.83-1.02,1.43-4.69,0.27-5.61c-1.59-1.25-7.6,1.08-7.6,1.08"/>
	<g>
		<path class="st1" d="M228.49,225.48c0.4,2.68,1.2,5.37,2.33,7.84c0.61,1.21,1.24,2.43,2.1,3.46c0.19,0.28,0.41,0.53,0.65,0.76
			c0.23,0.24,0.45,0.49,0.69,0.72c0.52,0.4,1,0.88,1.58,1.17c2.21,1.37,5.09,1.51,7.83,1.71c2.77,0.15,5.57,0.17,8.37,0.22
			c5.6,0.12,11.26,0.19,16.84,1.48c1.39,0.34,2.76,0.77,4.09,1.37c1.31,0.59,2.61,1.39,3.65,2.41c2.12,1.97,3.82,4.28,5.36,6.65
			c3.03,4.78,5.45,9.88,7.8,14.96c1.19,2.53,2.31,5.11,3.63,7.52c0.64,1.2,1.46,2.31,2.25,3.47l2.42,3.43
			c6.5,9.11,13.07,18.19,19.52,27.35c3.21,4.59,6.5,9.12,9.6,13.81c1.56,2.34,3.05,4.73,4.42,7.2c1.37,2.47,2.62,5.02,3.55,7.72
			c0.22,0.68,0.47,1.35,0.62,2.05c0.18,0.69,0.36,1.39,0.45,2.11l0.16,1.07l0.06,1.09c0.01,0.38,0.08,0.67-0.01,1.19
			c-0.1,0.43-0.25,0.8-0.43,1.15c-0.72,1.35-1.67,2.41-2.61,3.49c-0.95,1.05-1.95,2.05-2.97,3.03c-4.09,3.88-8.42,7.45-12.81,10.95
			c-8.8,6.96-17.86,13.58-27.16,19.86c-2.33,1.56-4.68,3.1-7.09,4.56c-1.21,0.73-2.42,1.45-3.72,2.08
			c-0.33,0.15-0.66,0.31-1.05,0.44c-0.09,0.03-0.19,0.06-0.32,0.09l-0.18,0.04c-0.09,0.01-0.19,0-0.29,0
			c-0.29-0.05-0.43-0.13-0.65-0.2c-0.75-0.33-1.36-0.77-1.92-1.21c-2.21-1.79-4.27-3.59-6.73-4.78c-2.42-1.21-5.12-1.8-7.83-1.81
			l0,0l-0.01,0c-0.35-0.02-0.62-0.31-0.6-0.66c0.01-0.22,0.14-0.41,0.32-0.52c2.25-1.28,4.18-3.26,6.03-5.21
			c1.84-2,3.59-4.09,5.31-6.2c3.45-4.23,6.82-8.56,10.32-12.77c3.5-4.22,7.12-8.36,11.06-12.21c1.97-1.92,3.96-3.85,6.16-5.53
			c2.19-1.68,4.58-3.16,7.24-4.02c-4.32,3.42-8.59,6.64-12.53,10.44c-3.9,3.8-7.49,7.91-10.97,12.11
			c-3.49,4.2-6.85,8.52-10.32,12.77c-1.74,2.12-3.5,4.23-5.37,6.26c-1.9,2-3.83,4.02-6.36,5.47l-0.29-1.18l0,0
			c2.88,0.01,5.8,0.65,8.39,1.94c2.61,1.26,4.82,3.19,6.94,4.91c0.53,0.43,1.08,0.8,1.62,1.04c0.11,0.03,0.3,0.11,0.35,0.12
			c-0.01-0.01-0.02-0.01-0.02,0l0.08-0.02c0.05-0.01,0.11-0.02,0.19-0.05c0.28-0.09,0.59-0.23,0.89-0.37
			c1.22-0.59,2.42-1.31,3.61-2.02c2.38-1.45,4.72-2.98,7.04-4.53c9.27-6.25,18.31-12.86,27.08-19.8c4.37-3.48,8.69-7.04,12.72-10.87
			c1-0.96,1.99-1.94,2.91-2.97c0.91-1.02,1.83-2.09,2.42-3.22c0.15-0.28,0.25-0.56,0.31-0.81c0.04-0.17,0-0.58-0.01-0.9l-0.06-1.01
			l-0.16-1c-0.08-0.67-0.25-1.33-0.42-2c-0.14-0.67-0.38-1.31-0.59-1.96c-1.82-5.19-4.77-9.98-7.83-14.63
			c-3.08-4.65-6.37-9.19-9.58-13.78c-6.45-9.16-13.01-18.23-19.52-27.35l-2.42-3.44c-0.79-1.15-1.64-2.3-2.32-3.57
			c-1.36-2.51-2.48-5.07-3.67-7.61c-2.35-5.07-4.75-10.13-7.72-14.81c-1.51-2.32-3.16-4.56-5.15-6.4c-1.92-1.87-4.54-2.83-7.18-3.49
			c-5.37-1.24-10.99-1.33-16.57-1.44c-2.8-0.05-5.6-0.07-8.42-0.22c-1.41-0.08-2.82-0.2-4.24-0.43c-0.71-0.13-1.42-0.25-2.13-0.52
			l-1.05-0.4c-0.35-0.13-0.65-0.36-0.98-0.54c-0.67-0.34-1.2-0.86-1.79-1.32c-0.27-0.25-0.51-0.53-0.77-0.79
			c-0.26-0.26-0.5-0.54-0.71-0.84c-0.93-1.13-1.6-2.42-2.24-3.71c-1.19-2.62-2-5.35-2.43-8.21c-0.05-0.34,0.18-0.66,0.52-0.71
			s0.66,0.18,0.71,0.52l0,0L228.49,225.48z"/>
	</g>
	<g>
		<path class="st1" d="M263.87,286.8c0.42,2.45,0.96,4.77,1.65,7.09c0.68,2.31,1.5,4.6,2.3,6.91c1.6,4.61,3.32,9.34,3.65,14.36
			c0.08,0.62,0.05,1.25,0.08,1.87c0.01,0.63,0.04,1.25-0.02,1.87l-0.12,1.87l-0.29,1.87c-0.47,2.47-1.3,4.9-2.58,7.09
			c-1.31,2.17-3,4.1-4.95,5.69c-1.94,1.58-4.19,2.9-6.71,3.21c2.08-1.39,4.04-2.68,5.89-4.19c1.81-1.54,3.35-3.38,4.54-5.43
			c2.39-4.1,3.11-8.99,2.82-13.77c-0.3-4.79-1.79-9.45-3.56-14c-0.87-2.29-1.71-4.62-2.27-7.04
			C263.73,291.79,263.48,289.25,263.87,286.8z"/>
	</g>
	<path class="st12" d="M265.37,332.82c-0.17,5.81-5.34,14.65-5.01,16.48c0.33,1.83,13.88,15.6,14.86,18.72"/>
	<g>
		<path class="st1" d="M179.45,331.54c0.58,1.5,1.4,2.98,2.33,4.33c0.94,1.35,2.04,2.59,3.32,3.6c1.28,1,2.7,1.75,4.21,2.31
			c0.39,0.11,0.77,0.24,1.16,0.37l1.21,0.22c0.2,0.03,0.41,0.09,0.62,0.11l0.62,0.04c0.42,0.04,0.84,0.06,1.28,0.11
			c-1.63,0.47-3.46,0.72-5.2,0.27c-1.74-0.4-3.39-1.23-4.74-2.39c-1.34-1.16-2.51-2.49-3.51-3.92c-0.99-1.45-1.83-2.95-2.48-4.62
			c-0.13-0.32,0.03-0.68,0.36-0.81c0.32-0.13,0.68,0.03,0.81,0.36l0,0L179.45,331.54z"/>
	</g>
	<path class="st12" d="M185.67,340.73c1.36,5.06,5.53,10.73,5.53,12.73s-6.5,14-8.33,16.5"/>
	<path class="st12" d="M193.68,284.17c0,0,2.36,17.96,26.02,15.63c23.67-2.33,35.01-18.97,22.19-58.15"/>
	<line class="st12" x1="184.96" y1="252.62" x2="201.95" y2="254.59"/>
	<path class="st12" d="M270.16,310.64c0,0,11.85,7.87,28.24,31.76"/>
	<path class="st12" d="M260.7,383.3c0,0-13.67,13.17-17.17,20.83s-4.67,32.67-3.5,40.5s3.5,12.83,7.83,12.83"/>
	<g>
		<path class="st1" d="M245.87,431.63c0.53,2.49,0.78,4.98,0.97,7.47c0.21,2.49,0.33,4.98,0.51,7.47c0.18,2.49,0.45,4.96,0.89,7.39
			c0.21,1.22,0.49,2.41,0.87,3.55c0.39,1.11,0.93,2.22,1.75,2.74c0.42,0.2,0.88,0.32,1.42,0.24c0.5-0.08,0.83-0.25,1.03-0.66
			c0.21-0.4,0.3-0.98,0.33-1.56c0.03-0.59,0.02-1.19-0.03-1.8c-0.17-2.45-0.51-4.95-0.78-7.44c-0.64-4.98-0.89-10.05-0.14-15.06
			c0.66,5.01,0.98,9.95,1.4,14.93c0.23,2.49,0.59,4.95,0.76,7.5c0.04,0.64,0.06,1.28,0.03,1.95c-0.04,0.66-0.11,1.36-0.48,2.08
			c-0.17,0.35-0.48,0.7-0.84,0.92c-0.36,0.25-0.76,0.33-1.13,0.39c-0.71,0.11-1.53-0.03-2.21-0.4c-1.33-0.87-1.85-2.2-2.3-3.41
			c-0.41-1.24-0.71-2.49-0.92-3.73c-0.44-2.5-0.72-5-0.96-7.51c-0.25-2.5-0.44-5.01-0.49-7.52
			C245.49,436.66,245.53,434.15,245.87,431.63z"/>
	</g>
	<path class="st12" d="M254.18,459.13c9.69,3.67,1.4-18.33,8.69-32c1.7-2.78,3.23,5.25,4,13.17c0.66,6.77,0.39,13.51,3.29,12.67
		c4-1.17,0.9-12.56,1.54-26.67c0.29-6.28,2.78-12.83,3.17-18.52c0.58-8.5,1.42-15.16,3-16.48"/>
	<path class="st12" d="M240.52,418.78c-52.82-42.31-88.99-84.31-111.16-81.51c-18.52,2.35-28,13.19-30.33,27.53
		c-2.33,14.33,38.1,62.56,38.1,62.56"/>
	<path class="st12" d="M160.58,244.2c-11.44,12.76-10.38,28.25-12.21,38.26c-1.83,10.01-13.64,35.54-3.74,58.27"/>
	<path class="st12" d="M207.98,391.3c0,0,29.04,5.14,50.96-6.27"/>
	<g>
		<path class="st1" d="M218.2,439.46c-2.97,0.08-5.94-0.24-8.86-0.76c-2.91-0.58-5.74-1.48-8.59-2.12
			c-1.42-0.33-2.85-0.64-4.26-0.79c-1.41-0.13-2.84-0.15-4.12,0.28c-1.29,0.39-2.37,1.25-3.23,2.33c-0.86,1.09-1.49,2.38-2.02,3.71
			l0,0.01c-0.13,0.32-0.49,0.48-0.81,0.35c-0.32-0.13-0.48-0.49-0.35-0.81l0,0c0.56-1.4,1.24-2.79,2.2-4.02
			c0.97-1.22,2.29-2.28,3.83-2.74c1.53-0.51,3.13-0.47,4.63-0.33c1.51,0.16,2.97,0.48,4.42,0.82l4.3,1.06
			c1.43,0.35,2.86,0.65,4.28,1.01C212.45,438.18,215.3,438.81,218.2,439.46z"/>
	</g>
	<path class="st12" d="M194.2,440.3c0,0-9.41,4.04-24.47-0.33c-4.09-1.19-5.72-1.73-10.21-3.51c-2.23-0.89-8.43-1.07-10.65-1.99
		c-3.45-1.43-5.7-4.7-8.88-5.98c-7.47-3.01-13.76-5.2-16.96-4.69c-19,3-20.17,46.67-1.33,48.5c18.83,1.83,28.17-3,33-2
		c4.83,1,9.83,2.51,12.17,2.42c2.33-0.09,5.33-1.41,10,0c4.67,1.41,14.5,8.74,18.67,8.74s18-13.5,18-13.5"/>
	<g>
		<path class="st1" d="M124.37,405.63c1.96,0.49,3.88,1.3,5.61,2.38l1.3,0.81c0.43,0.28,0.83,0.59,1.25,0.89
			c0.84,0.58,1.64,1.22,2.41,1.88c3.1,2.64,5.89,5.58,8.73,8.46c2.81,2.9,5.58,5.84,8.42,8.68c2.85,2.81,5.75,5.65,9.08,7.71
			l0.03,0.02c0.29,0.18,0.38,0.57,0.2,0.86c-0.18,0.29-0.57,0.38-0.86,0.2l0,0c-3.55-2.2-6.45-5.07-9.34-7.91
			c-2.86-2.86-5.63-5.8-8.43-8.69c-2.78-2.91-5.71-5.67-8.7-8.32C131.07,409.96,128.04,407.35,124.37,405.63z"/>
	</g>
	<path class="st12" d="M126.26,423.94c-6.15,3.41-13.23,35.59,1.11,48.72"/>
	<polyline class="st12" points="140.72,464.3 153.87,438.3 174.87,466.96 184.7,446.38 186.53,471.8 167.03,444.96 156.03,466.63
		142.61,436.45 	"/>
	<g>
		<path class="st1" d="M188.82,436.99c1.05-0.28,2.12-0.03,2.96,0.4c0.86,0.42,1.59,0.99,2.26,1.58c1.34,1.2,2.48,2.56,3.56,3.93
			c2.15,2.77,4.06,5.68,5.96,8.58c3.78,5.82,7.42,11.71,11.57,17.21c2.09,2.73,4.29,5.39,6.81,7.68c2.5,2.25,5.42,4.27,8.71,4.5
			c1.68,0.15,3.38,0.14,5.04-0.1c1.64-0.25,3.29-0.72,4.55-1.66c0.63-0.46,1.08-1.07,1.28-1.7c0.18-0.63,0.05-1.31-0.29-1.98
			c-0.7-1.35-2.06-2.45-3.36-3.64c1.7,0.48,3.38,1.34,4.48,3c0.54,0.82,0.82,1.96,0.49,3.01c-0.31,1.04-1.06,1.81-1.83,2.35
			c-1.58,1.09-3.36,1.58-5.13,1.86c-1.78,0.26-3.57,0.27-5.33,0.11c-1.83-0.11-3.6-0.78-5.16-1.65c-1.56-0.89-2.98-1.98-4.28-3.17
			c-2.61-2.38-4.85-5.08-6.97-7.85c-4.2-5.57-7.85-11.48-11.63-17.28c-1.89-2.89-3.79-5.79-5.9-8.49c-1.05-1.35-2.16-2.65-3.4-3.77
			c-0.62-0.55-1.28-1.05-1.98-1.39c-0.7-0.35-1.42-0.49-2.07-0.32l-0.01,0c-0.33,0.09-0.68-0.11-0.76-0.44
			S188.49,437.07,188.82,436.99z"/>
	</g>
	<path class="st12" d="M221.98,477.25c0,0-6.22-2.87-14-4.16"/>
	<path class="st12" d="M199.21,435.59c0,0,23.23-1.97,40.94-12.8"/>
	<path class="st12" d="M242.23,476.29c8.47,0.51,15.65-1.38,20.8-3.2c13.5-4.79,34.74-21.47,65.67-43.89
		c24.06-17.44,46.58-34.63,41.83-54.06c-8-32.73-35.88-26.75-35.88-26.75"/>
	<path class="st12" d="M311.34,441.87c0,0-2.96,29.01,6.2,31.22"/>
	<g>
		<path class="st20" d="M199.69,7.1l-29.9,0.1c0,0,2.22,49.04,2.32,73.18c9.62-0.37,21.17,1.99,30.54-1.04
			c0.22-13.32-0.55-26.33-1.16-40.04C201.2,32.95,199.69,7.1,199.69,7.1z"/>
		<path class="st20" d="M196.97,14.21c0,0-4.04-0.49-4.92-4.11l-15.2,0.52c0,0-0.11,2.14-3.39,3.76l2.04,59.66
			c0,0,4.17-0.08,4.64,3.36c0,0,13.47,0.54,15.71-0.29c0,0,0.68-4.17,3.76-4.15L196.97,14.21z"/>
		<ellipse transform="matrix(0.9994 -0.0342 0.0342 0.9994 -1.3968 6.4106)" class="st20" cx="186.54" cy="44" rx="9.3" ry="9.93"/>
		<path class="st20" d="M189.77,46.08c4.01-0.34-1.31-9.13-2.95-3.45c-0.39,1.34-0.06,3.29-1.57,4.11
			c-1.74,0.94-3.49-1.34-3.56-2.83c-0.09-1.62,0.89-3.38,2.72-3.2"/>
		<path class="st20" d="M192.63,42.79c0,0-5.3,0.11-7.78,0.19c-1.28,0.04-2.69-0.12-3.91,0.05"/>
		<path class="st20" d="M192.69,44.4c-3.93,0.13-7.99,0.33-11.89,0.18"/>
	</g>
	<g>
		<path class="st20" d="M104.44,32.95L78.6,47.99c0,0,26.44,41.36,38.6,62.22c8.14-5.13,19.33-8.86,25.92-16.17
			c-6.47-11.64-13.64-22.53-21.02-34.09C118.68,54.58,104.44,32.95,104.44,32.95z"/>
		<path class="st20" d="M105.64,40.47c0,0-3.74,1.6-6.31-1.1l-12.9,8.05c0,0,0.97,1.91-1.06,4.95l31.6,50.64c0,0,3.57-2.16,5.7,0.59
			c0,0,11.94-6.27,13.46-8.1c0,0-1.49-3.95,1.18-5.47L105.64,40.47z"/>

			<ellipse transform="matrix(0.8484 -0.5293 0.5293 0.8484 -20.9362 69.8645)" class="st20" cx="111.51" cy="71.49" rx="9.3" ry="9.93"/>
		<path class="st20" d="M115.34,71.67c3.31-2.3-5.7-7.25-4.28-1.51c0.33,1.35,1.6,2.88,0.7,4.34c-1.04,1.69-3.69,0.59-4.5-0.67
			c-0.88-1.36-0.92-3.38,0.75-4.13"/>
		<path class="st20" d="M116.17,67.39c0,0-4.53,2.75-6.64,4.06c-1.09,0.67-2.39,1.24-3.36,2"/>
		<path class="st20" d="M117.03,68.75c-3.34,2.08-6.75,4.29-10.21,6.11"/>
	</g>
	<g>
		<path class="st20" d="M34.88,102.96l-14.86,25.95c0,0,43.58,22.6,64.54,34.58c4.49-8.52,12.31-17.34,14.36-26.97
			c-11.42-6.85-23.07-12.69-35.25-19.02C58.03,114.58,34.88,102.96,34.88,102.96z"/>
		<path class="st20" d="M39.68,108.88c0,0-2.44,3.25-6.02,2.21l-7.15,13.42c0,0,1.8,1.17,1.56,4.82l52.69,28.06
			c0,0,2.01-3.66,5.23-2.34c0,0,7.21-11.4,7.61-13.75c0,0-3.27-2.68-1.72-5.33L39.68,108.88z"/>

			<ellipse transform="matrix(0.4701 -0.8826 0.8826 0.4701 -85.2761 123.5728)" class="st20" cx="60.27" cy="132.8" rx="9.3" ry="9.93"/>
		<path class="st20" d="M63.68,131.04c1.71-3.64-8.56-3.43-4.47,0.83c0.96,1,2.82,1.7,2.77,3.41c-0.06,1.98-2.9,2.35-4.24,1.67
			c-1.45-0.74-2.48-2.47-1.41-3.95"/>
		<path class="st20" d="M62.26,126.93c0,0-2.55,4.65-3.72,6.84c-0.6,1.13-1.45,2.27-1.91,3.41"/>
		<path class="st20" d="M63.69,127.67c-1.85,3.47-3.71,7.09-5.79,10.39"/>
	</g>
	<g>
		<path class="st20" d="M9.65,198.38l0.1,29.9c0,0,49.04-2.22,73.18-2.32c-0.37-9.62,1.99-21.17-1.04-30.54
			c-13.32-0.22-26.33,0.55-40.04,1.16C35.5,196.86,9.65,198.38,9.65,198.38z"/>
		<path class="st20" d="M16.76,201.1c0,0-0.49,4.04-4.11,4.92l0.52,15.2c0,0,2.14,0.11,3.76,3.39l59.66-2.04
			c0,0-0.08-4.17,3.36-4.64c0,0,0.54-13.47-0.29-15.71c0,0-4.17-0.68-4.15-3.76L16.76,201.1z"/>

			<ellipse transform="matrix(0.9994 -0.0342 0.0342 0.9994 -7.2126 1.7173)" class="st20" cx="46.55" cy="211.52" rx="9.93" ry="9.3"/>
		<path class="st20" d="M48.63,208.3c-0.34-4.01-9.13,1.31-3.45,2.95c1.34,0.39,3.29,0.06,4.11,1.57c0.94,1.74-1.34,3.49-2.83,3.56
			c-1.62,0.09-3.38-0.89-3.2-2.72"/>
		<path class="st20" d="M45.34,205.44c0,0,0.11,5.3,0.19,7.78c0.04,1.28-0.12,2.69,0.05,3.91"/>
		<path class="st20" d="M46.95,205.37c0.13,3.93,0.33,7.99,0.18,11.89"/>
	</g>
	<g>
		<path class="st20" d="M35.5,293.62l15.04,25.84c0,0,41.36-26.44,62.22-38.6c-5.13-8.14-8.86-19.33-16.17-25.92
			c-11.64,6.47-22.53,13.64-34.09,21.02C57.13,279.39,35.5,293.62,35.5,293.62z"/>
		<path class="st20" d="M43.02,292.43c0,0,1.6,3.74-1.1,6.31l8.05,12.9c0,0,1.91-0.97,4.95,1.06l50.64-31.6c0,0-2.16-3.57,0.59-5.7
			c0,0-6.27-11.94-8.1-13.46c0,0-3.95,1.49-5.47-1.18L43.02,292.43z"/>

			<ellipse transform="matrix(0.8484 -0.5293 0.5293 0.8484 -140.4652 82.6315)" class="st20" cx="74.04" cy="286.56" rx="9.93" ry="9.3"/>
		<path class="st20" d="M74.22,282.72c-2.3-3.31-7.25,5.7-1.51,4.28c1.35-0.33,2.88-1.6,4.34-0.7c1.69,1.04,0.59,3.69-0.67,4.5
			c-1.36,0.88-3.38,0.92-4.13-0.75"/>
		<path class="st20" d="M69.94,281.9c0,0,2.75,4.53,4.06,6.64c0.67,1.09,1.24,2.39,2,3.36"/>
		<path class="st20" d="M71.3,281.03c2.08,3.34,4.29,6.75,6.11,10.21"/>
	</g>
	<g>
		<path class="st20" d="M365.74,292.55l14.86-25.95c0,0-43.58-22.6-64.54-34.58c-4.49,8.52-12.31,17.34-14.36,26.97
			c11.42,6.85,23.07,12.69,35.25,19.02C342.59,280.94,365.74,292.55,365.74,292.55z"/>
		<path class="st20" d="M360.94,286.64c0,0,2.45-3.25,6.02-2.21l7.15-13.42c0,0-1.8-1.17-1.56-4.82l-52.69-28.06
			c0,0-2.01,3.66-5.23,2.34c0,0-7.21,11.4-7.61,13.75c0,0,3.27,2.68,1.72,5.33L360.94,286.64z"/>

			<ellipse transform="matrix(0.4701 -0.8826 0.8826 0.4701 -51.5184 439.623)" class="st20" cx="340.35" cy="262.71" rx="9.3" ry="9.93"/>
		<path class="st20" d="M336.94,264.47c-1.71,3.64,8.56,3.43,4.47-0.83c-0.96-1-2.82-1.7-2.77-3.41c0.06-1.98,2.9-2.35,4.24-1.67
			c1.45,0.74,2.48,2.47,1.41,3.95"/>
		<path class="st20" d="M338.36,268.59c0,0,2.55-4.65,3.72-6.84c0.6-1.13,1.45-2.27,1.91-3.41"/>
		<path class="st20" d="M336.93,267.84c1.85-3.47,3.71-7.09,5.79-10.39"/>
	</g>
	<g>
		<path class="st20" d="M390.97,197.14l-0.1-29.9c0,0-49.04,2.22-73.18,2.32c0.37,9.62-1.99,21.17,1.04,30.54
			c13.32,0.22,26.33-0.55,40.04-1.16C365.12,198.65,390.97,197.14,390.97,197.14z"/>
		<path class="st20" d="M383.86,194.42c0,0,0.49-4.04,4.11-4.92l-0.52-15.2c0,0-2.14-0.11-3.76-3.39l-59.66,2.04
			c0,0,0.08,4.17-3.36,4.64c0,0-0.54,13.47,0.29,15.71c0,0,4.17,0.68,4.15,3.76L383.86,194.42z"/>

			<ellipse transform="matrix(0.9994 -0.0342 0.0342 0.9994 -6.0901 12.2264)" class="st20" cx="354.06" cy="183.99" rx="9.93" ry="9.3"/>
		<path class="st20" d="M351.99,187.22c0.34,4.01,9.13-1.31,3.45-2.95c-1.34-0.39-3.29-0.06-4.11-1.57
			c-0.94-1.74,1.34-3.49,2.83-3.56c1.62-0.09,3.38,0.89,3.2,2.72"/>
		<path class="st20" d="M355.28,190.08c0,0-0.11-5.3-0.19-7.78c-0.04-1.28,0.12-2.69-0.05-3.91"/>
		<path class="st20" d="M353.67,190.14c-0.13-3.93-0.33-7.99-0.18-11.89"/>
	</g>
	<g>
		<path class="st20" d="M365.12,101.89l-15.04-25.84c0,0-41.36,26.44-62.22,38.6c5.13,8.14,8.86,19.33,16.17,25.92
			c11.64-6.47,22.53-13.64,34.09-21.02C343.48,116.13,365.12,101.89,365.12,101.89z"/>
		<path class="st20" d="M357.6,103.09c0,0-1.6-3.74,1.1-6.31l-8.05-12.9c0,0-1.91,0.97-4.95-1.06l-50.64,31.6
			c0,0,2.16,3.57-0.59,5.7c0,0,6.27,11.94,8.1,13.46c0,0,3.95-1.49,5.47,1.18L357.6,103.09z"/>

			<ellipse transform="matrix(0.8484 -0.5293 0.5293 0.8484 -8.1692 189.3935)" class="st20" cx="326.58" cy="108.96" rx="9.93" ry="9.3"/>
		<path class="st20" d="M326.4,112.79c2.3,3.31,7.25-5.7,1.51-4.28c-1.35,0.33-2.88,1.6-4.34,0.7c-1.69-1.04-0.59-3.69,0.67-4.5
			c1.36-0.88,3.38-0.92,4.13,0.75"/>
		<path class="st20" d="M330.68,113.62c0,0-2.75-4.53-4.06-6.64c-0.67-1.09-1.24-2.39-2-3.36"/>
		<path class="st20" d="M329.31,114.48c-2.08-3.34-4.29-6.75-6.11-10.21"/>
	</g>
	<g>
		<path class="st20" d="M295.1,32.33l-25.95-14.86c0,0-22.6,43.58-34.58,64.54c8.52,4.49,17.34,12.31,26.97,14.36
			c6.85-11.42,12.69-23.07,19.02-35.25C283.49,55.48,295.1,32.33,295.1,32.33z"/>
		<path class="st20" d="M289.19,37.13c0,0-3.25-2.44-2.21-6.02l-13.42-7.15c0,0-1.17,1.8-4.82,1.56l-28.06,52.69
			c0,0,3.66,2.01,2.34,5.23c0,0,11.4,7.21,13.75,7.61c0,0,2.68-3.27,5.33-1.72L289.19,37.13z"/>

			<ellipse transform="matrix(0.4701 -0.8826 0.8826 0.4701 89.6278 264.7191)" class="st20" cx="265.27" cy="57.72" rx="9.93" ry="9.3"/>
		<path class="st20" d="M267.02,61.13c3.64,1.71,3.43-8.56-0.83-4.47c-1,0.96-1.7,2.82-3.41,2.77c-1.98-0.06-2.35-2.9-1.67-4.24
			c0.74-1.45,2.47-2.48,3.95-1.41"/>
		<path class="st20" d="M271.14,59.71c0,0-4.65-2.55-6.84-3.72c-1.13-0.6-2.27-1.45-3.41-1.91"/>
		<path class="st20" d="M270.39,61.14c-3.47-1.85-7.09-3.71-10.39-5.79"/>
	</g>
	<path class="st3" d="M247.58,188.06c0.23-1.77,0.33-3.61,0.24-5.57c-0.06-1.27-0.34-2.6-0.79-3.98c-1.58-1.42-4.21-1.69-6.61-0.66
		c-0.48,0.21-1.31,0.75-1.31,0.75C245.07,180.58,247.58,188.06,247.58,188.06z"/>
	<path class="st3" d="M196.12,220.02c0.19,0.36,0.38,0.72,0.57,1.09l0.14,0.29c0.04,0.1,0.09,0.18,0.13,0.36
		c0.1,0.32,0.07,0.62,0.03,0.88c-0.23,1.03-0.77,1.69-1.28,2.37c-0.37,0.46-0.77,0.88-1.18,1.3c0.74,0.56,1.47,1.12,2.2,1.68
		c0.42-1.03,1.31-2.01,1.33-3.39c0.04-2.25-1.45-4.49-2.78-6.03C195.56,219.06,195.85,219.53,196.12,220.02z"/>
	<path class="st3" d="M228.36,230.37c-0.48-1.53-0.86-3.09-1.11-4.7c-0.33-1-0.62-2.08-0.84-3.24c-0.19,0.2-0.38,0.41-0.56,0.61
		c-4.91,5.26-11.31,11.05-14.55,11.55c-0.95,0.15-1.87,0.21-2.73,0.21c-1.83,0-3.41-0.28-4.64-0.61c0.17,0.17,0.34,0.33,0.51,0.51
		c0.54,0.62,1.07,1.27,1.49,2.06c0.21,0.38,0.38,0.86,0.44,1.34c0.03,0.43,0.07,0.88,0.04,1.29c-0.02,0.4-0.06,0.79-0.1,1.19
		c3.27,0.66,6.79,0.79,9.76-0.46C219.81,238.53,224.46,234.36,228.36,230.37z"/>
	<path class="st17" d="M140.23,427.91c1.65,0.67,3.07,1.84,4.44,2.98c1.37,1.13,2.78,2.31,4.44,3c1.05,0.43,3.18,0.71,5.25,0.98
		c1.08,0.14,2.12,0.27,3.05,0.43c-2.21-1.76-4.21-3.72-6.2-5.68c-2.86-2.86-5.63-5.8-8.43-8.69c-2.78-2.91-5.71-5.67-8.7-8.32
		c-2.99-2.64-6.02-5.25-9.7-6.97c1.96,0.49,3.88,1.3,5.61,2.38l1.3,0.81c0.43,0.28,0.83,0.59,1.25,0.89
		c0.84,0.58,1.64,1.22,2.41,1.88c3.1,2.64,5.89,5.58,8.73,8.46c2.81,2.9,5.58,5.84,8.42,8.68c2.84,2.8,5.74,5.64,9.05,7.69
		c3.48,1.36,5.17,1.9,8.77,2.95c6.61,1.92,12.13,2.18,16.21,1.89c0.31-0.74,0.66-1.47,1.07-2.17
		c-45.13-15.87-75.07-67.8-83.94-84.97c-1.72,3.19-2.94,6.79-3.59,10.78c-2.21,13.55,35.66,59.29,37.86,61.94
		C138.41,427.18,139.32,427.54,140.23,427.91z"/>
	<path class="st17" d="M312.63,440.15c4.93-3.61,10.16-7.45,15.71-11.47c26.3-19.07,46.07-35.11,41.59-53.41
		c-0.99-4.06-2.3-7.51-3.8-10.45c-6.58,18.45-27.83,47.79-93.41,77.64c0.34,6.23,0.33,10.3-2.38,11.09c-0.79,0.23-1.36,0-1.7-0.23
		c-1.42-0.99-1.73-4.12-2.02-8.14c-2.14,0.94-4.33,1.87-6.56,2.81c0,0.04,0,0.08,0,0.11c-0.02,5.6-0.04,10.03-2.21,11.52
		c-0.5,0.35-1.09,0.52-1.77,0.52c-0.44,0-0.94-0.1-1.46-0.25c-0.06,0.17-0.12,0.33-0.21,0.5c-0.17,0.35-0.48,0.7-0.84,0.92
		c-0.36,0.25-0.76,0.33-1.13,0.39c-0.71,0.11-1.53-0.03-2.21-0.4c-1.27-0.83-1.81-2.1-2.25-3.26c-0.04,0.01-0.07,0.02-0.11,0.02
		c-2.11,0-3.85-1.04-5.23-3.14c-9.26,3.51-19.2,7.01-29.86,10.48c0.77,1.1,1.55,2.19,2.35,3.26c2.09,2.73,4.29,5.39,6.81,7.68
		c2.5,2.25,5.42,4.27,8.71,4.5c1.68,0.15,3.38,0.14,5.04-0.1c1.64-0.25,3.29-0.72,4.55-1.66c0.63-0.46,1.08-1.07,1.28-1.7
		c0.18-0.63,0.05-1.31-0.29-1.98c-0.7-1.35-2.06-2.45-3.36-3.64c1.7,0.48,3.38,1.34,4.48,3c0.17,0.27,0.32,0.57,0.43,0.89
		c6.53,0.32,13.09-0.72,20.05-3.19C273.82,468.59,290.1,456.66,312.63,440.15z"/>
	<path class="st13" d="M310.6,443.19c-12.07,8.84-22.27,16.26-30.81,21.71c3.37,0.25,10.29,0.79,13.18,1.28
		c5.1-5.22,11.26-10.24,17.28-14.64C310.27,447.97,310.46,444.89,310.6,443.19z"/>
	<path class="st6" d="M319.18,436.91c-1.98,1.45-3.92,2.87-5.81,4.26c-0.48,0.35-0.95,0.69-1.42,1.04
		c-0.21,2.14-0.39,5.14-0.42,8.42c2.49-1.79,4.94-3.47,7.27-5.02C318.83,442.76,318.95,439.83,319.18,436.91z"/>
	<path class="st21" d="M323.86,433.49c-1.13,0.82-2.25,1.64-3.35,2.44c-0.26,2.96-0.4,5.94-0.46,8.85c1.8-1.18,3.51-2.26,5.09-3.25
		C324.88,438.64,324.47,435.89,323.86,433.49z"/>
	<path class="st12" d="M277.87,465.39c0,0,13.33,0.9,15.83,1.57c2.5,0.67,11.17,5.58,13.83,6.12c2.67,0.54,14.17,0.21,16.17-1.29
		s4.06-26.87,0.53-39.35"/>
	<path class="st12" d="M320.93,472.67c0,0-2.64-18.78-1.02-37.07"/>
	<path class="st6" d="M109.99,459.1c1.71,6.39,5.36,11.95,11.78,12.57c1.39,0.14,2.74,0.23,4.03,0.3c-1.12-1.2-2.07-2.5-2.89-3.87
		c-0.77-0.19-1.49-0.42-2.16-0.71C116.84,465.68,113.06,462.37,109.99,459.1z"/>
	<path class="st13" d="M202.51,452.16c-1.89-2.89-3.79-5.79-5.9-8.49c-0.74-0.95-1.52-1.87-2.34-2.73
		c-0.41,0.16-1.51,0.55-3.19,0.91c2.55,1.85,7.53,7.37,15.54,23.89c0,0-7.62,7.39-14.5,5.02c-1.5-0.52-3.27-1.05-5.15-1.58
		l0.18,2.56c0.02,0.28-0.15,0.54-0.41,0.63c-0.07,0.03-0.14,0.04-0.21,0.04c-0.2,0-0.39-0.09-0.51-0.26l-2.89-3.98
		c-2.62-0.66-5.22-1.25-7.35-1.68l-0.35,0.73c-0.09,0.2-0.29,0.33-0.51,0.35c-0.22,0.03-0.43-0.08-0.56-0.25l-0.94-1.28
		c-1.27-0.22-2.19-0.33-2.55-0.3c-1.3,0.12-8.06-0.89-13.03-1.3l-1.25,2.47c-0.11,0.21-0.34,0.33-0.57,0.34
		c-0.24-0.01-0.46-0.15-0.55-0.37l-1.16-2.6c-4.23,0.16-19.74,5.57-29.73,4.15c0.87,1.3,1.88,2.52,3.06,3.62
		c8.62,0.26,14.94-0.89,19.38-1.69c3.42-0.62,5.89-1.07,7.82-0.67c1.59,0.33,3.19,0.71,4.73,1.08c2.99,0.71,5.81,1.4,7.29,1.33
		c0.59-0.02,1.24-0.13,1.99-0.26c2.08-0.35,4.67-0.78,8.21,0.29c2.03,0.61,4.91,2.25,7.95,3.99c3.88,2.22,8.29,4.73,10.54,4.73
		c3.16,0,13.4-9.28,17.35-13.12C209.21,462.66,205.89,457.37,202.51,452.16z"/>
</g>
</svg>
